<svg width="500" height="500" viewBox="0 0 500 500" fill="none" xmlns="http://www.w3.org/2000/svg">
<path d="M249.945 459.56C372.522 459.56 471.89 453.317 471.89 445.616C471.89 437.915 372.522 431.673 249.945 431.673C127.368 431.673 28 437.915 28 445.616C28 453.317 127.368 459.56 249.945 459.56Z" fill="#F5F5F5"/>
<path opacity="0.1" d="M120.938 348.269C121.078 347.161 121.606 346.152 122.415 345.449C123.223 344.746 124.251 344.402 125.288 344.488C135.086 344.34 144.255 351.78 152.76 359.774C154.649 361.536 156.698 363.371 158.816 361.511C159.471 360.927 159.949 360.147 160.189 359.269C160.556 357.834 160.556 356.319 160.189 354.884C159.877 353.702 159.352 352.597 158.644 351.632C154.947 346.397 150.448 343.872 146.796 338.464C144.751 335.371 143.056 332.025 141.748 328.499C140.604 325.383 138.314 320.37 139.23 316.182C140.249 311.144 143.74 311.587 145.858 312.265C152.554 314.42 158.804 319.557 164.482 325.95C170.537 332.749 176.02 340.94 181.481 349.095C183.541 352.174 185.716 355.364 188.349 356.485C190.982 357.606 194.313 355.783 195.423 351.324C196.533 346.865 195.228 341.741 194.954 337.307C194.587 332.015 194.825 326.695 195.663 321.466C196.035 318.705 196.902 316.049 198.216 313.644C201.169 308.976 205.542 310.614 208.404 314.137C210.586 317.085 212.275 320.42 213.395 323.991C216.508 332.934 218.328 343.798 219.118 354.613C219.553 361.067 220.469 367.805 222.941 372.831C226.936 380.936 234.388 380.283 240.169 376.034C250.231 368.643 257.992 351.94 260.064 333.266C260.739 327.181 260.911 320.616 262.971 315.504C264.769 311.094 269.382 308.113 271.637 312.868C272.544 315.246 272.799 317.853 272.369 320.382C271.967 322.886 271.397 325.356 270.664 327.773C269.519 331.961 268.374 339.819 271.465 342.258C271.926 342.559 272.442 342.749 272.978 342.813C273.514 342.876 274.056 342.813 274.567 342.628C284.686 340.374 294.096 330.113 300.277 315.812C302.518 310.431 304.229 304.812 305.382 299.048C306.126 295.537 306.435 291.743 307.26 288.245C307.793 285.494 308.862 282.895 310.396 280.62C314.334 275.545 323.423 277.935 323.938 288.812C324.224 295.044 322.667 301.203 322.061 307.362C321.706 311.218 323.915 311.181 325.563 311.057C333.462 310.195 340.444 301.622 346.637 292.704C353.997 282.098 362.148 268.327 372.198 267.933C374.487 267.834 378.299 268.155 379.673 271.961C380.31 274.293 380.31 276.773 379.673 279.105C377.635 288.196 371.66 292.901 367.081 297.385C354.174 310.421 342.82 325.13 333.278 341.174C331.825 343.638 330.325 347.69 331.71 350.117C331.984 350.564 332.375 350.914 332.833 351.122C333.292 351.33 333.797 351.388 334.286 351.287C339.013 350.905 343.443 346.853 347.759 343.502C352.074 340.152 356.974 337.22 361.495 339.807C362.889 340.705 364.103 341.891 365.068 343.297C366.033 344.703 366.729 346.301 367.116 347.998C367.923 350.976 368.053 354.12 367.493 357.163C365.834 365.526 358.656 369.296 354.707 373.41C349.269 379.055 344.291 385.191 339.826 391.751C335.705 397.824 331.813 404.475 327.692 410.449C312.811 431.784 292.207 434.949 273.892 437.425C253.963 440.11 233.988 438.657 214.173 435.849C199.761 433.779 185.556 429.357 171.487 424.122C166.657 422.237 161.861 420.18 157.121 417.741C152.028 415.13 144.53 413.516 142.572 403.243C142.16 401.026 142.641 399.228 144.003 398.39C148.227 395.816 154.248 399.265 158.22 401.544C163.703 404.697 168.9 409.193 174.532 411.632C175.439 412.105 176.426 412.377 177.432 412.432C178.439 412.488 179.446 412.324 180.393 411.952C181.319 411.534 182.083 410.786 182.557 409.833C183.155 408.58 183.302 407.132 182.969 405.769C182.734 405.036 182.342 404.374 181.824 403.835C171.734 392.631 159.671 383.703 146.338 377.573C142.046 375.59 137.662 373.964 133.529 371.156C130.189 368.933 127.307 365.999 125.059 362.533C123.055 359.405 119.965 353.554 120.938 348.269Z" fill="#FB0B0F"/>
<path opacity="0.1" d="M339.884 257.721C339.119 258.574 338.116 259.136 337.028 259.321C335.941 259.507 334.826 259.306 333.854 258.749C332.881 258.193 332.104 257.31 331.638 256.236C331.173 255.162 331.046 253.953 331.275 252.794C335.225 232.224 343.81 217.171 354.021 224.944C361.644 230.745 349.694 246.759 339.884 257.721Z" fill="#FB0B0F"/>
<path opacity="0.1" d="M151.26 245.662C140.695 236.843 133.312 224.722 140.844 221.63C147.964 218.674 151.26 245.662 151.26 245.662Z" fill="#FB0B0F"/>
<path opacity="0.3" d="M312.182 267.354C315.305 265.499 317.952 262.841 319.888 259.617C321.823 256.393 322.987 252.703 323.274 248.877L331.012 147.44C331.414 142.226 330.797 136.979 329.202 132.037C327.608 127.094 325.07 122.565 321.752 118.74L297.908 91.2591C296.595 89.7404 295.59 87.9441 294.957 85.9846C294.325 84.025 294.078 81.9452 294.233 79.8775L295.378 65.0223L233.668 59.5779L232.523 74.3592C232.366 76.4281 231.81 78.4391 230.89 80.2633C229.969 82.0875 228.705 83.6847 227.177 84.9525L199.476 107.9C195.624 111.091 192.435 115.112 190.112 119.707C187.79 124.301 186.386 129.368 185.991 134.581L178.241 236.017C177.948 239.838 178.538 243.678 179.958 247.194C181.378 250.71 183.584 253.793 186.38 256.169C183.258 258.023 180.611 260.681 178.677 263.906C176.743 267.13 175.583 270.82 175.3 274.646L165.421 403.982C165.187 407.028 165.514 410.093 166.382 413.002C167.25 415.912 168.642 418.609 170.479 420.939C172.316 423.269 174.562 425.187 177.088 426.583C179.614 427.979 182.371 428.825 185.201 429.074L287.079 438.09C289.909 438.341 292.757 437.99 295.461 437.056C298.165 436.122 300.671 434.624 302.837 432.647C305.002 430.671 306.785 428.254 308.082 425.536C309.379 422.817 310.165 419.851 310.396 416.805L320.275 287.469C320.568 283.658 319.982 279.829 318.57 276.32C317.159 272.812 314.964 269.732 312.182 267.354Z" fill="#FB0B0F"/>
<path opacity="0.3" d="M233.68 59.5911L232.805 71.0449L294.502 76.5032L295.377 65.0494L233.68 59.5911Z" fill="#FB0B0F"/>
<path opacity="0.3" d="M321.18 121.364L297.336 93.8827C297.336 93.8827 281.962 94.6094 293.901 114.884C304.078 132.043 321.809 129.37 321.18 121.364Z" fill="white"/>
<path opacity="0.2" d="M165.433 403.995C165.199 407.04 165.526 410.105 166.393 413.015C167.261 415.924 168.654 418.621 170.491 420.951C172.328 423.282 174.573 425.199 177.099 426.595C179.626 427.991 182.383 428.837 185.213 429.086L287.091 438.102C292.806 438.607 298.473 436.647 302.846 432.656C307.218 428.664 309.939 422.967 310.408 416.817L165.433 403.995Z" fill="#FB0B0F"/>
<path opacity="0.3" d="M316.727 123.827C319.39 126.902 321.427 130.541 322.708 134.512C323.989 138.482 324.486 142.697 324.167 146.886L316.429 248.323C316.228 250.931 315.431 253.444 314.109 255.641C312.787 257.837 310.981 259.648 308.851 260.912L299.842 266.282L307.913 273.168C309.822 274.79 311.329 276.895 312.3 279.295C313.271 281.696 313.674 284.317 313.476 286.927L303.597 416.263C303.262 420.442 301.404 424.309 298.43 427.02C295.456 429.732 291.606 431.067 287.72 430.736L185.842 421.72C181.945 421.368 178.337 419.369 175.807 416.16C173.277 412.95 172.033 408.793 172.346 404.598L182.225 275.262C182.422 272.654 183.216 270.14 184.537 267.943C185.857 265.746 187.662 263.936 189.792 262.673L198.8 257.29L190.787 250.417C188.878 248.795 187.371 246.69 186.4 244.289C185.43 241.889 185.026 239.267 185.224 236.658L192.974 135.221C193.295 131.034 194.425 126.964 196.292 123.274C198.159 119.583 200.721 116.352 203.814 113.788C212.972 107.42 237.01 123.273 265.158 125.761C293.306 128.249 310.843 120.575 316.727 123.827Z" fill="#FB0B0F"/>
<path opacity="0.2" d="M265.032 125.798C236.896 123.335 212.834 107.432 203.677 113.813C219.702 123.298 238.018 129.161 264.586 131.514C291.154 133.866 316.727 123.827 316.727 123.827C310.843 120.575 293.169 128.286 265.032 125.798Z" fill="#FB0B0F"/>
<path opacity="0.2" d="M178.253 236.079C177.96 239.9 178.55 243.739 179.97 247.255C181.39 250.771 183.596 253.854 186.392 256.231L312.182 267.317C315.305 265.462 317.952 262.804 319.888 259.58C321.823 256.356 322.987 252.666 323.274 248.84L178.253 236.079Z" fill="#FB0B0F"/>
<path d="M304.203 62.3985L303.058 62.3L303.802 52.532C303.884 51.4666 303.769 50.3943 303.465 49.3767C303.161 48.359 302.673 47.4159 302.03 46.6012C301.387 45.7866 300.601 45.1165 299.716 44.6293C298.832 44.142 297.867 43.8472 296.877 43.7617L287.01 42.8872L287.101 41.6554L296.969 42.5176C299.263 42.7279 301.387 43.9072 302.875 45.7976C304.364 47.6881 305.097 50.1359 304.913 52.6059L304.203 62.3985Z" fill="#FB0B0F"/>
<path d="M301.09 74.6794L300.3 73.7925C301.619 72.4272 302.432 70.5933 302.589 68.6313L303.734 68.7422C303.551 71.0008 302.611 73.1108 301.09 74.6794Z" fill="#FB0B0F"/>
<path d="M296.67 46.8559L235.145 41.4128C232.568 41.1848 230.307 43.248 230.095 46.021L228.864 62.1276C228.652 64.9006 230.57 67.3334 233.147 67.5614L294.673 73.0045C297.25 73.2325 299.51 71.1694 299.722 68.3963L300.953 52.2898C301.165 49.5167 299.247 47.0839 296.67 46.8559Z" fill="#FB0B0F"/>
<path opacity="0.2" d="M236.278 65.0839C236.202 65.0777 236.129 65.0555 236.062 65.0187C235.994 64.9818 235.935 64.931 235.886 64.8692C235.837 64.8074 235.8 64.7358 235.777 64.6585C235.753 64.5812 235.745 64.4997 235.751 64.4188L237.193 44.9937C237.208 44.8314 237.28 44.6815 237.396 44.5758C237.511 44.47 237.66 44.4167 237.811 44.427C237.887 44.4333 237.96 44.4554 238.027 44.4923C238.095 44.5291 238.154 44.5799 238.203 44.6417C238.252 44.7036 238.289 44.7752 238.312 44.8525C238.336 44.9298 238.344 45.0113 238.338 45.0922L236.85 64.5666C236.83 64.7134 236.761 64.8474 236.655 64.9428C236.55 65.0382 236.415 65.0885 236.278 65.0839Z" fill="white"/>
<path opacity="0.2" d="M247.439 66.0693C247.363 66.0631 247.29 66.041 247.223 66.0041C247.156 65.9673 247.096 65.9165 247.047 65.8546C246.998 65.7928 246.961 65.7212 246.938 65.6439C246.915 65.5666 246.906 65.4851 246.912 65.4042L248.4 45.9298C248.415 45.7675 248.487 45.6177 248.603 45.5119C248.718 45.4062 248.867 45.3529 249.018 45.3632C249.168 45.3788 249.306 45.4574 249.403 45.5819C249.499 45.7065 249.546 45.8669 249.533 46.0284L248.057 65.5027C248.051 65.5837 248.03 65.6626 247.996 65.735C247.962 65.8074 247.915 65.8718 247.857 65.9244C247.8 65.9771 247.733 66.017 247.661 66.0419C247.59 66.0667 247.514 66.0761 247.439 66.0693Z" fill="white"/>
<path opacity="0.2" d="M258.588 67.0546C258.513 67.0484 258.439 67.0262 258.372 66.9893C258.305 66.9525 258.245 66.9017 258.196 66.8399C258.147 66.7781 258.11 66.7064 258.087 66.6291C258.064 66.5518 258.055 66.4704 258.062 66.3894L259.55 46.915C259.567 46.7539 259.64 46.6059 259.755 46.5007C259.87 46.3955 260.017 46.3411 260.168 46.3484C260.319 46.3641 260.458 46.4422 260.556 46.5664C260.654 46.6905 260.704 46.8509 260.694 47.0136L259.206 66.5003C259.201 66.5808 259.18 66.6592 259.145 66.731C259.111 66.8027 259.064 66.8663 259.006 66.918C258.948 66.9697 258.882 67.0084 258.81 67.0319C258.738 67.0553 258.663 67.0631 258.588 67.0546Z" fill="white"/>
<path opacity="0.2" d="M269.748 68.0524C269.673 68.0462 269.6 68.024 269.532 67.9871C269.465 67.9503 269.405 67.8995 269.356 67.8377C269.307 67.7759 269.27 67.7042 269.247 67.6269C269.224 67.5496 269.215 67.4681 269.222 67.3872L270.71 47.9128C270.727 47.7517 270.8 47.6037 270.915 47.4985C271.03 47.3933 271.177 47.3389 271.328 47.3462C271.478 47.3619 271.616 47.4404 271.712 47.565C271.809 47.6895 271.856 47.8499 271.843 48.0114L270.355 67.4981C270.34 67.6571 270.269 67.8038 270.156 67.9073C270.043 68.0107 269.896 68.0627 269.748 68.0524Z" fill="white"/>
<path opacity="0.2" d="M280.852 69.0378C280.702 69.0252 280.563 68.9497 280.464 68.8275C280.366 68.7054 280.316 68.5464 280.325 68.385L281.813 48.8983C281.836 48.7395 281.91 48.5946 282.024 48.4905C282.138 48.3863 282.282 48.3299 282.432 48.3317C282.582 48.3474 282.722 48.4255 282.82 48.5496C282.918 48.6738 282.968 48.8341 282.958 48.9969L281.47 68.4836C281.456 68.6449 281.382 68.7936 281.267 68.8973C281.151 69.0011 281.002 69.0516 280.852 69.0378Z" fill="white"/>
<path opacity="0.2" d="M292.058 70.0232C291.907 70.0076 291.768 69.9294 291.67 69.8053C291.571 69.6812 291.522 69.5208 291.531 69.3581L292.974 49.9207C292.979 49.8402 293 49.7617 293.035 49.69C293.069 49.6182 293.116 49.5546 293.174 49.5029C293.232 49.4512 293.298 49.4125 293.37 49.3891C293.442 49.3656 293.517 49.3579 293.592 49.3664C293.666 49.3726 293.738 49.3944 293.803 49.4307C293.869 49.4669 293.928 49.5168 293.976 49.5774C294.024 49.6381 294.06 49.7084 294.082 49.7842C294.105 49.86 294.113 49.9399 294.107 50.0192L292.63 69.5059C292.604 69.6495 292.533 69.7792 292.429 69.8733C292.325 69.9674 292.194 70.0203 292.058 70.0232Z" fill="white"/>
<path opacity="0.2" d="M197.289 202.205C195.549 191.846 181.527 192.573 180.726 203.067L178.207 236.079C177.914 239.9 178.504 243.739 179.924 247.255C181.344 250.771 183.55 253.855 186.346 256.231C183.223 258.085 180.577 260.743 178.643 263.967C176.709 267.192 175.549 270.882 175.265 274.707L165.387 404.044C165.153 407.089 165.48 410.154 166.348 413.064C167.215 415.973 168.608 418.67 170.445 421.001C172.282 423.331 174.527 425.249 177.054 426.644C179.58 428.04 182.337 428.887 185.167 429.135L211.495 431.463C214.396 431.719 217.312 431.253 220.019 430.103C222.726 428.953 225.151 427.149 227.107 424.83C229.063 422.511 230.497 419.739 231.299 416.729C232.101 413.719 232.25 410.55 231.733 407.468L197.289 202.205Z" fill="#FB0B0F"/>
<path opacity="0.3" d="M294.669 379.781C299.385 375.478 299.966 367.876 295.967 362.802C291.968 357.728 284.903 357.103 280.188 361.406C275.472 365.709 274.891 373.311 278.89 378.385C282.889 383.459 289.954 384.084 294.669 379.781Z" fill="#FB0B0F"/>
<path opacity="0.3" d="M263.007 324.902C262.879 326.583 262.291 328.185 261.318 329.506C260.344 330.827 259.028 331.807 257.536 332.323C256.045 332.839 254.444 332.868 252.938 332.405C251.431 331.942 250.086 331.009 249.072 329.723C248.058 328.438 247.421 326.857 247.242 325.182C247.063 323.507 247.35 321.813 248.066 320.313C248.782 318.814 249.895 317.576 251.265 316.757C252.635 315.938 254.199 315.575 255.761 315.713C256.798 315.803 257.808 316.113 258.734 316.624C259.659 317.134 260.482 317.837 261.155 318.69C261.828 319.544 262.338 320.532 262.656 321.598C262.974 322.664 263.093 323.787 263.007 324.902Z" fill="#FB0B0F"/>
<path opacity="0.3" d="M229.89 221.138C228.323 221.218 226.768 220.797 225.423 219.928C224.079 219.058 223.004 217.778 222.334 216.251C221.665 214.724 221.432 213.017 221.665 211.347C221.897 209.677 222.584 208.119 223.64 206.87C224.695 205.62 226.071 204.735 227.594 204.328C229.117 203.92 230.718 204.007 232.194 204.579C233.671 205.15 234.957 206.18 235.889 207.538C236.822 208.895 237.359 210.521 237.434 212.207C237.53 214.467 236.79 216.675 235.376 218.349C233.963 220.023 231.99 221.026 229.89 221.138Z" fill="#FB0B0F"/>
<path opacity="0.3" d="M251.49 170.13C250.382 170.189 249.282 169.894 248.33 169.28C247.378 168.667 246.616 167.763 246.141 166.684C245.666 165.605 245.499 164.398 245.662 163.217C245.825 162.036 246.309 160.933 247.055 160.048C247.8 159.163 248.773 158.536 249.849 158.246C250.926 157.956 252.058 158.017 253.103 158.42C254.147 158.822 255.058 159.55 255.718 160.509C256.379 161.469 256.76 162.618 256.813 163.811C256.882 165.407 256.36 166.968 255.363 168.152C254.366 169.336 252.973 170.047 251.49 170.13Z" fill="#FB0B0F"/>
<path opacity="0.3" d="M286.243 288.06C286.189 288.754 285.945 289.415 285.542 289.959C285.139 290.504 284.595 290.908 283.979 291.12C283.363 291.333 282.702 291.344 282.08 291.152C281.458 290.96 280.902 290.574 280.484 290.043C280.065 289.512 279.803 288.86 279.729 288.168C279.655 287.476 279.773 286.777 280.068 286.157C280.363 285.538 280.823 285.026 281.388 284.687C281.953 284.349 282.599 284.198 283.244 284.254C284.11 284.332 284.912 284.777 285.474 285.49C286.036 286.203 286.313 287.127 286.243 288.06Z" fill="#FB0B0F"/>
<path opacity="0.7" d="M226.948 384.434H226.399C225.522 384.369 224.666 384.118 223.88 383.695C223.094 383.272 222.394 382.686 221.82 381.971C221.255 381.257 220.828 380.431 220.562 379.538C220.297 378.646 220.199 377.706 220.275 376.772C220.381 375.392 220.859 374.076 221.65 372.983C222.44 371.89 223.509 371.068 224.726 370.619C225.944 370.169 227.256 370.11 228.504 370.449C229.751 370.789 230.88 371.511 231.753 372.53C232.625 373.548 233.203 374.817 233.416 376.183C233.629 377.549 233.468 378.952 232.952 380.221C232.437 381.49 231.589 382.569 230.513 383.329C229.436 384.088 228.178 384.493 226.891 384.496L226.948 384.434ZM226.948 371.082C225.837 371.059 224.745 371.385 223.803 372.02C222.861 372.655 222.112 373.571 221.646 374.656C221.18 375.741 221.017 376.949 221.178 378.132C221.339 379.315 221.817 380.422 222.553 381.318C223.041 381.941 223.64 382.453 224.314 382.825C224.988 383.197 225.724 383.422 226.479 383.486C228.004 383.621 229.518 383.099 230.685 382.034C231.853 380.969 232.58 379.449 232.706 377.807C232.832 376.166 232.347 374.537 231.357 373.281C230.368 372.024 228.955 371.242 227.429 371.106L226.948 371.082Z" fill="white"/>
<path opacity="0.7" d="M297.748 240.291H297.347C296.076 240.178 294.898 239.528 294.072 238.482C293.246 237.436 292.839 236.08 292.94 234.712C293.016 233.707 293.362 232.748 293.935 231.952C294.509 231.156 295.286 230.557 296.171 230.228C297.057 229.9 298.012 229.855 298.92 230.101C299.828 230.347 300.649 230.873 301.285 231.613C301.92 232.353 302.341 233.277 302.496 234.27C302.651 235.264 302.534 236.285 302.159 237.208C301.784 238.131 301.167 238.917 300.383 239.469C299.6 240.021 298.684 240.315 297.748 240.316V240.291ZM293.799 234.761C293.743 235.46 293.849 236.164 294.106 236.809C294.364 237.453 294.766 238.02 295.276 238.457C295.786 238.895 296.389 239.19 297.031 239.317C297.672 239.443 298.333 239.397 298.954 239.183C299.576 238.968 300.138 238.592 300.591 238.088C301.045 237.583 301.376 236.966 301.554 236.291C301.733 235.615 301.753 234.903 301.615 234.217C301.476 233.531 301.182 232.893 300.758 232.359C300.42 231.923 300.003 231.567 299.533 231.311C299.063 231.054 298.549 230.904 298.022 230.868C297.504 230.821 296.983 230.885 296.488 231.055C295.992 231.225 295.533 231.499 295.136 231.86C294.74 232.222 294.413 232.664 294.176 233.162C293.938 233.66 293.795 234.203 293.753 234.761H293.799Z" fill="white"/>
<path opacity="0.7" d="M223.788 131.082H223.616C223.027 131.02 222.484 130.714 222.099 130.229C221.715 129.745 221.52 129.119 221.556 128.483C221.583 128.003 221.739 127.542 222.007 127.157C222.274 126.772 222.64 126.479 223.06 126.315C223.48 126.151 223.935 126.123 224.37 126.234C224.805 126.345 225.2 126.591 225.506 126.94C225.813 127.29 226.018 127.729 226.096 128.202C226.173 128.676 226.121 129.163 225.944 129.605C225.767 130.046 225.475 130.423 225.102 130.687C224.729 130.952 224.292 131.094 223.845 131.095L223.788 131.082ZM222.403 128.545C222.381 128.744 222.396 128.946 222.447 129.138C222.499 129.331 222.587 129.51 222.704 129.665C222.822 129.821 222.968 129.949 223.132 130.043C223.297 130.136 223.478 130.193 223.663 130.209C223.849 130.226 224.036 130.202 224.213 130.139C224.39 130.076 224.553 129.975 224.693 129.843C224.833 129.711 224.946 129.549 225.027 129.369C225.107 129.188 225.153 128.991 225.162 128.791C225.184 128.592 225.169 128.39 225.117 128.198C225.065 128.005 224.978 127.826 224.86 127.671C224.743 127.515 224.597 127.387 224.432 127.293C224.267 127.2 224.087 127.143 223.901 127.127C223.716 127.11 223.529 127.134 223.352 127.197C223.175 127.26 223.012 127.361 222.872 127.493C222.732 127.625 222.618 127.787 222.538 127.967C222.457 128.148 222.411 128.345 222.403 128.545Z" fill="white"/>
<path opacity="0.7" d="M274.407 194.876H273.926C273.174 194.812 272.44 194.589 271.768 194.219C271.096 193.849 270.499 193.34 270.011 192.721C269.522 192.101 269.152 191.384 268.923 190.61C268.693 189.836 268.608 189.021 268.672 188.212C268.768 187.022 269.183 185.887 269.867 184.947C270.551 184.006 271.474 183.299 272.525 182.913C273.576 182.527 274.708 182.478 275.784 182.772C276.86 183.067 277.833 183.691 278.585 184.57C279.337 185.449 279.835 186.544 280.019 187.722C280.203 188.9 280.064 190.11 279.62 191.205C279.176 192.3 278.446 193.232 277.518 193.888C276.591 194.544 275.506 194.896 274.396 194.901L274.407 194.876ZM274.407 183.433C273.255 183.426 272.138 183.863 271.259 184.665C270.268 185.567 269.65 186.857 269.542 188.249C269.438 189.639 269.851 191.017 270.69 192.079C271.529 193.142 272.726 193.802 274.018 193.915C274.658 193.976 275.302 193.899 275.914 193.687C276.525 193.475 277.091 193.134 277.578 192.683C278.068 192.239 278.472 191.694 278.767 191.081C279.062 190.468 279.241 189.799 279.295 189.111C279.398 187.718 278.987 186.337 278.15 185.268C277.736 184.74 277.228 184.305 276.656 183.99C276.084 183.675 275.46 183.486 274.819 183.433H274.407Z" fill="white"/>
<path opacity="0.3" d="M321.362 248.729L328.757 151.998C328.804 151.38 328.737 150.758 328.561 150.168C328.384 149.578 328.101 149.031 327.728 148.558C327.355 148.086 326.899 147.697 326.386 147.414C325.873 147.132 325.314 146.96 324.739 146.911C324.165 146.86 323.587 146.932 323.039 147.122C322.49 147.312 321.982 147.616 321.543 148.018C321.103 148.419 320.742 148.91 320.48 149.462C320.217 150.014 320.058 150.616 320.012 151.234L312.617 247.966C312.373 251.18 311.394 254.28 309.766 256.988C308.138 259.696 305.913 261.929 303.288 263.486L298.789 266.171L302.83 269.608C305.183 271.606 307.042 274.199 308.24 277.155C309.438 280.112 309.939 283.342 309.698 286.557L299.819 415.894C299.224 423.654 294.691 427.435 288.315 430.453C287.905 430.645 287.566 430.978 287.353 431.401C287.139 431.824 287.063 432.311 287.137 432.786C287.211 433.261 287.43 433.695 287.759 434.02C288.089 434.345 288.51 434.542 288.956 434.58C293.763 435.002 298.53 433.352 302.207 429.994C305.884 426.635 308.171 421.842 308.565 416.67L318.443 287.333C318.688 284.117 318.189 280.886 316.991 277.929C315.792 274.971 313.932 272.379 311.575 270.384L307.535 266.947L312.033 264.25C314.66 262.695 316.887 260.463 318.515 257.755C320.144 255.046 321.122 251.945 321.362 248.729Z" fill="white"/>
<path opacity="0.3" d="M440.181 399.055C438.945 393.02 423.515 396.592 420.321 397.146C414.114 398.356 408.038 400.247 402.189 402.788C395.744 405.498 388.258 409.501 381.584 405.374C377.727 402.972 391.12 398.255 392.333 397.774C398.025 395.627 403.52 392.918 408.748 389.682C410.866 388.327 414.964 385.087 413.201 381.786C411.736 379.064 406.482 379.322 403.288 379.741C393.608 381.036 384.115 383.618 375.025 387.427C366.181 391.207 357.523 395.474 349.087 400.213C345.815 402.188 342.259 403.562 338.567 404.278C334.538 404.894 329.604 403.982 328.013 401.568C326.422 399.154 328.471 396.37 328.94 393.956C329.601 391.069 329.322 388.026 328.15 385.333C327.368 383.532 326.062 382.053 324.43 381.121C320.069 378.657 313.475 379.569 309.091 381.515C306.25 382.81 303.654 384.655 301.433 386.959C296.959 391.441 293.82 397.249 292.413 403.65C292.059 405.655 291.34 407.565 290.299 409.27C289.258 410.976 287.915 412.444 286.346 413.59C280.21 418.037 268.969 417.778 260.373 415.549C245.366 411.644 233.919 402.689 231.16 392.576C229.821 387.76 229.168 382.784 223.147 380.85C219.255 379.618 211.105 380.468 212.845 385.777C213.479 387.231 214.304 388.579 215.295 389.78C216.886 392.034 218.58 396.284 213.852 397.651C212.321 397.997 210.748 398.076 209.193 397.885C193.992 396.789 180.004 391.332 170.938 383.646C167.982 381.147 165.476 378.087 163.543 374.617C162.467 372.708 162.078 370.663 160.899 368.766C159.775 366.953 158.183 365.532 156.32 364.677C150.482 361.967 136.769 363.371 135.807 369.296C135.292 372.498 137.146 375.972 138.097 379.014C138.269 379.397 138.31 379.834 138.211 380.246C137.936 381.022 136.849 381.244 135.922 381.305C123.662 382.18 111.769 377.056 101.478 371.71C90.5803 366.044 78.5839 358.665 63.4396 358.579C60.3075 358.43 57.1733 358.82 54.1561 359.737C53.3883 359.946 52.6755 360.342 52.0727 360.895C51.7027 361.309 51.4569 361.834 51.3671 362.401C51.2773 362.967 51.3476 363.55 51.5691 364.073C52.059 365.156 52.7905 366.091 53.6982 366.795C58.277 370.811 64.6873 372.437 70.5367 374.506C87.8918 380.584 104.672 388.421 120.651 397.91C122.265 398.883 125.127 401.137 122.861 402.837C120.594 404.537 115.992 403.428 113.28 402.948C108.357 402.086 103.63 400.718 98.8335 399.413C92.4919 397.7 85.0972 396.124 78.229 397.553C74.6003 398.304 71.3608 399.905 69.6553 402.073C69.069 402.708 68.6829 403.526 68.5515 404.41C68.42 405.294 68.5498 406.2 68.9226 407C71.2807 411.521 82.0294 413.479 87.9017 415.623C95.4225 418.383 102.775 421.649 109.914 425.403C116.015 428.643 121.682 432.202 127.863 435.393C149.944 446.799 180.782 448.252 208.358 449.361C238.292 450.593 268.363 449.546 298.216 447.76C319.966 446.454 341.314 443.88 362.628 440.862C368.752 439.987 374.842 438.928 380.943 438.029C387.137 437.265 393.262 435.959 399.259 434.124C401.413 433.533 403.424 432.449 405.154 430.946C406.791 429.32 407.306 427.177 404.375 426.549C398.24 425.231 391.921 426.733 385.923 427.916C379.192 429.23 372.522 430.757 365.914 432.498C362.902 433.369 359.844 434.039 356.756 434.506C353.654 434.981 350.493 434.763 347.473 433.865C346.488 433.533 345.412 432.942 345.355 432.005C345.298 431.069 346.122 430.478 346.969 430.121C359.32 424.861 372.438 421.498 385.648 418.419C394.611 416.325 403.734 415.044 412.766 413.406C420.996 411.927 429.673 411.57 436.805 406.015C438.215 405.032 439.313 403.61 439.952 401.938C440.29 401.022 440.37 400.019 440.181 399.055Z" fill="#FB0B0F"/>
<path opacity="0.3" d="M85.9672 349.242C82.6133 338.969 70.6627 320.801 68.1443 331.542C66.7936 337.516 85.9672 349.242 85.9672 349.242Z" fill="#FB0B0F"/>
<path opacity="0.3" d="M386.083 369.394C392.47 363.124 400.437 359.38 401.468 364.898C402.429 370.108 386.083 369.394 386.083 369.394Z" fill="#FB0B0F"/>
<path opacity="0.3" d="M124.029 319.52C119.656 317.056 116.245 313.102 118.809 311.451C121.373 309.801 124.029 319.52 124.029 319.52Z" fill="#FB0B0F"/>
</svg>
