<svg width="661" height="1060" viewBox="0 0 661 1060" fill="none" xmlns="http://www.w3.org/2000/svg">
<g clip-path="url(#clip0_166_4)">
<rect width="661" height="1060" fill="white"/>
<path d="M-16.1863 1133.52L-13.991 9.8732C-13.9379 -17.3013 10.4242 -39.3656 40.5682 -39.5399L666.571 -43.1589C697.288 -43.3365 722.162 -20.7489 721.743 6.94091L704.713 1130.67C704.305 1157.61 680.05 1179.32 650.159 1179.49L38.9915 1183.03C8.53084 1183.2 -16.2402 1160.98 -16.1863 1133.52Z" fill="url(#paint0_linear_166_4)"/>
<path d="M-17.3059 1134.34L-14.0057 10.4836C-13.9258 -16.6962 10.5407 -38.7906 40.7876 -38.997L668.925 -43.2842C699.747 -43.4945 724.684 -20.9281 724.236 6.76635L706.051 1130.73C705.614 1157.68 681.255 1179.41 651.263 1179.62L38.0114 1183.8C7.44683 1184.01 -17.3868 1161.81 -17.3059 1134.34Z" fill="url(#paint1_linear_166_4)"/>
<path d="M-14.9385 1138.16L-16.2835 14.3006C-16.3159 -12.8793 8.05907 -35.0896 38.3047 -35.4395L666.418 -42.7061C697.239 -43.0627 722.269 -20.6147 721.936 7.08153L708.396 1131.12C708.071 1158.07 683.802 1179.92 653.811 1180.27L40.5827 1187.36C10.0193 1187.72 -14.9059 1165.63 -14.9385 1138.16Z" fill="url(#paint2_linear_166_4)"/>
<g opacity="0.48">
<path d="M301.055 727.885C357.633 567.21 218.974 436.799 304.516 338.555C379.699 252.21 520.941 313.737 666.742 209.481C686.377 195.44 703.557 180.2 718.623 164.34L721.005 4.41691C721.417 -23.2739 696.523 -45.8661 665.79 -45.6958L39.4612 -42.2255C9.3015 -42.0584 -15.0674 -20.0012 -15.1133 7.17443L-16.7524 978.94C192.466 902.194 272.473 809.055 301.055 727.885Z" fill="white"/>
</g>
</g>
<defs>
<linearGradient id="paint0_linear_166_4" x1="-35.7709" y1="825.032" x2="1074.8" y2="-89.0356" gradientUnits="userSpaceOnUse">
<stop stop-color="#AA80F9"/>
<stop offset="0.9964" stop-color="#6165D7"/>
</linearGradient>
<linearGradient id="paint1_linear_166_4" x1="-36.656" y1="825.822" x2="1210.67" y2="-225.8" gradientUnits="userSpaceOnUse">
<stop offset="0.0036" stop-color="#5DC3EB"/>
<stop offset="1" stop-color="white"/>
</linearGradient>
<linearGradient id="paint2_linear_166_4" x1="-362.024" y1="1654" x2="1449.68" y2="-1295.55" gradientUnits="userSpaceOnUse">
<stop offset="0.10521" stop-color="white"/>
<stop offset="0.951893" stop-color="#FF0000"/>
</linearGradient>
<clipPath id="clip0_166_4">
<rect width="661" height="1060" fill="white"/>
</clipPath>
</defs>
</svg>
