<svg width="500" height="500" viewBox="0 0 500 500" fill="none" xmlns="http://www.w3.org/2000/svg">
<path d="M443.92 306.115H263.174C259.942 306.115 257.312 303.485 257.312 300.253V36.9789C257.312 33.7469 259.942 31.1169 263.174 31.1169H443.92C447.152 31.1169 449.782 33.7459 449.782 36.9789V300.253C449.782 303.485 447.152 306.115 443.92 306.115ZM263.174 31.3679C260.079 31.3679 257.562 33.8859 257.562 36.9799V300.253C257.562 303.348 260.08 305.865 263.174 305.865H443.92C447.015 305.865 449.532 303.348 449.532 300.253V36.9789C449.532 33.8849 447.014 31.3669 443.92 31.3669L263.174 31.3679Z" fill="#E0E0E0"/>
<path d="M235.493 306.115H54.7458C51.5138 306.115 48.8838 303.485 48.8838 300.253V36.9789C48.8838 33.7469 51.5128 31.1169 54.7458 31.1169H235.493C238.725 31.1169 241.355 33.7459 241.355 36.9789V300.253C241.355 303.485 238.725 306.115 235.493 306.115ZM54.7458 31.3679C51.6518 31.3679 49.1338 33.8859 49.1338 36.9799V300.253C49.1338 303.348 51.6518 305.865 54.7458 305.865H235.493C238.588 305.865 241.105 303.348 241.105 300.253V36.9789C241.105 33.8849 238.587 31.3669 235.493 31.3669L54.7458 31.3679Z" fill="#E0E0E0"/>
<path d="M500 367.184H0V367.434H500V367.184Z" fill="#E0E0E0"/>
<path d="M67.7319 381.449H51.6719V381.699H67.7319V381.449Z" fill="#E0E0E0"/>
<path d="M223.882 378.739H170.352V378.989H223.882V378.739Z" fill="#E0E0E0"/>
<path d="M104.982 390.739H68.7319V390.989H104.982V390.739Z" fill="#E0E0E0"/>
<path d="M421.542 378.609H378.352V378.859H421.542V378.609Z" fill="#E0E0E0"/>
<path d="M436.782 378.609H430.452V378.859H436.782V378.609Z" fill="#E0E0E0"/>
<path d="M370.102 384.839H316.212V385.089H370.102V384.839Z" fill="#E0E0E0"/>
<path d="M492.753 211.053H8.20605V490.746H492.753V211.053Z" fill="#F5F5F5"/>
<path d="M400.832 58.012H323.553V157.162H400.832V58.012Z" fill="#E6E6E6"/>
<path d="M397.04 58.012H306.263V157.162H397.04V58.012Z" fill="#F0F0F0"/>
<path d="M388.276 66.8188H314.632V148.355H388.276V66.8188Z" fill="white"/>
<path d="M365.406 92.8708H338.823V122.304H365.406V92.8708Z" fill="#F0F0F0"/>
<path d="M206.466 52.343H108.92V177.497H206.466V52.343Z" fill="#E6E6E6"/>
<path d="M201.68 52.343H87.0962V177.497H201.68V52.343Z" fill="#F0F0F0"/>
<path d="M190.617 63.459H97.6602V166.379H190.617V63.459Z" fill="white"/>
<path d="M161.75 96.344H128.195V133.496H161.75V96.344Z" fill="#F0F0F0"/>
<path d="M82.6518 460.788C99.4484 460.788 113.065 455.762 113.065 449.563C113.065 443.363 99.4484 438.338 82.6518 438.338C65.8551 438.338 52.2388 443.363 52.2388 449.563C52.2388 455.762 65.8551 460.788 82.6518 460.788Z" fill="#E6E6E6"/>
<path d="M489.194 346.602C489.194 360.343 459.012 371.483 421.78 371.483C384.548 371.483 354.366 360.343 354.366 346.602C354.366 332.861 384.548 321.721 421.78 321.721C459.012 321.721 489.194 332.861 489.194 346.602Z" fill="#E6E6E6"/>
<path d="M464.937 434.374C464.937 461.889 389.764 484.194 297.033 484.194C204.302 484.194 129.129 461.889 129.129 434.374C129.129 406.859 204.302 384.553 297.033 384.553C389.764 384.553 464.937 406.858 464.937 434.374Z" fill="#E6E6E6"/>
<path d="M416.496 280.594C416.496 299.68 374.573 315.153 322.859 315.153C271.145 315.153 229.222 299.68 229.222 280.594C229.222 261.508 271.145 246.034 322.859 246.034C374.573 246.034 416.496 261.507 416.496 280.594Z" fill="#E6E6E6"/>
<path d="M255.738 341.32C255.738 361.038 201.867 377.022 135.414 377.022C68.9608 377.022 15.0898 361.037 15.0898 341.32C15.0898 321.603 68.9608 305.617 135.414 305.617C201.867 305.617 255.738 321.602 255.738 341.32Z" fill="#E6E6E6"/>
<path d="M318.641 301.094C381.019 301.094 431.586 283.325 431.586 261.406C431.586 239.487 381.019 221.718 318.641 221.718C256.263 221.718 205.696 239.487 205.696 261.406C205.696 283.325 256.263 301.094 318.641 301.094Z" fill="#263238"/>
<path opacity="0.7" d="M318.641 301.094C381.019 301.094 431.586 283.325 431.586 261.406C431.586 239.487 381.019 221.718 318.641 221.718C256.263 221.718 205.696 239.487 205.696 261.406C205.696 283.325 256.263 301.094 318.641 301.094Z" fill="white"/>
<path d="M319.136 296.491C383.727 296.491 436.088 278.722 436.088 256.803C436.088 234.884 383.727 217.115 319.136 217.115C254.545 217.115 202.184 234.884 202.184 256.803C202.184 278.722 254.545 296.491 319.136 296.491Z" fill="#263238"/>
<path opacity="0.8" d="M319.136 296.491C383.727 296.491 436.088 278.722 436.088 256.803C436.088 234.884 383.727 217.115 319.136 217.115C254.545 217.115 202.184 234.884 202.184 256.803C202.184 278.722 254.545 296.491 319.136 296.491Z" fill="white"/>
<path opacity="0.7" d="M220.736 259.086C221.494 243.673 252.777 236.199 265.234 233.551C282.921 229.948 301.012 228.631 319.04 228.537C337.068 228.629 355.158 229.949 372.846 233.55C386.369 236.562 406.567 241.352 415.224 252.765C416.497 254.621 417.36 256.819 417.344 259.086C417.318 256.818 416.419 254.653 415.123 252.835C411.777 248.284 406.669 245.425 401.656 243.047C363.415 226.782 305.989 226.835 265.385 234.301C252.976 236.833 221.671 243.924 220.736 259.086Z" fill="black"/>
<path opacity="0.7" d="M417.344 257.774C416.48 271.903 383.613 278.558 372.099 280.698C332.458 287.464 278.331 287.231 240.197 274.03C233.196 271.206 221.218 266.427 220.736 257.774C221.372 266.396 233.391 270.894 240.364 273.57C279.877 286.346 331.087 286.314 371.967 279.945C383.471 277.895 416.31 271.671 417.344 257.774Z" fill="white"/>
<path opacity="0.7" d="M294.924 277.151C294.924 277.151 318.96 288.749 337.852 282.759C356.744 276.769 365.681 271.677 375.739 271.078C385.797 270.479 421.44 268.974 416.348 260.891C411.256 252.808 403.169 254.553 397.778 251.584C392.387 248.614 394.014 240.24 387.471 241.279C380.928 242.318 294.924 277.151 294.924 277.151Z" fill="#FB0B0F"/>
<path d="M383.929 255.412C383.929 268.167 354.154 278.508 317.425 278.508C280.696 278.508 250.92 268.168 250.92 255.412C250.92 253.432 250.114 248.066 251.463 246.232C258.807 236.251 286.395 232.316 317.424 232.316C347.953 232.316 375.203 235.641 383.018 245.377C384.605 247.354 383.929 253.258 383.929 255.411V255.412Z" fill="#FB0B0F"/>
<path opacity="0.8" d="M383.929 255.412C383.929 268.167 354.154 278.508 317.425 278.508C280.696 278.508 250.92 268.168 250.92 255.412C250.92 253.432 250.114 248.066 251.463 246.232C258.807 236.251 286.395 232.316 317.424 232.316C347.953 232.316 375.203 235.641 383.018 245.377C384.605 247.354 383.929 253.258 383.929 255.411V255.412Z" fill="white"/>
<path d="M317.424 272.294C354.154 272.294 383.929 261.954 383.929 249.198C383.929 236.442 354.154 226.102 317.424 226.102C280.694 226.102 250.919 236.442 250.919 249.198C250.919 261.954 280.694 272.294 317.424 272.294Z" fill="#FB0B0F"/>
<path opacity="0.4" d="M317.424 272.294C354.154 272.294 383.929 261.954 383.929 249.198C383.929 236.442 354.154 226.102 317.424 226.102C280.694 226.102 250.919 236.442 250.919 249.198C250.919 261.954 280.694 272.294 317.424 272.294Z" fill="white"/>
<path d="M385.688 244.01C385.688 256.765 355.913 267.106 319.184 267.106C282.455 267.106 252.679 256.766 252.679 244.01C252.679 242.03 251.873 236.664 253.222 234.83C260.566 224.849 288.154 220.914 319.183 220.914C349.712 220.914 376.962 224.238 384.777 233.975C386.364 235.952 385.688 241.857 385.688 244.01Z" fill="#FB0B0F"/>
<path opacity="0.8" d="M385.688 244.01C385.688 256.765 355.913 267.106 319.184 267.106C282.455 267.106 252.679 256.766 252.679 244.01C252.679 242.03 251.873 236.664 253.222 234.83C260.566 224.849 288.154 220.914 319.183 220.914C349.712 220.914 376.962 224.238 384.777 233.975C386.364 235.952 385.688 241.857 385.688 244.01Z" fill="white"/>
<path d="M319.184 260.891C355.913 260.891 385.689 250.551 385.689 237.795C385.689 225.039 355.913 214.699 319.184 214.699C282.454 214.699 252.679 225.039 252.679 237.795C252.679 250.551 282.454 260.891 319.184 260.891Z" fill="#FB0B0F"/>
<path opacity="0.4" d="M319.184 260.891C355.913 260.891 385.689 250.551 385.689 237.795C385.689 225.039 355.913 214.699 319.184 214.699C282.454 214.699 252.679 225.039 252.679 237.795C252.679 250.551 282.454 260.891 319.184 260.891Z" fill="white"/>
<path d="M387.471 232.316C387.471 245.072 357.696 255.412 320.966 255.412C284.236 255.412 254.462 245.072 254.462 232.316C254.462 230.336 253.656 224.97 255.005 223.137C262.349 213.156 289.937 209.221 320.966 209.221C351.495 209.221 378.745 212.546 386.56 222.282C388.147 224.259 387.471 230.163 387.471 232.316Z" fill="#FB0B0F"/>
<path opacity="0.8" d="M387.471 232.316C387.471 245.072 357.696 255.412 320.966 255.412C284.236 255.412 254.462 245.072 254.462 232.316C254.462 230.336 253.656 224.97 255.005 223.137C262.349 213.156 289.937 209.221 320.966 209.221C351.495 209.221 378.745 212.546 386.56 222.282C388.147 224.259 387.471 230.163 387.471 232.316Z" fill="white"/>
<path d="M320.967 249.198C357.697 249.198 387.472 238.858 387.472 226.102C387.472 213.347 357.697 203.006 320.967 203.006C284.237 203.006 254.462 213.347 254.462 226.102C254.462 238.858 284.237 249.198 320.967 249.198Z" fill="#FB0B0F"/>
<path opacity="0.4" d="M320.967 249.198C357.697 249.198 387.472 238.858 387.472 226.102C387.472 213.347 357.697 203.006 320.967 203.006C284.237 203.006 254.462 213.347 254.462 226.102C254.462 238.858 284.237 249.198 320.967 249.198Z" fill="white"/>
<path opacity="0.2" d="M250.92 219.276C250.189 220.1 251.036 242.529 301.84 246.678C352.644 250.827 385.832 233.243 383.929 221.677L250.92 219.276Z" fill="black"/>
<path d="M383.69 220.584C383.69 233.34 353.915 243.68 317.185 243.68C280.455 243.68 250.681 233.34 250.681 220.584C250.681 218.604 249.875 213.238 251.224 211.405C258.568 201.424 286.156 197.489 317.185 197.489C347.715 197.489 374.964 200.814 382.779 210.55C384.366 212.527 383.69 218.431 383.69 220.584Z" fill="#FB0B0F"/>
<path opacity="0.8" d="M383.69 220.584C383.69 233.34 353.915 243.68 317.185 243.68C280.455 243.68 250.681 233.34 250.681 220.584C250.681 218.604 249.875 213.238 251.224 211.405C258.568 201.424 286.156 197.489 317.185 197.489C347.715 197.489 374.964 200.814 382.779 210.55C384.366 212.527 383.69 218.431 383.69 220.584Z" fill="white"/>
<path d="M317.186 237.465C353.915 237.465 383.691 227.125 383.691 214.369C383.691 201.613 353.915 191.273 317.186 191.273C280.456 191.273 250.681 201.613 250.681 214.369C250.681 227.125 280.456 237.465 317.186 237.465Z" fill="#FB0B0F"/>
<path opacity="0.4" d="M317.186 237.465C353.915 237.465 383.691 227.125 383.691 214.369C383.691 201.613 353.915 191.273 317.186 191.273C280.456 191.273 250.681 201.613 250.681 214.369C250.681 227.125 280.456 237.465 317.186 237.465Z" fill="white"/>
<path opacity="0.2" d="M256.354 204.797C255.623 205.621 251.035 225.613 301.839 229.762C352.643 233.911 381.929 222.336 383.69 214.37L256.354 204.797Z" fill="black"/>
<path d="M389.364 204.797C389.364 217.553 359.589 227.893 322.86 227.893C286.131 227.893 256.355 217.553 256.355 204.797C256.355 202.817 255.549 197.451 256.899 195.617C264.243 185.636 291.831 181.701 322.86 181.701C353.389 181.701 380.639 185.025 388.454 194.762C390.041 196.739 389.365 202.643 389.365 204.796L389.364 204.797Z" fill="#FB0B0F"/>
<path opacity="0.8" d="M389.364 204.797C389.364 217.553 359.589 227.893 322.86 227.893C286.131 227.893 256.355 217.553 256.355 204.797C256.355 202.817 255.549 197.451 256.899 195.617C264.243 185.636 291.831 181.701 322.86 181.701C353.389 181.701 380.639 185.025 388.454 194.762C390.041 196.739 389.365 202.643 389.365 204.796L389.364 204.797Z" fill="white"/>
<path d="M322.859 221.678C359.589 221.678 389.364 211.338 389.364 198.582C389.364 185.827 359.589 175.486 322.859 175.486C286.129 175.486 256.354 185.827 256.354 198.582C256.354 211.338 286.129 221.678 322.859 221.678Z" fill="#FB0B0F"/>
<path opacity="0.4" d="M322.859 221.678C359.589 221.678 389.364 211.338 389.364 198.582C389.364 185.827 359.589 175.486 322.859 175.486C286.129 175.486 256.354 185.827 256.354 198.582C256.354 211.338 286.129 221.678 322.859 221.678Z" fill="white"/>
<g opacity="0.7">
<path d="M381.592 206.197C378.397 202.677 374.082 200.378 369.695 198.549C368.513 198.056 367.287 197.572 366.356 196.692C365.425 195.812 364.851 194.418 365.315 193.224C366.581 189.968 372.487 192.315 374.571 189.511C375.463 188.311 375.215 186.547 374.37 185.313C373.525 184.079 372.207 183.263 370.908 182.523C355.861 173.952 338.725 171.9 321.653 174.799C313.88 175.81 306.001 174.691 298.164 174.789C290.326 174.887 282.014 176.447 276.289 181.799C277.753 182.395 279.27 183.026 280.33 184.2C281.39 185.373 281.842 187.256 280.931 188.547C280.186 189.601 278.81 189.96 277.546 190.221C273.131 191.132 268.593 191.786 264.517 193.713C260.441 195.64 256.797 199.143 256.065 203.592C255.334 208.041 258.514 213.146 263.019 213.323C266.52 213.461 269.445 210.897 272.42 209.046C278.705 205.136 286.718 204.128 293.776 206.358C300.834 208.588 306.813 214.018 309.711 220.829C311.445 224.904 312.154 229.473 314.71 233.09C317.266 236.706 322.785 238.882 326.127 235.977C328.644 233.791 328.702 229.926 330.358 227.033C333.234 222.006 339.957 221.069 345.736 220.691C352.696 220.236 360.045 219.855 366.264 223.013C369.307 224.558 372.074 226.944 375.465 227.327C380.188 227.861 384.681 223.935 385.7 219.292C386.719 214.649 384.786 209.717 381.591 206.198L381.592 206.197Z" fill="#FB0B0F"/>
</g>
<g opacity="0.7">
<path d="M375.429 244.515C374.582 242.324 371.945 240.959 369.701 241.653C369.84 240.31 368.918 239.028 367.735 238.377C366.553 237.725 365.159 237.591 363.809 237.567C359.466 237.489 352.043 238.805 348.118 240.665L348.286 240.625C344.28 241.906 340.326 245.302 337.56 248.474C343.746 248.12 350.223 246.733 356.409 246.38C358.856 246.24 361.505 246.152 363.532 247.531C364.731 248.346 365.575 249.595 366.745 250.452C368.64 251.839 371.4 251.99 373.363 250.699C375.326 249.408 376.275 246.708 375.427 244.517L375.429 244.515Z" fill="#FB0B0F"/>
</g>
<path opacity="0.2" d="M303.7 197.488C303.7 197.488 320.099 211.142 324.268 210.126C328.437 209.111 342.762 198.523 342.762 198.523L303.7 197.488Z" fill="black"/>
<path d="M321.792 184.118L302.403 192.484V196.799L320.633 206.486L342.762 198.524L343.315 193.289L321.792 184.118Z" fill="#FB0B0F"/>
<path opacity="0.7" d="M321.792 184.118L302.403 192.484V196.799L320.633 206.486L342.762 198.524L343.315 193.289L321.792 184.118Z" fill="white"/>
<path opacity="0.4" d="M302.403 192.484L319.961 201.45L320.633 206.486L302.403 196.799V192.484Z" fill="white"/>
<path opacity="0.8" d="M319.961 201.45C319.961 201.45 326.946 199.035 331.805 197.962C336.664 196.889 343.315 193.29 343.315 193.29L342.762 198.524L320.633 206.486L319.961 201.45Z" fill="white"/>
<g opacity="0.2">
<path d="M293.776 206.333C286.718 204.103 278.705 205.111 272.42 209.021C269.444 210.872 266.52 213.436 263.018 213.298C261.955 213.256 260.97 212.933 260.088 212.416C261.032 212.869 263.95 217.325 269.219 214.345C274.488 211.365 281.308 205.055 289.418 206.461C297.478 207.859 306.405 215.265 306.515 215.356C303.304 211.159 298.819 207.927 293.776 206.333Z" fill="black"/>
<path d="M345.736 220.665C339.957 221.043 333.234 221.981 330.358 227.007C328.703 229.901 328.644 233.765 326.127 235.951C325.287 236.681 324.308 237.089 323.274 237.235C323.245 237.421 323.231 237.537 323.231 237.537C323.231 237.537 326.479 238.237 329.113 235.076C331.748 231.914 333.713 226.294 337.561 224.537C341.408 222.781 352.474 220.558 352.474 220.558C352.474 220.558 352.202 220.486 351.727 220.376C349.722 220.414 347.714 220.534 345.737 220.664L345.736 220.665Z" fill="black"/>
</g>
<g opacity="0.1">
<path d="M278.679 192.685C275.289 193.232 271.878 193.783 268.642 194.929C265.406 196.075 262.319 197.862 260.137 200.512C259.128 201.738 258.319 203.511 259.168 204.852C260.012 206.184 261.952 206.221 263.472 205.799C266.584 204.935 269.192 202.866 271.975 201.227C278.848 197.181 287.195 195.705 295.039 197.148C295.926 197.311 296.963 197.471 297.626 196.86C298.501 196.054 298.047 194.638 297.977 193.45C297.858 191.422 299.124 189.513 300.765 188.316C302.406 187.119 304.389 186.504 306.331 185.909C311.781 184.24 317.231 182.571 322.68 180.902C316.751 179.793 310.77 178.961 304.763 178.409C299.145 177.893 293.354 177.64 287.986 179.375C286.438 179.876 284.715 180.831 284.571 182.452C284.43 184.038 285.894 185.3 286.287 186.843C286.733 188.596 285.411 189.76 283.91 190.77C282.41 191.78 280.474 192.481 278.677 192.685" fill="white"/>
</g>
<g opacity="0.1">
<path d="M324.415 216.906C323.006 215.176 318.825 213.883 316.909 217.014C316.322 218.625 316.054 220.823 316.035 222.537C316.016 224.251 316.68 226.073 318.126 226.994C319.468 227.849 321.288 227.762 322.668 226.97C324.049 226.178 325.007 224.767 325.474 223.246C326.128 221.113 325.824 218.636 324.415 216.906Z" fill="white"/>
</g>
<path opacity="0.7" d="M260.088 241.624C260.088 241.624 252.794 246.421 250.92 255.412C250.92 255.412 241.577 254.952 239.477 260.289C235.039 271.565 255.477 268.043 262.418 268.395C269.358 268.746 273.82 260.891 273.82 260.891C273.82 260.891 271.808 251.619 272.043 247.958C272.278 244.296 265.646 240.026 260.088 241.624Z" fill="#FB0B0F"/>
<path d="M224.308 241.178C226.307 240.497 228.407 240.174 230.495 239.854C227.27 239.13 224.223 237.62 221.693 235.493C225.536 234.398 229.823 234.962 233.251 237.016C230.852 233.892 229.101 230.273 228.14 226.454C232.13 227.765 235.407 231.072 236.684 235.073C237.141 231.398 237.599 227.722 238.056 224.047C238.109 223.623 238.199 223.139 238.568 222.924C239.051 222.643 239.649 223.012 240.046 223.404C242.303 225.631 243.056 229.04 242.759 232.197C242.463 235.354 241.247 238.341 240.045 241.275L236.811 243.6C231.439 246.599 224.667 246.95 219.013 244.523C220.395 242.926 222.307 241.859 224.306 241.178H224.308Z" fill="#263238"/>
<path d="M228.408 261.273C226.895 257.973 227.082 254.046 228.445 250.681C229.808 247.316 232.782 243.47 237.488 241.772C237.323 242.06 242.14 232.333 248.626 231.01C254.143 229.885 261.738 233.081 265.283 237.456C268.023 240.838 269.224 245.217 269.799 249.531C270.375 253.846 270.397 258.227 271.127 262.518C271.675 265.741 272.535 269.378 270.622 272.028C269.622 273.414 267.995 274.25 266.322 274.602C264.65 274.954 262.918 274.869 261.215 274.719C254.87 274.158 248.628 272.713 242.534 270.86C239.725 270.006 236.917 269.053 234.395 267.549C231.873 266.045 229.631 263.94 228.408 261.271V261.273Z" fill="#FB0B0F"/>
<g opacity="0.2">
<path d="M228.408 261.273C226.895 257.973 227.082 254.046 228.445 250.681C229.808 247.316 232.782 243.47 237.488 241.772C237.323 242.06 242.14 232.333 248.626 231.01C254.143 229.885 261.738 233.081 265.283 237.456C268.023 240.838 269.224 245.217 269.799 249.531C270.375 253.846 270.397 258.227 271.127 262.518C271.675 265.741 272.535 269.378 270.622 272.028C269.622 273.414 267.995 274.25 266.322 274.602C264.65 274.954 262.918 274.869 261.215 274.719C254.87 274.158 248.628 272.713 242.534 270.86C239.725 270.006 236.917 269.053 234.395 267.549C231.873 266.045 229.631 263.94 228.408 261.271V261.273Z" fill="black"/>
</g>
<g opacity="0.3">
<path d="M261.888 273.941C263.183 274.05 264.683 274.064 265.541 273.087C266.129 272.417 266.596 268.968 266.629 268.077C266.992 258.414 262.054 249.397 256.756 241.307C255.327 239.125 253.841 236.944 251.906 235.194C250.194 233.645 248.079 232.448 245.808 232.126C246.701 231.605 247.644 231.21 248.625 231.01C254.142 229.885 261.737 233.081 265.282 237.456C268.022 240.838 269.223 245.217 269.798 249.531C270.374 253.846 270.396 258.227 271.126 262.518C271.674 265.741 272.534 269.378 270.621 272.028C269.621 273.414 267.994 274.25 266.321 274.602C264.649 274.954 262.917 274.869 261.214 274.719C254.869 274.158 248.627 272.713 242.533 270.86C239.724 270.006 236.916 269.053 234.394 267.549C234.048 267.343 233.708 267.124 233.375 266.895C239.533 269.883 252.172 273.119 261.886 273.939L261.888 273.941Z" fill="white"/>
</g>
<path d="M255.642 262.454L255.806 262.065C256.334 262.203 256.812 262.529 257.132 262.971C257.267 263.158 257.377 263.372 257.394 263.602C257.41 263.832 257.317 264.08 257.121 264.201C256.933 264.318 256.683 264.299 256.487 264.196C256.291 264.093 256.143 263.917 256.025 263.73C255.785 263.35 255.651 262.904 255.642 262.454Z" fill="white"/>
<path d="M263.216 269.072L263.38 268.683C263.908 268.821 264.386 269.147 264.706 269.589C264.841 269.776 264.952 269.99 264.968 270.22C264.984 270.45 264.891 270.697 264.695 270.819C264.507 270.936 264.257 270.917 264.061 270.814C263.865 270.711 263.717 270.535 263.599 270.348C263.359 269.968 263.225 269.522 263.216 269.072Z" fill="white"/>
<path d="M265.513 260.412L265.678 260.023C266.206 260.161 266.684 260.487 267.004 260.929C267.139 261.116 267.249 261.33 267.266 261.56C267.282 261.79 267.189 262.038 266.993 262.159C266.805 262.276 266.555 262.257 266.359 262.154C266.163 262.051 266.015 261.875 265.897 261.688C265.657 261.308 265.523 260.862 265.514 260.412H265.513Z" fill="white"/>
<path d="M258.696 254.578L258.86 254.189C259.388 254.327 259.866 254.653 260.186 255.095C260.321 255.282 260.431 255.496 260.448 255.726C260.464 255.956 260.371 256.204 260.175 256.325C259.987 256.442 259.737 256.423 259.541 256.32C259.345 256.217 259.197 256.041 259.079 255.854C258.839 255.474 258.705 255.028 258.696 254.578Z" fill="white"/>
<path d="M264.618 247.985L264.782 247.596C265.31 247.734 265.788 248.06 266.108 248.502C266.243 248.689 266.354 248.903 266.37 249.133C266.386 249.363 266.293 249.61 266.097 249.732C265.909 249.849 265.659 249.83 265.463 249.727C265.267 249.624 265.119 249.448 265.001 249.261C264.761 248.881 264.627 248.434 264.618 247.985Z" fill="white"/>
<path d="M245.327 261.823L245.491 261.434C246.019 261.572 246.497 261.898 246.817 262.34C246.952 262.527 247.062 262.741 247.079 262.971C247.095 263.201 247.002 263.449 246.806 263.57C246.618 263.687 246.368 263.668 246.172 263.565C245.976 263.462 245.828 263.286 245.71 263.099C245.47 262.719 245.336 262.273 245.327 261.823Z" fill="white"/>
<path d="M241.348 267.305L241.512 266.916C242.04 267.054 242.518 267.38 242.838 267.822C242.973 268.009 243.084 268.223 243.1 268.453C243.116 268.683 243.023 268.93 242.827 269.052C242.639 269.169 242.389 269.15 242.193 269.047C241.997 268.944 241.849 268.768 241.731 268.581C241.491 268.201 241.357 267.754 241.348 267.305Z" fill="white"/>
<path d="M251.143 269.516L251.105 269.095C251.636 268.968 252.211 269.031 252.702 269.27C252.909 269.371 253.107 269.508 253.23 269.703C253.353 269.898 253.387 270.16 253.272 270.36C253.161 270.551 252.931 270.653 252.71 270.654C252.489 270.655 252.275 270.57 252.083 270.461C251.692 270.238 251.363 269.908 251.143 269.516Z" fill="white"/>
<path d="M256.102 246.237L256.266 245.848C256.794 245.986 257.272 246.312 257.592 246.754C257.727 246.941 257.838 247.155 257.854 247.385C257.87 247.615 257.777 247.862 257.581 247.984C257.393 248.101 257.143 248.082 256.947 247.979C256.751 247.876 256.603 247.7 256.485 247.513C256.245 247.133 256.111 246.686 256.102 246.237Z" fill="white"/>
<path d="M258.589 237.933L258.753 237.544C259.281 237.682 259.759 238.008 260.079 238.45C260.214 238.637 260.324 238.851 260.341 239.081C260.357 239.311 260.264 239.558 260.068 239.68C259.88 239.797 259.63 239.778 259.434 239.675C259.238 239.572 259.09 239.396 258.972 239.209C258.732 238.829 258.598 238.382 258.589 237.933Z" fill="white"/>
<path d="M249.918 254.484L250.082 254.095C250.61 254.233 251.088 254.559 251.408 255.001C251.543 255.188 251.653 255.402 251.67 255.632C251.686 255.862 251.593 256.11 251.397 256.231C251.209 256.348 250.959 256.329 250.763 256.226C250.567 256.123 250.419 255.947 250.301 255.76C250.061 255.38 249.927 254.934 249.918 254.484Z" fill="white"/>
<path d="M241.24 254.046L241.405 253.657C241.933 253.795 242.411 254.121 242.731 254.563C242.866 254.75 242.976 254.964 242.993 255.194C243.009 255.424 242.916 255.672 242.72 255.793C242.532 255.91 242.282 255.891 242.086 255.788C241.89 255.685 241.742 255.509 241.624 255.322C241.384 254.942 241.249 254.495 241.24 254.046Z" fill="white"/>
<path d="M234.467 262.603L234.631 262.214C235.159 262.352 235.637 262.678 235.957 263.12C236.092 263.307 236.202 263.521 236.219 263.751C236.235 263.981 236.142 264.229 235.946 264.35C235.758 264.467 235.508 264.448 235.312 264.345C235.116 264.242 234.968 264.066 234.85 263.879C234.61 263.499 234.476 263.053 234.467 262.603Z" fill="white"/>
<path d="M248.137 242.9L248.226 242.487C248.771 242.524 249.301 242.755 249.698 243.129C249.866 243.287 250.014 243.477 250.073 243.7C250.132 243.923 250.087 244.184 249.917 244.34C249.754 244.49 249.505 244.518 249.293 244.454C249.081 244.39 248.903 244.245 248.752 244.083C248.445 243.754 248.23 243.341 248.137 242.901V242.9Z" fill="white"/>
<path d="M239.791 245.492L239.88 245.079C240.425 245.116 240.955 245.347 241.352 245.721C241.52 245.879 241.668 246.069 241.727 246.291C241.786 246.513 241.741 246.774 241.571 246.931C241.408 247.081 241.159 247.109 240.947 247.045C240.735 246.981 240.557 246.836 240.406 246.674C240.099 246.345 239.884 245.932 239.791 245.492Z" fill="white"/>
<path d="M232.233 252.638L232.322 252.225C232.867 252.262 233.397 252.493 233.794 252.867C233.962 253.025 234.11 253.215 234.169 253.438C234.228 253.661 234.183 253.921 234.013 254.078C233.85 254.228 233.601 254.256 233.389 254.192C233.177 254.127 232.999 253.983 232.848 253.821C232.541 253.492 232.326 253.079 232.233 252.639V252.638Z" fill="white"/>
<path d="M250.058 233.741L250.147 233.328C250.692 233.365 251.222 233.595 251.619 233.97C251.787 234.128 251.935 234.318 251.994 234.541C252.053 234.764 252.008 235.024 251.838 235.181C251.675 235.331 251.426 235.359 251.214 235.295C251.002 235.23 250.824 235.086 250.673 234.924C250.366 234.595 250.151 234.182 250.058 233.743V233.741Z" fill="white"/>
<path d="M134.911 361.633C198.297 361.633 249.683 343.577 249.683 321.303C249.683 299.029 198.297 280.973 134.911 280.973C71.5238 280.973 20.1387 299.029 20.1387 321.303C20.1387 343.577 71.5238 361.633 134.911 361.633Z" fill="#263238"/>
<path opacity="0.7" d="M134.911 361.633C198.297 361.633 249.683 343.577 249.683 321.303C249.683 299.029 198.297 280.973 134.911 280.973C71.5238 280.973 20.1387 299.029 20.1387 321.303C20.1387 343.577 71.5238 361.633 134.911 361.633Z" fill="white"/>
<path d="M135.414 356.956C201.05 356.956 254.258 338.9 254.258 316.626C254.258 294.352 201.05 276.296 135.414 276.296C69.7781 276.296 16.5698 294.352 16.5698 316.626C16.5698 338.9 69.7781 356.956 135.414 356.956Z" fill="#263238"/>
<path opacity="0.8" d="M135.414 356.956C201.05 356.956 254.258 338.9 254.258 316.626C254.258 294.352 201.05 276.296 135.414 276.296C69.7781 276.296 16.5698 294.352 16.5698 316.626C16.5698 338.9 69.7781 356.956 135.414 356.956Z" fill="white"/>
<path opacity="0.7" d="M35.4229 318.945C36.1939 303.284 67.9839 295.693 80.6419 293.003C98.6149 289.344 116.998 288.005 135.317 287.909C153.636 288.002 172.018 289.343 189.992 293.001C202.709 295.695 234.454 303.315 235.211 318.944C234.874 311.764 228.039 307.301 222.335 304.161C184.64 285.929 121.638 286.105 80.7919 293.752C68.2219 296.301 36.3209 303.576 35.4219 318.944L35.4229 318.945Z" fill="black"/>
<path opacity="0.7" d="M235.21 317.613C234.33 331.969 200.932 338.728 189.232 340.902C148.95 347.774 93.9499 347.539 55.1989 334.128C48.0849 331.26 35.9129 326.406 35.4219 317.613C36.0309 326.334 48.3129 330.974 55.3659 333.668C95.5169 346.655 147.558 346.623 189.1 340.148C200.791 338.064 234.161 331.736 235.21 317.613Z" fill="white"/>
<g opacity="0.3">
<path d="M216.152 313.296C218.27 313.366 220.524 313.404 222.339 312.31C224.155 311.217 225.175 308.54 223.816 306.914C222.929 305.853 221.421 305.612 220.048 305.441L178.286 300.245L55.1337 309.222C52.3047 309.488 49.2987 309.822 47.0757 311.591C44.8517 313.36 43.9757 317.11 46.0847 319.014C47.0797 319.912 48.4667 320.197 49.6817 320.765C50.8967 321.333 52.0797 322.478 51.8687 323.802C51.7447 324.579 51.1707 325.196 50.8267 325.903C49.5937 328.44 51.7287 331.568 54.4027 332.463C57.0777 333.358 59.9917 332.697 62.7427 332.076C65.4937 331.455 68.4537 330.894 71.0637 331.962C74.5067 333.371 76.2987 337.154 79.2347 339.44C84.0517 343.189 90.9627 342.292 96.7927 340.484C102.623 338.677 108.578 336.111 114.598 337.121C118.646 337.801 122.231 340.038 125.772 342.114C129.313 344.189 133.097 346.196 137.199 346.331C141.301 346.465 145.771 344.147 146.766 340.165C147.083 338.895 147.051 337.502 147.728 336.382C149.047 334.196 152.181 334.21 154.703 334.607C159.477 335.359 164.186 336.524 168.76 338.085C170.726 338.756 172.963 339.485 174.791 338.496C176.619 337.507 176.565 333.966 174.488 333.919C188.704 335.096 203.14 333.568 216.794 329.44C220.969 328.178 225.855 325.613 225.753 321.253C225.649 316.784 220.458 314.504 216.154 313.297L216.152 313.296Z" fill="#FB0B0F"/>
</g>
<path d="M69.1109 329.178C69.1109 329.178 58.5029 327.322 58.5029 311.144C58.5029 294.966 100.936 272.424 100.936 272.424L170.42 281.972C170.42 281.972 216.566 304.249 217.892 309.288C219.218 314.327 216.566 325.2 197.206 329.178C177.846 333.156 69.1109 329.178 69.1109 329.178Z" fill="#FB0B0F"/>
<path opacity="0.5" d="M69.1109 329.178C69.1109 329.178 58.5029 327.322 58.5029 311.144C58.5029 294.966 100.936 272.424 100.936 272.424L170.42 281.972C170.42 281.972 216.566 304.249 217.892 309.288C219.218 314.327 216.566 325.2 197.206 329.178C177.846 333.156 69.1109 329.178 69.1109 329.178Z" fill="white"/>
<path opacity="0.3" d="M179.255 301.685C178.281 302.852 168.345 315.126 152.955 317.074C137.564 319.022 115.94 316.489 106.199 313.178C96.458 309.866 76.804 299.064 67.82 303.827C58.837 308.59 60.261 320.789 63.573 324.491C66.885 328.193 83.69 328.665 100.825 329.261C118.372 329.872 149.95 328.726 161.917 319.802C174.219 310.628 179.256 301.686 179.256 301.686L179.255 301.685Z" fill="black"/>
<path opacity="0.3" d="M68.2821 326.941C66.7281 326.351 65.6601 317.663 72.9211 314.638C80.1821 311.613 90.6701 315.011 99.7461 317.85C108.822 320.689 139.076 322.733 151.178 318.282C151.178 318.282 124.697 320.553 105.364 311.746C86.0311 302.939 82.1991 299.368 71.0841 302.453C59.9691 305.538 59.2221 316.251 60.6261 320.487C62.0301 324.722 68.2821 326.941 68.2821 326.941Z" fill="black"/>
<path opacity="0.3" d="M149.643 328.568C149.643 328.568 167.956 327.399 179.255 322.139C190.554 316.879 206.209 306.678 211.595 307.333C216.98 307.988 217.165 316.063 211.595 321.266C206.025 326.469 199.344 327.01 194.256 328.568C189.169 330.126 149.643 328.568 149.643 328.568Z" fill="black"/>
<path d="M213.342 304.863C210.612 304.121 208.007 304.97 205.479 306.005C202.877 307.071 200.314 308.225 197.772 309.427C192.564 311.89 187.445 314.54 182.196 316.917C171.714 321.662 160.603 324.796 149.266 326.682C146.565 327.131 143.847 327.462 141.133 327.822C139.214 328.076 139.066 331.005 141.133 330.939C154.842 330.502 168.554 331.267 182.265 331.135C194.069 331.021 210.275 331.318 216.858 319.31C219.469 314.547 219.31 306.958 213.343 304.861C211.447 304.195 210.631 307.205 212.514 307.867C214.481 308.558 215.309 310.725 215.404 312.661C215.519 315.004 214.68 317.122 213.367 319.033C210.168 323.686 204.568 325.99 199.207 326.979C193.1 328.106 186.696 328.005 180.505 328.03C174.229 328.055 167.953 327.92 161.677 327.816C154.83 327.702 147.978 327.604 141.133 327.822V330.939C148.615 329.947 156.031 328.792 163.345 326.873C168.801 325.441 174.169 323.67 179.38 321.511C184.604 319.346 189.665 316.826 194.742 314.341C197.656 312.915 200.579 311.503 203.547 310.19C206.183 309.024 209.55 307.062 212.513 307.867C214.451 308.394 215.278 305.388 213.342 304.861V304.863Z" fill="#FB0B0F"/>
<path d="M167.456 308.623C155.489 316.317 140.481 316.939 126.708 315.487C119.658 314.744 112.836 313.059 106.251 310.435C99.7932 307.862 93.5692 304.71 86.9192 302.632C80.5222 300.633 73.0912 298.892 66.9332 302.519C61.9592 305.448 58.4502 311.346 59.1892 317.2C59.9352 323.108 64.9522 328.807 70.9802 329.457C78.9562 330.317 86.9912 330.893 94.9952 331.419C112.582 332.574 130.232 332.681 147.701 330.068C149.678 329.772 148.838 326.768 146.872 327.062C131.911 329.3 116.74 329.452 101.657 328.69C94.1392 328.31 86.6332 327.714 79.1342 327.063C77.2642 326.9 75.3942 326.734 73.5252 326.567C71.8532 326.418 70.1172 326.407 68.5812 325.653C66.1132 324.442 63.9562 321.871 62.9312 319.351C60.7712 314.041 63.7872 307.988 68.5052 305.209C74.3772 301.751 81.9222 304.188 87.8712 306.22C94.1532 308.365 100.087 311.372 106.268 313.773C112.432 316.167 118.796 317.663 125.356 318.45C140.028 320.211 156.262 319.52 169.028 311.313C170.71 310.232 169.149 307.532 167.455 308.621L167.456 308.623Z" fill="#FB0B0F"/>
<path d="M175.407 301.53C172.99 303.675 170.572 305.82 168.155 307.966C167.817 308.266 167.478 308.567 167.14 308.867C166.559 309.382 166.57 310.334 167.018 310.914C167.47 311.499 168.374 311.743 169.029 311.315C172.237 309.218 175.177 306.702 177.611 303.735C178.127 303.106 178.273 302.138 177.611 301.531C177.039 301.006 175.959 300.858 175.407 301.531C174.247 302.945 172.977 304.263 171.608 305.475C171.285 305.761 170.957 306.041 170.624 306.316C170.439 306.468 170.253 306.619 170.064 306.768C169.989 306.828 169.913 306.887 169.838 306.946C170.053 306.777 169.795 306.978 169.754 307.009C169.008 307.575 168.24 308.111 167.456 308.624C168.085 309.44 168.715 310.256 169.345 311.072C171.762 308.927 174.18 306.782 176.597 304.636C176.935 304.336 177.274 304.035 177.612 303.735C178.224 303.192 178.207 302.077 177.612 301.531C176.959 300.932 176.06 300.952 175.408 301.531L175.407 301.53Z" fill="#FB0B0F"/>
<path opacity="0.8" d="M213.751 305.04C213.63 304.968 213.498 304.905 213.342 304.863C213.195 304.811 213.057 304.788 212.924 304.778C210.346 304.226 207.877 305.023 205.478 306.005C202.876 307.07 200.313 308.225 197.772 309.427C192.564 311.89 187.445 314.54 182.196 316.917C171.714 321.662 160.603 324.796 149.266 326.682C146.646 327.118 144.009 327.443 141.376 327.79C128.203 329.322 114.897 329.359 101.658 328.69C94.1402 328.31 86.6342 327.714 79.1352 327.063C77.2652 326.9 75.3952 326.734 73.5262 326.567C71.8542 326.418 70.1182 326.407 68.5822 325.653C66.1142 324.442 63.9572 321.871 62.9322 319.351C60.7722 314.041 63.7882 307.988 68.5062 305.209C74.3782 301.751 81.9232 304.188 87.8722 306.22C94.1542 308.365 100.088 311.372 106.269 313.773C112.433 316.167 118.797 317.663 125.357 318.45C140.029 320.211 156.263 319.52 169.029 311.313C172.237 309.216 175.177 306.7 177.611 303.733C177.972 303.413 178.108 302.894 178.042 302.41C178.012 302.088 177.882 301.778 177.611 301.529C177.325 301.266 176.991 301.13 176.652 301.1C176.193 301.039 175.717 301.151 175.407 301.529C172.99 303.674 170.572 305.819 168.155 307.965C167.88 308.209 167.605 308.453 167.331 308.697C155.384 316.316 140.434 316.933 126.708 315.486C119.658 314.743 112.836 313.058 106.251 310.435C99.7932 307.862 93.5692 304.71 86.9192 302.632C80.5222 300.633 73.0912 298.892 66.9332 302.519C61.9592 305.448 58.4502 311.346 59.1892 317.2C59.9352 323.108 64.9522 328.807 70.9802 329.457C78.9562 330.317 86.9912 330.893 94.9952 331.419C110.348 332.428 125.75 332.636 141.038 330.935C141.071 330.935 141.099 330.942 141.133 330.941C154.842 330.504 168.554 331.269 182.265 331.137C194.069 331.023 210.275 331.32 216.858 319.312C219.405 314.665 219.3 307.342 213.752 305.041L213.751 305.04ZM213.366 319.034C210.167 323.687 204.567 325.991 199.206 326.98C193.099 328.107 186.695 328.006 180.504 328.031C174.228 328.056 167.952 327.921 161.676 327.817C160.981 327.805 160.286 327.796 159.591 327.785C160.845 327.499 162.096 327.201 163.344 326.874C168.8 325.442 174.168 323.671 179.379 321.512C184.603 319.347 189.664 316.827 194.741 314.342C197.655 312.916 200.578 311.504 203.546 310.191C206.182 309.025 209.549 307.063 212.512 307.868C214.479 308.559 215.307 310.726 215.402 312.662C215.517 315.005 214.679 317.123 213.366 319.034Z" fill="white"/>
<g opacity="0.6">
<path d="M195.278 303.696C194.669 303.174 194.211 302.266 194.638 301.588C195.039 300.95 195.94 300.917 196.693 300.957C200.299 301.147 203.905 301.338 207.511 301.528C201.74 296.527 194.905 292.759 187.596 290.548L138.669 307.28C139.106 309.897 140.783 312.278 143.099 313.572C145.415 314.866 148.322 315.045 150.78 314.045C154.093 312.697 156.768 309.333 160.337 309.558C162.491 309.694 164.311 311.156 165.873 312.645C167.435 314.134 168.991 315.776 171.044 316.442C173.097 317.107 175.81 316.336 176.427 314.268C176.653 313.509 176.571 312.691 176.731 311.915C177.155 309.856 179.248 308.479 181.333 308.207C183.418 307.935 185.508 308.527 187.527 309.114C189.546 309.701 191.636 310.294 193.721 310.022C194.891 309.869 196.071 309.409 196.827 308.503C197.583 307.597 197.8 306.189 197.119 305.225C196.656 304.57 195.885 304.217 195.276 303.696H195.278Z" fill="#FB0B0F"/>
</g>
<path opacity="0.3" d="M63.5728 300.081C63.5728 300.081 81.5858 299.613 94.7308 303.147C107.877 306.681 137.977 310.772 157.995 309.165C178.013 307.558 195.589 294.767 195.877 294.922C196.165 295.076 174.945 284.91 174.945 284.91C174.945 284.91 68.8638 295.138 68.2798 295.138C67.6958 295.138 63.5728 300.081 63.5728 300.081Z" fill="black"/>
<path d="M60.644 297.437C59.805 297.437 87.695 262.695 111.299 257.656C134.902 252.617 193.513 273.303 195.9 280.464C198.287 287.625 196.165 297.349 176.54 301.504C156.915 305.659 129.765 304.308 112.261 302.451C94.757 300.595 70.722 297.437 60.644 297.437Z" fill="#FB0B0F"/>
<path opacity="0.5" d="M60.644 297.437C59.805 297.437 87.695 262.695 111.299 257.656C134.902 252.617 193.513 273.303 195.9 280.464C198.287 287.625 196.165 297.349 176.54 301.504C156.915 305.659 129.765 304.308 112.261 302.451C94.757 300.595 70.722 297.437 60.644 297.437Z" fill="white"/>
<path opacity="0.3" d="M138.342 304.597C138.342 304.597 153.96 302.753 162.995 292.663C172.03 282.573 188.137 271.54 194.163 281.517C198.937 289.422 185.007 296.376 173.603 299.558C162.199 302.741 138.342 304.597 138.342 304.597Z" fill="black"/>
<path opacity="0.3" d="M145.59 303.118C145.59 303.118 154.639 303.251 164.619 298.327C174.599 293.404 174.2 288.746 183.248 285.686C192.296 282.625 194.026 285.952 194.292 285.686C194.558 285.42 197.643 279.619 190.778 277.596C183.913 275.573 176.464 280.808 171.805 283.713C167.146 286.618 160.759 296.199 154.771 298.727C148.783 301.255 145.59 303.118 145.59 303.118Z" fill="black"/>
<path d="M61.4508 298.776C71.1418 297.512 81.0288 298.817 90.6448 300.127C99.8298 301.378 108.936 303.165 118.125 304.359C126.974 305.509 136.065 305.548 144.765 303.358C149.273 302.223 153.674 300.462 157.614 297.981C161.349 295.629 164.58 292.604 167.759 289.568C170.828 286.637 173.897 283.637 177.512 281.376C180.744 279.355 184.754 277.658 188.638 278.528C192.849 279.471 194.399 283.557 193.084 287.451C191.625 291.77 187.123 294.356 183.246 296.19C178.683 298.349 173.752 299.671 168.817 300.658C164.32 301.558 159.785 302.209 155.21 302.537C146.156 303.186 137.048 302.792 128.018 301.969C111.535 300.466 95.2868 297.03 78.8048 295.595C77.2858 295.463 75.7638 295.36 74.2398 295.298C72.2338 295.216 72.2378 298.334 74.2398 298.415C81.5828 298.714 88.8828 299.854 96.1428 300.925C105.119 302.25 114.091 303.617 123.112 304.595C132.587 305.622 142.141 306.254 151.674 305.853C161.307 305.448 171.31 304.075 180.39 300.733C184.839 299.095 189.496 296.962 192.833 293.494C195.847 290.361 197.633 285.736 196.189 281.443C194.838 277.427 191.032 275.33 186.952 275.21C182.682 275.084 178.596 276.888 175.111 279.218C167.625 284.223 162.284 291.847 154.371 296.28C145.893 301.03 135.907 302.358 126.317 301.963C117.097 301.584 108.056 299.507 98.9528 298.158C88.9478 296.675 78.7698 295.062 68.6308 295.171C66.2278 295.197 63.8308 295.345 61.4468 295.656C60.6058 295.766 59.8978 296.294 59.8878 297.215C59.8798 297.973 60.6118 298.882 61.4468 298.773L61.4508 298.776Z" fill="#FB0B0F"/>
<g opacity="0.6">
<path d="M116.858 256.426C119.582 255.966 122.357 255.904 125.101 256.223C139.437 257.887 153.576 261.244 167.128 266.206C168.543 266.724 170.181 267.529 170.186 269.129C170.188 269.953 169.695 270.715 169.002 271.16C167.644 272.032 166.056 271.853 164.544 271.68C161.678 271.352 158.806 271.074 155.93 270.846C155.064 270.777 154.074 270.758 153.472 271.384C152.614 272.277 153.174 273.789 153.995 274.716C155.016 275.87 156.456 276.868 156.12 278.658C155.887 279.897 154.821 280.805 153.587 281.064C149.943 281.828 147.189 278.757 143.605 279.009C142.584 279.081 141.578 279.512 140.94 280.313C139.535 282.076 140.627 284.228 142.09 285.529C143.659 286.924 145.7 287.77 146.755 289.731C147.201 290.559 147.338 291.564 146.987 292.436C146.187 294.425 143.685 294.443 141.867 293.716C139.937 292.944 138.263 291.547 137.158 289.787C136.283 288.392 135.768 286.8 134.948 285.372C133.657 283.123 131.295 281.126 128.098 283.079C126.948 283.781 126.042 284.822 125.371 285.991L120.494 294.486C119.714 295.844 118.725 297.359 116.983 297.227C115.76 297.134 114.792 296.19 114.387 295.032C113.626 292.858 114.5 290.733 114.951 288.606C115.41 286.443 115.314 283.838 113.024 282.739C111.672 282.09 110.07 282.33 108.792 283.114C105.739 284.986 104.975 288.515 102.814 291.028C101.2 292.905 98.196 294.062 96.279 292.496C95.173 291.593 94.788 290.013 95.029 288.606C95.27 287.199 96.046 285.939 96.929 284.818C97.898 283.589 99.045 282.423 99.215 280.778C99.294 280.016 99.074 279.218 98.521 278.687C97.486 277.692 96.093 278.132 94.903 278.579C91.119 279.999 87.335 281.42 83.551 282.84C82.135 283.372 80.64 283.914 79.13 283.456C78.345 283.218 77.649 282.667 77.372 281.896C76.875 280.516 77.842 279.38 78.756 278.451C88.157 268.896 96.887 261.967 109.579 257.655L116.858 256.426Z" fill="#FB0B0F"/>
</g>
<g opacity="0.2">
<path d="M135.845 261.821C135.264 260.687 133.871 260.275 132.619 260.039C125.427 258.683 118.006 259.417 110.788 260.625C106.217 261.39 101.482 262.433 97.8852 265.356L96.2602 266.859L87.7572 273.174C86.9522 273.771 86.0602 274.808 86.6332 275.63C86.9962 276.149 87.7362 276.192 88.3692 276.172C92.3822 276.041 96.3792 275.415 100.24 274.314C101.017 274.092 101.814 273.849 102.617 273.933C103.42 274.017 104.241 274.524 104.418 275.312C104.713 276.628 103.186 278.107 103.989 279.191C104.397 279.742 105.198 279.798 105.877 279.706C109.163 279.258 111.941 276.567 115.258 276.621C116.478 276.641 117.655 277.038 118.84 277.324C120.026 277.61 121.3 277.782 122.446 277.363C123.592 276.944 124.539 275.769 124.327 274.568C124.112 273.351 122.82 272.385 123.028 271.167C123.203 270.138 124.337 269.618 125.32 269.268C127.445 268.511 129.571 267.753 131.696 266.995C132.883 266.572 134.108 266.126 135.014 265.25C135.92 264.375 136.418 262.944 135.844 261.823L135.845 261.821Z" fill="white"/>
</g>
<path d="M115.521 257.505C115.659 259.92 113.814 261.99 111.399 262.128C108.984 262.267 106.914 260.421 106.776 258.006C106.638 255.591 108.483 253.521 110.898 253.383C113.313 253.245 115.383 255.09 115.521 257.505Z" fill="#263238"/>
<path d="M110.919 251.59C109.708 252.089 109.871 253.319 109.871 253.319L108.543 251.726L108.997 253.625C107.434 252.778 106.639 253.464 106.639 253.464C107.839 253.594 108.443 254.974 108.496 255.067L111.051 253.871C110.751 252.791 110.92 251.589 110.92 251.589L110.919 251.59Z" fill="#263238"/>
<g opacity="0.3">
<path d="M108.816 255.694C108.135 257.353 108.002 258.337 108.193 260.12C106.503 259.167 106.933 256.146 108.816 255.694Z" fill="white"/>
</g>
<path d="M127.219 264.043C127.357 266.458 125.512 268.528 123.097 268.666C120.682 268.804 118.612 266.959 118.474 264.544C118.336 262.129 120.181 260.059 122.596 259.92C125.011 259.782 127.081 261.627 127.219 264.042V264.043Z" fill="#263238"/>
<path d="M122.618 258.128C121.407 258.627 121.569 259.857 121.569 259.857L120.241 258.264L120.695 260.163C119.132 259.316 118.337 260.002 118.337 260.002C119.537 260.132 120.14 261.512 120.193 261.605L122.748 260.409C122.448 259.329 122.617 258.127 122.617 258.127L122.618 258.128Z" fill="#263238"/>
<g opacity="0.3">
<path d="M120.515 262.232C119.834 263.891 119.701 264.875 119.892 266.658C118.202 265.705 118.632 262.684 120.515 262.232Z" fill="white"/>
</g>
<path opacity="0.3" d="M141.132 330.946C141.132 330.946 167.44 328.115 184.567 319.501C201.694 310.886 210.637 305.702 214.194 308.986C217.751 312.269 214.668 322.643 200.522 326.941C200.522 326.941 190.846 328.047 186.468 328.047C186.468 328.047 203.523 324.764 205.165 320.295C206.807 315.826 199.328 316.695 192.761 319.498C186.194 322.301 164.288 331.221 141.131 330.947L141.132 330.946Z" fill="black"/>
<path d="M105.315 262.822C105.315 266.113 102.647 268.781 99.356 268.781C96.065 268.781 93.397 266.113 93.397 262.822C93.397 259.531 96.065 256.863 99.356 256.863C102.647 256.863 105.315 259.531 105.315 262.822Z" fill="#263238"/>
<path d="M99.5249 254.43C97.8409 255.013 97.9659 256.698 97.9659 256.698L96.2859 254.43L96.7549 257.045C94.6979 255.773 93.5649 256.643 93.5649 256.643C95.1849 256.913 95.8969 258.835 95.9619 258.965L99.5249 257.54C99.2009 256.05 99.5249 254.43 99.5249 254.43Z" fill="#263238"/>
<g opacity="0.3">
<path d="M96.349 259.84C95.091 261.811 94.759 263.501 95.158 265.804C93.215 264.243 93.96 260.538 96.349 259.84Z" fill="white"/>
</g>
<path d="M138.967 262.2C136.719 264.603 132.947 264.729 130.544 262.48C128.141 260.231 128.015 256.46 130.264 254.057C132.513 251.654 136.284 251.528 138.687 253.777C141.09 256.026 141.216 259.797 138.967 262.2Z" fill="#263238"/>
<path d="M140.474 252.115C138.846 251.39 137.787 252.706 137.787 252.706L138.109 249.902L136.665 252.132C136.032 249.798 134.61 249.659 134.61 249.659C135.608 250.963 134.815 252.853 134.774 252.992L138.35 254.386C139.131 253.077 140.475 252.115 140.475 252.115H140.474Z" fill="#263238"/>
<g opacity="0.3">
<path d="M134.457 253.896C132.192 254.476 130.795 255.483 129.513 257.437C129.161 254.97 132.236 252.773 134.457 253.896Z" fill="white"/>
</g>
<path d="M114.15 278.543C112.223 280.602 108.992 280.71 106.932 278.783C104.873 276.856 104.765 273.625 106.692 271.565C108.619 269.506 111.85 269.398 113.91 271.325C115.97 273.252 116.077 276.483 114.15 278.543Z" fill="#263238"/>
<path d="M115.441 269.902C114.046 269.281 113.138 270.408 113.138 270.408L113.414 268.005L112.177 269.916C111.634 267.916 110.416 267.797 110.416 267.797C111.271 268.914 110.592 270.534 110.557 270.653L113.621 271.847C114.291 270.725 115.442 269.901 115.442 269.901L115.441 269.902Z" fill="#263238"/>
<g opacity="0.3">
<path d="M110.286 271.428C108.342 272.046 107.265 272.824 106.049 274.463C105.63 272.312 108.386 270.344 110.286 271.428Z" fill="white"/>
</g>
<path d="M137.17 273.713C137.308 276.128 135.463 278.198 133.048 278.336C130.633 278.474 128.563 276.629 128.425 274.214C128.287 271.799 130.132 269.729 132.547 269.591C134.962 269.453 137.032 271.298 137.17 273.713Z" fill="#263238"/>
<path d="M132.569 267.798C131.357 268.297 131.52 269.527 131.52 269.527L130.192 267.934L130.646 269.833C129.083 268.986 128.288 269.672 128.288 269.672C129.488 269.802 130.092 271.182 130.144 271.275L132.699 270.079C132.399 268.999 132.568 267.797 132.568 267.797L132.569 267.798Z" fill="#263238"/>
<g opacity="0.3">
<path d="M130.466 271.902C129.785 273.561 129.652 274.545 129.843 276.328C128.153 275.375 128.583 272.354 130.466 271.902Z" fill="white"/>
</g>
<g opacity="0.6">
<path d="M155.19 285.474C153.001 283.266 149.526 282.438 146.576 283.421L145.954 283.924C145.612 285.036 145.978 286.275 146.664 287.215C147.351 288.155 148.323 288.843 149.31 289.459C150.521 290.215 151.848 290.91 153.276 290.919C154.703 290.928 156.229 290.039 156.49 288.636C156.707 287.47 156.025 286.317 155.19 285.474Z" fill="#FB0B0F"/>
</g>
<g opacity="0.8">
<path d="M61.4508 298.776C71.1418 297.512 81.0288 298.817 90.6448 300.127C99.8298 301.378 108.936 303.165 118.125 304.359C126.974 305.509 136.065 305.548 144.765 303.358C149.273 302.223 153.674 300.462 157.614 297.981C161.349 295.629 164.58 292.604 167.759 289.568C170.828 286.637 173.897 283.637 177.512 281.376C180.744 279.355 184.754 277.658 188.638 278.528C192.849 279.471 194.399 283.557 193.084 287.451C191.625 291.77 187.123 294.356 183.246 296.19C178.683 298.349 173.752 299.671 168.817 300.658C164.32 301.558 159.785 302.209 155.21 302.537C146.156 303.186 137.048 302.792 128.018 301.969C111.535 300.466 95.2868 297.03 78.8048 295.595C77.2858 295.463 75.7638 295.36 74.2398 295.298C72.2338 295.216 72.2378 298.334 74.2398 298.415C81.5828 298.714 88.8828 299.854 96.1428 300.925C105.119 302.25 114.091 303.617 123.112 304.595C132.587 305.622 142.141 306.254 151.674 305.853C161.307 305.448 171.31 304.075 180.39 300.733C184.839 299.095 189.496 296.962 192.833 293.494C195.847 290.361 197.633 285.736 196.189 281.443C194.838 277.427 191.032 275.33 186.952 275.21C182.682 275.084 178.596 276.888 175.111 279.218C167.625 284.223 162.284 291.847 154.371 296.28C145.893 301.03 135.907 302.358 126.317 301.963C117.097 301.584 108.056 299.507 98.9528 298.158C88.9478 296.675 78.7698 295.062 68.6308 295.171C66.2278 295.197 63.8308 295.345 61.4468 295.656C60.6058 295.766 59.8978 296.294 59.8878 297.215C59.8798 297.973 60.6118 298.882 61.4468 298.773L61.4508 298.776Z" fill="white"/>
</g>
<path d="M60.9538 311.083C60.8808 311.083 60.8068 311.067 60.7358 311.033C60.4868 310.912 60.3838 310.613 60.5048 310.364C62.6558 305.93 67.0098 302.661 71.8678 301.831C72.1398 301.786 72.3978 301.968 72.4448 302.24C72.4918 302.512 72.3088 302.77 72.0358 302.817C67.4908 303.593 63.4168 306.653 61.4038 310.8C61.3178 310.979 61.1388 311.082 60.9538 311.082V311.083Z" fill="white"/>
<path d="M77.8438 298.302C77.8308 298.302 77.8178 298.302 77.8038 298.3C72.6928 297.899 67.5058 297.844 62.3858 298.14C62.1168 298.164 61.8738 297.946 61.8578 297.67C61.8418 297.394 62.0518 297.157 62.3278 297.142C67.4948 296.845 72.7268 296.898 77.8818 297.304C78.1568 297.325 78.3628 297.566 78.3408 297.841C78.3198 298.103 78.1018 298.302 77.8438 298.302Z" fill="white"/>
<path d="M97.1446 290.63C96.9336 290.63 96.7366 290.495 96.6686 290.283C96.3926 289.424 96.4766 288.474 96.9006 287.679C97.0306 287.436 97.3336 287.341 97.5766 287.472C97.8206 287.602 97.9126 287.905 97.7836 288.148C97.4906 288.7 97.4296 289.383 97.6206 289.977C97.7046 290.24 97.5606 290.522 97.2976 290.606C97.2466 290.623 97.1946 290.63 97.1446 290.63Z" fill="white"/>
<path d="M79.3827 282.153C79.3637 282.153 79.3437 282.153 79.3247 282.15C79.0507 282.118 78.8537 281.87 78.8857 281.595C79.0497 280.177 80.1287 279.155 81.2187 278.229L93.0827 268.158C93.2947 267.978 93.6087 268.005 93.7877 268.216C93.9667 268.426 93.9407 268.741 93.7297 268.92L81.8657 278.991C80.8877 279.821 79.9997 280.654 79.8777 281.711C79.8487 281.966 79.6327 282.153 79.3827 282.153Z" fill="white"/>
<path d="M296.332 474.63C384.676 474.63 456.293 449.464 456.293 418.421C456.293 387.378 384.676 362.212 296.332 362.212C207.988 362.212 136.371 387.378 136.371 418.421C136.371 449.464 207.988 474.63 296.332 474.63Z" fill="#263238"/>
<path opacity="0.7" d="M296.332 474.63C384.676 474.63 456.293 449.464 456.293 418.421C456.293 387.378 384.676 362.212 296.332 362.212C207.988 362.212 136.371 387.378 136.371 418.421C136.371 449.464 207.988 474.63 296.332 474.63Z" fill="white"/>
<path d="M297.033 468.111C388.512 468.111 462.67 442.945 462.67 411.902C462.67 380.859 388.512 355.693 297.033 355.693C205.554 355.693 131.396 380.859 131.396 411.902C131.396 442.945 205.554 468.111 297.033 468.111Z" fill="#263238"/>
<path opacity="0.8" d="M297.033 468.111C388.512 468.111 462.67 442.945 462.67 411.902C462.67 380.859 388.512 355.693 297.033 355.693C205.554 355.693 131.396 380.859 131.396 411.902C131.396 442.945 205.554 468.111 297.033 468.111Z" fill="white"/>
<path opacity="0.7" d="M294.866 458.194C257.63 458.194 222.615 453.759 196.273 445.708C169.748 437.6 155.141 426.742 155.141 415.136C155.141 403.53 169.748 392.672 196.273 384.564C222.615 376.512 257.63 372.078 294.866 372.078C332.102 372.078 367.117 376.513 393.459 384.564C419.983 392.672 434.591 403.53 434.591 415.136C434.591 426.742 419.984 437.6 393.459 445.708C367.117 453.76 332.103 458.194 294.866 458.194ZM294.866 373.077C218.372 373.077 156.14 391.944 156.14 415.136C156.14 438.328 218.372 457.195 294.866 457.195C371.36 457.195 433.591 438.328 433.591 415.136C433.591 391.944 371.36 373.077 294.866 373.077Z" fill="black"/>
<path d="M166.855 397.961C166.855 397.961 221.864 339.32 238.322 339.257C264.832 339.155 316.918 393.603 316.918 393.603L166.855 397.962V397.961Z" fill="#FB0B0F"/>
<path opacity="0.3" d="M176.379 397.649C176.379 397.649 222.264 345.368 236.388 345.312C259.139 345.222 304.953 393.914 304.953 393.914L176.379 397.649Z" fill="white"/>
<g opacity="0.1">
<path d="M239.827 356.091C239.8 352.826 238.985 348.602 235.233 348.66C234.081 348.678 232.99 349.16 232.105 349.898C219.263 360.607 202.74 376.118 190.549 389.391C189.328 390.72 190.283 392.874 192.088 392.847C201.99 392.694 211.887 392.183 221.752 391.313C224.55 391.066 227.441 390.761 229.879 389.368C232.767 387.717 234.651 384.739 235.983 381.69C239.464 373.723 239.899 364.787 239.826 356.093L239.827 356.091Z" fill="white"/>
</g>
<path d="M214.918 384.791C216.6 384.791 217.963 383.428 217.963 381.746C217.963 380.064 216.6 378.701 214.918 378.701C213.236 378.701 211.873 380.064 211.873 381.746C211.873 383.428 213.236 384.791 214.918 384.791Z" fill="#FB0B0F"/>
<path d="M258.67 372.471C260.352 372.471 261.715 371.108 261.715 369.426C261.715 367.744 260.352 366.381 258.67 366.381C256.988 366.381 255.625 367.744 255.625 369.426C255.625 371.108 256.988 372.471 258.67 372.471Z" fill="#FB0B0F"/>
<path d="M223.753 388.564C224.203 388.564 224.567 388.2 224.567 387.75C224.567 387.3 224.203 386.936 223.753 386.936C223.303 386.936 222.939 387.3 222.939 387.75C222.939 388.2 223.303 388.564 223.753 388.564Z" fill="#FB0B0F"/>
<path d="M255.82 364.641C256.269 364.641 256.634 364.276 256.634 363.827C256.634 363.377 256.269 363.013 255.82 363.013C255.37 363.013 255.006 363.377 255.006 363.827C255.006 364.276 255.37 364.641 255.82 364.641Z" fill="#FB0B0F"/>
<path d="M220.341 375.005C221.354 374.836 222.313 375.52 222.482 376.533C222.651 377.546 221.967 378.505 220.954 378.675C219.941 378.844 218.982 378.16 218.813 377.146C218.644 376.133 219.328 375.174 220.341 375.004V375.005Z" fill="#FB0B0F"/>
<path d="M249.557 363.909C250.57 363.74 251.529 364.424 251.698 365.438C251.867 366.451 251.183 367.41 250.17 367.579C249.156 367.748 248.198 367.064 248.028 366.05C247.859 365.037 248.543 364.078 249.556 363.908L249.557 363.909Z" fill="#FB0B0F"/>
<path d="M386.459 402.852C384.152 396.599 376.062 397.246 371.604 393.143C367.712 389.561 367.65 383.508 365.313 378.763C361.839 371.71 353.6 368.239 345.78 367.437C337.959 366.634 330.059 367.896 322.212 367.415C312.742 366.835 303.634 363.743 294.357 361.757C285.08 359.77 275.077 358.954 266.38 362.743C257.757 366.5 251.542 374.276 243.402 378.989C239.357 381.332 234.88 382.889 230.943 385.409C227.006 387.929 223.502 391.755 223.027 396.405C222.551 401.055 226.285 406.184 230.944 405.802L233.288 405.86C234.727 405.896 236.169 405.809 237.598 405.641C246.606 404.583 249.793 407.279 253.555 410.434C257.58 413.809 261.368 418.07 266.541 418.98C270.799 419.729 275.253 418.008 279.457 419.017C284.361 420.193 287.736 424.761 292.402 426.677C297.829 428.906 304.089 427.195 309.314 424.527C314.539 421.859 319.32 418.246 324.883 416.381C341.38 410.849 359.959 421.922 376.547 416.671C380.829 415.316 384.947 412.742 386.475 408.211C387.059 406.477 387.094 404.57 386.461 402.854L386.459 402.852Z" fill="#FB0B0F"/>
<g opacity="0.5">
<path d="M386.459 402.852C384.152 396.599 376.062 397.246 371.604 393.143C367.712 389.561 367.65 383.508 365.313 378.763C361.839 371.71 353.6 368.239 345.78 367.437C337.959 366.634 330.059 367.896 322.212 367.415C312.742 366.835 303.634 363.743 294.357 361.757C285.08 359.77 275.077 358.954 266.38 362.743C257.757 366.5 251.542 374.276 243.402 378.989C239.357 381.332 234.88 382.889 230.943 385.409C227.006 387.929 223.502 391.755 223.027 396.405C222.551 401.055 226.285 406.184 230.944 405.802L233.288 405.86C234.727 405.896 236.169 405.809 237.598 405.641C246.606 404.583 249.793 407.279 253.555 410.434C257.58 413.809 261.368 418.07 266.541 418.98C270.799 419.729 275.253 418.008 279.457 419.017C284.361 420.193 287.736 424.761 292.402 426.677C297.829 428.906 304.089 427.195 309.314 424.527C314.539 421.859 319.32 418.246 324.883 416.381C341.38 410.849 359.959 421.922 376.547 416.671C380.829 415.316 384.947 412.742 386.475 408.211C387.059 406.477 387.094 404.57 386.461 402.854L386.459 402.852Z" fill="white"/>
</g>
<path d="M308.042 374.477C301.4 371.076 291.997 369.542 283.705 370.599C277.931 371.335 272.189 372.962 267.274 376.08C262.359 379.198 258.319 383.909 256.715 389.505C256.715 389.505 252.767 401.135 286.188 402.932C319.609 404.728 322.375 392.743 322.375 392.743C322.614 384.387 315.483 378.287 308.043 374.478L308.042 374.477Z" fill="#FB0B0F"/>
<g opacity="0.3">
<path d="M233.721 388.289C231.147 389.606 228.509 391.937 227.226 394.397C226.44 395.905 226.417 397.749 227.33 399.184C228.77 401.447 231.316 401.281 233.559 400.962C236.807 400.499 240.044 399.849 243.324 399.791C246.604 399.733 249.995 400.314 252.735 402.118C255.115 403.685 256.832 406.045 258.7 408.196C260.568 410.347 262.783 412.415 265.564 413.039C266.168 413.175 266.994 413.11 267.153 412.512C267.253 412.136 267.011 411.762 266.781 411.447C262.1 405.034 257.182 398.408 249.847 395.08C249.105 394.743 248.374 394.371 247.725 393.877C242.89 390.194 244.839 386.102 247.387 382.81C247.887 382.163 247.262 381.25 246.486 381.507C245.991 381.671 245.462 381.914 244.982 382.221C241.817 384.238 236.886 386.271 233.721 388.288" fill="white"/>
</g>
<g opacity="0.3">
<path d="M371.278 400.461C369.45 398.816 367.253 397.502 365.91 395.441C363.733 392.101 364.326 387.694 363.09 383.903C361.701 379.644 357.997 376.404 353.82 374.784C349.643 373.164 345.032 372.998 340.572 373.418C338.245 373.637 335.643 374.16 334.954 376.975C334.79 377.647 334.793 378.357 334.931 379.035C335.456 381.613 337.311 383.392 338.91 385.306C340.145 386.785 341.286 388.48 341.428 390.401C341.62 392.993 339.905 395.416 337.749 396.868C335.593 398.32 333.03 399.007 330.553 399.794C320.094 403.116 310.456 408.558 300.905 413.962C300.323 414.291 299.424 414.794 299.051 415.48C299.016 415.545 298.984 415.616 298.957 415.692C298.617 416.64 299.192 417.68 300.132 418.043L300.415 418.152C303.741 419.405 307.518 418.463 310.689 416.858C313.861 415.254 316.683 413.017 319.88 411.462C326.908 408.044 335.125 408.196 342.877 409.183C350.63 410.17 358.368 411.922 366.169 411.45C367.807 411.351 369.473 411.144 370.958 410.446C372.443 409.747 373.737 408.483 374.115 406.886C374.682 404.492 373.106 402.107 371.278 400.461Z" fill="white"/>
</g>
<g opacity="0.3">
<path d="M326.996 372.676C325.775 372.972 324.901 374.298 325.111 375.537C325.321 376.776 326.581 377.741 327.832 377.619C329.083 377.497 330.134 376.307 330.1 375.051C330.066 373.795 328.954 372.663 327.698 372.608" fill="white"/>
</g>
<g opacity="0.2">
<path d="M275.522 384.556C275.993 383.829 276.525 383.137 277.232 382.636C283.78 377.993 291.832 375.955 299.82 375.435C293.327 372.952 286.179 373.272 279.342 374.53C274.045 375.505 268.098 377.159 263.574 382.64C260.124 386.819 261.035 393.602 265.907 395.976C271.626 398.762 279.196 400.069 285.277 398.158C282.125 395.976 277.462 394.255 274.998 390.74C273.973 389.278 273.805 387.207 275.522 384.556Z" fill="white"/>
</g>
<path opacity="0.2" d="M223.444 392.048C223.444 392.048 245.502 398.605 268.427 395.956C291.352 393.307 301.267 405.446 302.694 409.614C304.121 413.782 309.507 426.053 309.507 426.053L281.458 436.745L244.054 423.521L219.067 403.899L223.444 392.049V392.048Z" fill="black"/>
<path d="M318.018 433.837C315.802 427.832 308.033 428.453 303.752 424.512C300.014 421.072 299.955 415.259 297.711 410.703C294.375 403.93 286.463 400.597 278.952 399.825C271.441 399.054 263.854 400.266 256.318 399.804C247.224 399.247 238.476 396.278 229.567 394.37C220.658 392.462 211.052 391.678 202.699 395.317C194.418 398.925 188.449 406.392 180.632 410.919C176.747 413.169 172.448 414.665 168.667 417.085C164.886 419.505 161.521 423.179 161.064 427.645C160.607 432.111 164.193 437.036 168.668 436.669L170.919 436.725C172.301 436.759 173.686 436.676 175.059 436.515C183.71 435.499 186.77 438.088 190.384 441.118C194.249 444.359 197.887 448.452 202.855 449.325C206.945 450.044 211.221 448.392 215.259 449.36C219.969 450.49 223.21 454.876 227.691 456.716C232.902 458.856 238.915 457.213 243.932 454.651C248.95 452.089 253.542 448.619 258.883 446.828C274.726 441.516 292.568 452.149 308.499 447.106C312.611 445.804 316.566 443.333 318.033 438.981C318.594 437.316 318.627 435.485 318.019 433.836L318.018 433.837Z" fill="#FB0B0F"/>
<g opacity="0.5">
<path d="M318.018 433.837C315.802 427.832 308.033 428.453 303.752 424.512C300.014 421.072 299.955 415.259 297.711 410.703C294.375 403.93 286.463 400.597 278.952 399.825C271.441 399.054 263.854 400.266 256.318 399.804C247.224 399.247 238.476 396.278 229.567 394.37C220.658 392.462 211.052 391.678 202.699 395.317C194.418 398.925 188.449 406.392 180.632 410.919C176.747 413.169 172.448 414.665 168.667 417.085C164.886 419.505 161.521 423.179 161.064 427.645C160.607 432.111 164.193 437.036 168.668 436.669L170.919 436.725C172.301 436.759 173.686 436.676 175.059 436.515C183.71 435.499 186.77 438.088 190.384 441.118C194.249 444.359 197.887 448.452 202.855 449.325C206.945 450.044 211.221 448.392 215.259 449.36C219.969 450.49 223.21 454.876 227.691 456.716C232.902 458.856 238.915 457.213 243.932 454.651C248.95 452.089 253.542 448.619 258.883 446.828C274.726 441.516 292.568 452.149 308.499 447.106C312.611 445.804 316.566 443.333 318.033 438.981C318.594 437.316 318.627 435.485 318.019 433.836L318.018 433.837Z" fill="white"/>
</g>
<path d="M242.71 406.586C236.331 403.32 227.301 401.847 219.337 402.861C213.792 403.567 208.277 405.13 203.557 408.125C198.837 411.12 194.957 415.644 193.417 421.018C193.417 421.018 189.625 432.187 221.722 433.912C253.818 435.637 256.475 424.127 256.475 424.127C256.705 416.103 249.855 410.244 242.71 406.586Z" fill="#FB0B0F"/>
<g opacity="0.3">
<path d="M171.335 419.851C168.863 421.116 166.33 423.354 165.098 425.717C164.343 427.166 164.321 428.936 165.198 430.314C166.581 432.487 169.026 432.328 171.18 432.021C174.299 431.576 177.408 430.952 180.558 430.897C183.708 430.841 186.964 431.399 189.596 433.132C191.882 434.637 193.531 436.903 195.325 438.969C197.119 441.035 199.247 443.021 201.917 443.62C202.497 443.75 203.291 443.689 203.443 443.114C203.539 442.752 203.306 442.393 203.086 442.091C198.59 435.933 193.867 429.568 186.823 426.373C186.11 426.05 185.408 425.692 184.786 425.218C180.142 421.681 182.015 417.751 184.461 414.59C184.941 413.969 184.341 413.092 183.595 413.339C183.119 413.497 182.612 413.73 182.15 414.025C179.111 415.962 174.375 417.913 171.335 419.851Z" fill="white"/>
</g>
<g opacity="0.3">
<path d="M303.44 431.541C301.684 429.961 299.575 428.699 298.285 426.72C296.194 423.512 296.764 419.28 295.576 415.639C294.242 411.549 290.685 408.437 286.673 406.882C282.662 405.326 278.234 405.166 273.951 405.57C271.717 405.78 269.218 406.283 268.556 408.986C268.398 409.631 268.401 410.313 268.534 410.964C269.038 413.44 270.82 415.148 272.355 416.987C273.541 418.407 274.636 420.035 274.773 421.88C274.957 424.369 273.311 426.696 271.24 428.091C269.17 429.485 266.708 430.145 264.329 430.901C254.284 434.091 245.029 439.318 235.856 444.508C235.297 444.824 234.434 445.308 234.075 445.966C234.041 446.029 234.011 446.097 233.985 446.169C233.659 447.08 234.211 448.078 235.113 448.427L235.384 448.532C238.578 449.735 242.205 448.831 245.251 447.289C248.297 445.748 251.008 443.6 254.077 442.107C260.827 438.824 268.717 438.97 276.163 439.918C283.608 440.866 291.04 442.549 298.532 442.095C300.105 442 301.705 441.801 303.131 441.13C304.557 440.459 305.8 439.245 306.163 437.711C306.707 435.412 305.194 433.121 303.438 431.541H303.44Z" fill="white"/>
</g>
<g opacity="0.3">
<path d="M260.913 404.857C259.74 405.141 258.901 406.415 259.103 407.604C259.304 408.794 260.515 409.72 261.716 409.603C262.917 409.486 263.926 408.343 263.894 407.137C263.862 405.931 262.793 404.844 261.587 404.791" fill="white"/>
</g>
<g opacity="0.2">
<path d="M211.479 416.266C211.931 415.568 212.442 414.904 213.121 414.422C219.41 409.963 227.143 408.006 234.813 407.506C228.577 405.122 221.712 405.429 215.147 406.637C210.06 407.573 204.349 409.162 200.004 414.425C196.691 418.439 197.566 424.953 202.244 427.232C207.736 429.908 215.006 431.162 220.847 429.328C217.82 427.232 213.341 425.58 210.975 422.204C209.991 420.8 209.83 418.811 211.478 416.265L211.479 416.266Z" fill="white"/>
</g>
<path d="M434.088 389.956C430.552 385.782 424.726 386.924 419.73 387.854C404.643 390.662 388.399 389.611 374.947 382.225C371.32 380.233 367.923 377.803 364.127 376.154C360.331 374.505 355.949 373.688 352.056 375.092C351.84 375.17 351.626 375.256 351.415 375.351C347.07 377.295 345.103 382.403 346.656 386.903L347.309 388.796C347.82 390.276 348.693 391.604 349.839 392.67C358.547 400.772 369.563 406.289 381.155 409.016C393.557 411.933 406.594 411.732 419.083 409.212C425.436 407.93 432.13 405.784 435.143 399.389C436.601 396.294 436.299 392.567 434.087 389.956H434.088Z" fill="#FB0B0F"/>
<g opacity="0.2">
<path d="M373.254 381.271C368.891 383.62 365.316 387.988 362.772 392.24C362.335 387.158 365.79 381.802 370.346 379.509L373.254 381.271Z" fill="black"/>
</g>
<g opacity="0.2">
<path d="M387.902 387.214C384.434 390.753 382.318 395.986 381.152 400.802C379.225 396.08 380.933 389.939 384.601 386.395L387.901 387.213L387.902 387.214Z" fill="black"/>
</g>
<g opacity="0.2">
<path d="M400.706 389.183C398.287 393.508 397.755 399.137 397.894 404.09C394.796 400.038 394.966 393.331 397.577 388.95L400.706 389.183Z" fill="black"/>
</g>
<g opacity="0.2">
<path d="M414.521 388.661C413.215 393.441 414.099 398.861 415.425 403.636C411.443 400.449 409.889 393.873 411.368 388.991L414.52 388.661H414.521Z" fill="black"/>
</g>
<path d="M418.133 410.698C414.523 406.436 408.576 407.602 403.475 408.552C388.074 411.419 371.491 410.346 357.758 402.806C354.055 400.773 350.587 398.292 346.713 396.608C342.839 394.924 338.365 394.091 334.391 395.524C334.17 395.603 333.952 395.692 333.737 395.788C329.301 397.772 327.293 402.987 328.879 407.581L329.546 409.514C330.068 411.025 330.959 412.38 332.129 413.469C341.019 421.74 352.265 427.372 364.098 430.156C376.759 433.134 390.067 432.928 402.817 430.356C409.303 429.047 416.136 426.856 419.212 420.328C420.701 417.168 420.392 413.364 418.134 410.699L418.133 410.698Z" fill="#FB0B0F"/>
<g opacity="0.2">
<path d="M418.133 410.698C414.523 406.436 408.576 407.602 403.475 408.552C388.074 411.419 371.491 410.346 357.758 402.806C354.055 400.773 350.587 398.292 346.713 396.608C342.839 394.924 338.365 394.091 334.391 395.524C334.17 395.603 333.952 395.692 333.737 395.788C329.301 397.772 327.293 402.987 328.879 407.581L329.546 409.514C330.068 411.025 330.959 412.38 332.129 413.469C341.019 421.74 352.265 427.372 364.098 430.156C376.759 433.134 390.067 432.928 402.817 430.356C409.303 429.047 416.136 426.856 419.212 420.328C420.701 417.168 420.392 413.364 418.134 410.699L418.133 410.698Z" fill="black"/>
</g>
<g opacity="0.2">
<path d="M356.03 401.833C351.576 404.231 347.927 408.69 345.33 413.031C344.884 407.843 348.411 402.376 353.062 400.034L356.031 401.833H356.03Z" fill="black"/>
</g>
<g opacity="0.2">
<path d="M370.984 407.899C367.443 411.512 365.283 416.854 364.093 421.77C362.126 416.949 363.869 410.68 367.614 407.063L370.983 407.898L370.984 407.899Z" fill="black"/>
</g>
<g opacity="0.2">
<path d="M384.055 409.909C381.586 414.324 381.043 420.071 381.184 425.127C378.021 420.991 378.195 414.144 380.86 409.671L384.055 409.909Z" fill="black"/>
</g>
<g opacity="0.2">
<path d="M398.158 409.376C396.824 414.256 397.727 419.789 399.081 424.663C395.016 421.41 393.43 414.696 394.94 409.713L398.158 409.376Z" fill="black"/>
</g>
<path d="M389.706 431.065C386.495 427.275 381.206 428.312 376.669 429.156C362.971 431.706 348.222 430.751 336.008 424.045C332.714 422.237 329.63 420.03 326.184 418.533C322.738 417.036 318.759 416.294 315.224 417.569C315.028 417.64 314.833 417.718 314.642 417.804C310.697 419.569 308.911 424.207 310.321 428.292L310.914 430.011C311.378 431.355 312.171 432.56 313.211 433.529C321.118 440.885 331.12 445.895 341.644 448.37C352.905 451.019 364.741 450.836 376.081 448.548C381.85 447.384 387.927 445.435 390.663 439.629C391.987 436.819 391.713 433.435 389.704 431.064L389.706 431.065Z" fill="#FB0B0F"/>
<g opacity="0.2">
<path d="M334.471 423.18C330.509 425.313 327.264 429.279 324.954 433.14C324.557 428.526 327.694 423.663 331.831 421.581L334.471 423.181V423.18Z" fill="black"/>
</g>
<g opacity="0.2">
<path d="M347.772 428.576C344.623 431.789 342.702 436.541 341.643 440.914C339.894 436.626 341.444 431.051 344.775 427.833L347.771 428.576H347.772Z" fill="black"/>
</g>
<g opacity="0.2">
<path d="M359.397 430.363C357.201 434.29 356.718 439.401 356.844 443.898C354.031 440.219 354.186 434.13 356.556 430.151L359.397 430.363Z" fill="black"/>
</g>
<g opacity="0.2">
<path d="M371.941 429.89C370.755 434.23 371.558 439.151 372.762 443.486C369.146 440.592 367.736 434.621 369.079 430.189L371.941 429.889V429.89Z" fill="black"/>
</g>
<path d="M110.727 444.432C110.727 448.999 97.9991 452.701 82.2981 452.701C66.5971 452.701 53.8691 448.999 53.8691 444.432C53.8691 439.865 66.5971 436.163 82.2981 436.163C97.9991 436.163 110.727 439.865 110.727 444.432Z" fill="#FB0B0F"/>
<path opacity="0.5" d="M110.727 444.432C110.727 448.999 97.9991 452.701 82.2981 452.701C66.5971 452.701 53.8691 448.999 53.8691 444.432C53.8691 439.865 66.5971 436.163 82.2981 436.163C97.9991 436.163 110.727 439.865 110.727 444.432Z" fill="white"/>
<path d="M81.0198 367.865C104.602 367.865 123.719 361.844 123.719 354.416C123.719 346.988 104.602 340.967 81.0198 340.967C57.4378 340.967 38.3208 346.988 38.3208 354.416C38.3208 361.844 57.4378 367.865 81.0198 367.865Z" fill="#FB0B0F"/>
<path d="M84.916 335.821H30.396C30.396 335.821 40.816 427.029 54.103 445.479H110.5C122.021 425.87 130.282 335.821 130.282 335.821H84.916Z" fill="#FB0B0F"/>
<path opacity="0.5" d="M84.916 335.821H30.396C30.396 335.821 40.816 427.029 54.103 445.479H110.5C122.021 425.87 130.282 335.821 130.282 335.821H84.916Z" fill="white"/>
<path d="M37.0151 341.988C37.0151 341.988 47.0421 426.759 58.5681 442.764H106.737C116.731 425.754 124.781 341.988 124.781 341.988H37.0151Z" fill="#FB0B0F"/>
<path d="M106.736 442.764C106.736 445.596 95.9529 447.891 82.6509 447.891C69.3489 447.891 58.5659 445.595 58.5659 442.764C58.5659 439.933 69.3489 437.636 82.6509 437.636C95.9529 437.636 106.736 439.932 106.736 442.764Z" fill="#FB0B0F"/>
<path d="M80.339 351.551C107.922 351.551 130.282 344.509 130.282 335.821C130.282 327.134 107.922 320.091 80.339 320.091C52.7562 320.091 30.396 327.134 30.396 335.821C30.396 344.509 52.7562 351.551 80.339 351.551Z" fill="#FB0B0F"/>
<path opacity="0.5" d="M80.339 351.551C107.922 351.551 130.282 344.509 130.282 335.821C130.282 327.134 107.922 320.091 80.339 320.091C52.7562 320.091 30.396 327.134 30.396 335.821C30.396 344.509 52.7562 351.551 80.339 351.551Z" fill="white"/>
<path d="M80.339 349.093C105.54 349.093 125.969 343.151 125.969 335.821C125.969 328.491 105.54 322.549 80.339 322.549C55.1382 322.549 34.709 328.491 34.709 335.821C34.709 343.151 55.1382 349.093 80.339 349.093Z" fill="#FB0B0F"/>
<path opacity="0.2" d="M80.339 349.093C105.54 349.093 125.969 343.151 125.969 335.821C125.969 328.491 105.54 322.549 80.339 322.549C55.1382 322.549 34.709 328.491 34.709 335.821C34.709 343.151 55.1382 349.093 80.339 349.093Z" fill="white"/>
<path d="M38.9859 341.702C46.4419 346.081 61.9539 349.093 79.8919 349.093C98.5809 349.093 114.637 345.823 121.691 341.145C116.193 335.172 99.8649 330.839 80.5729 330.839C60.6869 330.839 43.9579 335.443 38.9859 341.702Z" fill="#FB0B0F"/>
<path opacity="0.2" d="M44.8491 355.917C44.8491 355.917 58.7641 436.346 64.5481 441.758C70.3321 447.17 73.6651 441.758 73.6651 441.758L64.5481 361.613L44.8491 355.917Z" fill="white"/>
<path d="M415.933 359.103C451.764 359.103 480.81 347.005 480.81 332.082C480.81 317.159 451.764 305.061 415.933 305.061C380.103 305.061 351.056 317.159 351.056 332.082C351.056 347.005 380.103 359.103 415.933 359.103Z" fill="#FB0B0F"/>
<path opacity="0.2" d="M415.933 359.103C451.764 359.103 480.81 347.005 480.81 332.082C480.81 317.159 451.764 305.061 415.933 305.061C380.103 305.061 351.056 317.159 351.056 332.082C351.056 347.005 380.103 359.103 415.933 359.103Z" fill="white"/>
<g opacity="0.2">
<path d="M417.397 352.12C443.969 352.12 465.509 343.148 465.509 332.082C465.509 321.015 443.969 312.044 417.397 312.044C390.826 312.044 369.285 321.015 369.285 332.082C369.285 343.148 390.826 352.12 417.397 352.12Z" fill="white"/>
<path opacity="0.2" d="M417.397 352.12C443.969 352.12 465.509 343.148 465.509 332.082C465.509 321.015 443.969 312.044 417.397 312.044C390.826 312.044 369.285 321.015 369.285 332.082C369.285 343.148 390.826 352.12 417.397 352.12Z" fill="white"/>
</g>
<path d="M452.857 300.056C453.489 299.283 454.184 298.609 454.928 297.946C455.749 297.214 454.199 298.423 454.805 298.05C455.035 297.908 455.253 297.744 455.483 297.601C455.942 297.316 456.419 297.07 456.903 296.831C457.738 296.417 456.614 297.002 456.571 296.969C456.619 297.006 457.226 296.739 457.325 296.708C457.783 296.565 458.244 296.463 458.711 296.361C459.563 296.173 458.402 296.417 458.294 296.406C458.478 296.425 458.73 296.367 458.924 296.358C459.187 296.345 459.45 296.343 459.714 296.349C459.924 296.354 461.021 296.521 460.142 296.344C459.247 296.164 460.689 296.479 460.918 296.544C461.105 296.597 461.288 296.668 461.476 296.719C462.459 296.989 460.603 296.282 461.211 296.589C461.608 296.79 462.003 296.981 462.382 297.214C462.55 297.318 462.71 297.435 462.879 297.538C463.738 298.063 462.106 296.825 462.791 297.467C463.157 297.81 463.525 298.136 463.861 298.51C463.992 298.656 464.112 298.83 464.251 298.966C463.429 298.159 463.796 298.334 463.993 298.656C464.257 299.086 464.506 299.514 464.758 299.952C464.944 300.275 464.943 300.718 464.615 299.561C464.697 299.85 464.828 300.131 464.915 300.421C464.973 300.615 465.026 300.813 465.073 301.01C465.117 301.197 465.161 302.101 465.15 301.264C465.137 300.334 465.151 301.505 465.156 301.626C465.166 301.861 465.168 302.098 465.163 302.334C465.158 302.57 465.133 302.803 465.126 303.038C465.093 304.201 465.326 302.185 465.143 302.904C464.983 303.537 464.863 304.164 464.656 304.786C464.614 304.914 464.395 305.371 464.415 305.455C464.394 305.37 464.932 304.353 464.511 305.223C464.277 305.708 464.038 306.186 463.77 306.654C463.503 307.12 463.217 307.575 462.913 308.018C462.779 308.214 462.636 308.405 462.5 308.6C461.863 309.513 463.102 307.921 462.424 308.681C461.861 309.312 461.287 309.888 460.659 310.455C459.933 311.112 461.497 309.898 460.932 310.253C460.736 310.376 460.554 310.526 460.362 310.656C459.97 310.921 459.567 311.17 459.156 311.404C458.391 311.841 457.595 312.196 456.8 312.572C458.244 311.889 456.855 312.53 456.484 312.665C455.96 312.856 455.432 313.032 454.899 313.196C452.904 313.81 450.857 314.252 448.796 314.575C448.553 314.613 448.296 314.629 448.056 314.686L448.824 314.584C448.63 314.609 448.435 314.634 448.241 314.657C447.764 314.714 447.287 314.765 446.809 314.811C445.819 314.905 444.827 314.971 443.833 315.015C441.173 315.134 438.608 317.275 438.735 320.113C438.854 322.773 440.98 325.339 443.833 325.211C448.409 325.006 453.071 324.404 457.463 323.072C462.071 321.675 466.761 319.426 469.856 315.619C473.851 310.704 476.538 304.401 474.828 298.003C473.381 292.59 468.792 288.007 463.345 286.637C456.883 285.012 449.809 287.753 445.645 292.848C444.764 293.926 444.152 295.008 444.152 296.453C444.152 297.703 444.707 299.197 445.645 300.058C447.512 301.772 451.053 302.263 452.855 300.058L452.857 300.056Z" fill="#FB0B0F"/>
<path d="M415.933 301.745C436.455 301.745 453.092 295.311 453.092 287.375C453.092 279.439 436.455 273.005 415.933 273.005C395.411 273.005 378.774 279.439 378.774 287.375C378.774 295.311 395.411 301.745 415.933 301.745Z" fill="#FB0B0F"/>
<path d="M378.774 286.956C378.774 286.956 378.559 344.161 414.822 344.587C451.085 345.014 453.092 286.956 453.092 286.956H378.774Z" fill="#FB0B0F"/>
<path opacity="0.3" d="M450.248 287.351C450.248 294.216 434.885 299.781 415.934 299.781C396.983 299.781 381.62 294.216 381.62 287.351C381.62 280.486 396.983 274.921 415.934 274.921C434.885 274.921 450.248 280.486 450.248 287.351Z" fill="black"/>
<path d="M384.992 292.732C390.529 296.903 402.303 299.782 415.933 299.782C429.563 299.782 441.337 296.903 446.874 292.732C441.337 288.561 429.563 285.683 415.933 285.683C402.303 285.683 390.529 288.562 384.992 292.732Z" fill="#A24E3F"/>
<path d="M443.256 326.098C443.162 326.098 443.068 326.072 442.983 326.017C442.753 325.866 442.687 325.556 442.837 325.325C449.95 314.415 451.646 300.739 453.142 288.674C453.175 288.4 453.431 288.2 453.7 288.239C453.974 288.273 454.169 288.522 454.135 288.797C452.626 300.97 450.916 314.768 443.676 325.872C443.58 326.018 443.42 326.099 443.257 326.099L443.256 326.098Z" fill="#263238"/>
<path opacity="0.2" d="M415.933 299.769C427.09 299.769 436.134 297.299 436.134 294.252C436.134 291.205 427.09 288.735 415.933 288.735C404.776 288.735 395.732 291.205 395.732 294.252C395.732 297.299 404.776 299.769 415.933 299.769Z" fill="white"/>
</svg>
