<svg xmlns="http://www.w3.org/2000/svg" viewBox="0 0 48 48" fill="none">
  <rect width="48" height="48" rx="10" fill="#06B6D4"/>
  <g transform="translate(4,4) scale(1.667) translate(-1.5,-1.5)" stroke="white" stroke-width="1.8" stroke-linecap="round" stroke-linejoin="round">
    <path d="M6.8333 18.2669C9.76662 18.2669 12.1666 15.9564 12.1666 13.1535C12.1666 11.6889 11.4066 10.3001 9.88662 9.12592C8.36663 7.95173 7.21997 6.20939 6.8333 4.37866C6.44664 6.20939 5.31331 7.96436 3.77999 9.12592C2.24666 10.2875 1.5 11.7016 1.5 13.1535C1.5 15.9564 3.89999 18.2669 6.8333 18.2669Z"/>
    <path d="M14.2466 6.02C15.1636 4.63259 15.8137 3.10226 16.1666 1.5C16.8333 4.65642 18.8333 7.68659 21.4999 9.7067C24.1666 11.7268 25.4999 14.1257 25.4999 16.6508C25.5075 18.3961 24.9677 20.1042 23.949 21.5586C22.9302 23.0129 21.4784 24.1482 19.7774 24.8203C18.0765 25.4924 16.2032 25.6711 14.3949 25.3339C12.5865 24.9966 10.9247 24.1585 9.62 22.9258"/>
  </g>
</svg>
