<svg width="94" height="30" viewBox="0 0 94 30" fill="none" xmlns="http://www.w3.org/2000/svg"><path d="M6.8333 18.2669C9.76662 18.2669 12.1666 15.9564 12.1666 13.1535C12.1666 11.6889 11.4066 10.3001 9.88662 9.12592C8.36663 7.95173 7.21997 6.20939 6.8333 4.37866C6.44664 6.20939 5.31331 7.96436 3.77999 9.12592C2.24666 10.2875 1.5 11.7016 1.5 13.1535C1.5 15.9564 3.89999 18.2669 6.8333 18.2669Z" stroke="#06B6D4" stroke-width="3" stroke-linecap="round" stroke-linejoin="round"></path><path d="M14.2466 6.02C15.1636 4.63259 15.8137 3.10226 16.1666 1.5C16.8333 4.65642 18.8333 7.68659 21.4999 9.7067C24.1666 11.7268 25.4999 14.1257 25.4999 16.6508C25.5075 18.3961 24.9677 20.1042 23.949 21.5586C22.9302 23.0129 21.4784 24.1482 19.7774 24.8203C18.0765 25.4924 16.2032 25.6711 14.3949 25.3339C12.5865 24.9966 10.9247 24.1585 9.62 22.9258" stroke="#06B6D4" stroke-width="3" stroke-linecap="round" stroke-linejoin="round"></path><path d="M36.148 23.788C35.124 23.788 34.188 23.524 33.34 22.996C32.492 22.468 31.82 21.724 31.324 20.764C30.828 19.788 30.58 18.644 30.58 17.332C30.58 16.068 30.828 14.94 31.324 13.948C31.836 12.956 32.508 12.172 33.34 11.596C34.188 11.02 35.116 10.732 36.124 10.732C36.956 10.732 37.668 10.9 38.26 11.236C38.868 11.572 39.34 11.916 39.676 12.268V5.74H41.836V20.476C41.836 21.084 41.98 21.484 42.268 21.676C42.572 21.852 42.9 21.94 43.252 21.94L42.796 23.62C41.276 23.62 40.348 23.012 40.012 21.796C39.66 22.292 39.164 22.748 38.524 23.164C37.9 23.58 37.108 23.788 36.148 23.788ZM36.628 21.868C37.22 21.868 37.78 21.732 38.308 21.46C38.852 21.172 39.308 20.804 39.676 20.356V14.164C39.372 13.78 38.948 13.428 38.404 13.108C37.86 12.772 37.26 12.604 36.604 12.604C35.836 12.604 35.164 12.812 34.588 13.228C34.012 13.644 33.564 14.204 33.244 14.908C32.94 15.596 32.788 16.38 32.788 17.26C32.788 18.14 32.956 18.932 33.292 19.636C33.628 20.324 34.084 20.868 34.66 21.268C35.252 21.668 35.908 21.868 36.628 21.868ZM46.1388 23.5V11.02H48.2988V23.5H46.1388ZM47.2188 8.884C46.8028 8.884 46.4428 8.732 46.1388 8.428C45.8508 8.124 45.7068 7.772 45.7068 7.372C45.7068 6.908 45.8428 6.54 46.1148 6.268C46.3868 5.996 46.7548 5.86 47.2188 5.86C47.6348 5.86 47.9868 6.012 48.2748 6.316C48.5788 6.604 48.7308 6.956 48.7308 7.372C48.7308 7.82 48.5948 8.188 48.3228 8.476C48.0508 8.748 47.6828 8.884 47.2188 8.884ZM52.3788 23.5V13.348H50.4588V11.476H52.3788V10.012C52.3788 8.604 52.7708 7.492 53.5548 6.676C54.3388 5.86 55.3628 5.452 56.6268 5.452C57.2828 5.452 57.8588 5.532 58.3548 5.692C58.8508 5.836 59.3228 6.02 59.7708 6.244L59.1228 8.068C58.7868 7.892 58.4268 7.732 58.0428 7.588C57.6588 7.444 57.2348 7.372 56.7708 7.372C56.0988 7.372 55.5548 7.588 55.1388 8.02C54.7388 8.436 54.5388 9.052 54.5388 9.868V11.476H58.2348V13.348H54.5388V23.5H52.3788ZM63.0985 23.5L59.1625 11.596L61.1545 10.9L64.3705 21.052L67.2985 11.908H69.6265L72.4825 21.052L75.6745 10.9L77.5945 11.596L73.6345 23.5H71.2585L68.3785 14.212L65.4745 23.5H63.0985ZM84.6648 23.788C83.6248 23.788 82.6808 23.524 81.8328 22.996C80.9848 22.468 80.3048 21.724 79.7928 20.764C79.2968 19.788 79.0488 18.644 79.0488 17.332C79.0488 16.084 79.2968 14.964 79.7928 13.972C80.3048 12.98 81.0008 12.196 81.8808 11.62C82.7768 11.028 83.8008 10.732 84.9528 10.732C85.6728 10.732 86.3208 10.86 86.8968 11.116C87.4888 11.356 88.0008 11.66 88.4328 12.028V11.02H90.4008V20.476C90.4008 21.084 90.5448 21.484 90.8328 21.676C91.1368 21.852 91.4648 21.94 91.8168 21.94L91.3608 23.62C89.8248 23.62 88.8968 22.996 88.5768 21.748C88.2088 22.26 87.7048 22.732 87.0648 23.164C86.4408 23.58 85.6408 23.788 84.6648 23.788ZM85.1448 21.868C85.7528 21.868 86.3288 21.724 86.8728 21.436C87.4168 21.132 87.8728 20.756 88.2408 20.308V13.612C87.8088 13.308 87.3288 13.068 86.8008 12.892C86.2888 12.7 85.7448 12.604 85.1688 12.604C84.4008 12.604 83.7208 12.804 83.1288 13.204C82.5528 13.588 82.0968 14.132 81.7608 14.836C81.4248 15.524 81.2568 16.332 81.2568 17.26C81.2568 18.156 81.4248 18.956 81.7608 19.66C82.0968 20.348 82.5608 20.892 83.1528 21.292C83.7448 21.676 84.4088 21.868 85.1448 21.868Z" fill="#06B6D4"></path></svg>
