<svg width="500" height="500" viewBox="0 0 500 500" fill="none" xmlns="http://www.w3.org/2000/svg">
<g clip-path="url(#clip0_129_4)">
<path d="M545 417.127H-45V417.439H545V417.127Z" fill="#EBEBEB"/>
<path d="M485.882 437.233H460.3V437.545H485.882V437.233Z" fill="#EBEBEB"/>
<path d="M361.711 430.76H321.461V431.072H361.711V430.76Z" fill="#EBEBEB"/>
<path d="M475.521 425.637H422.976V425.949H475.521V425.637Z" fill="#EBEBEB"/>
<path d="M159.163 431.935H146.018V432.247H159.163V431.935Z" fill="#EBEBEB"/>
<path d="M135.505 431.935H90.2046V432.247H135.505V431.935Z" fill="#EBEBEB"/>
<path d="M65.9321 426.662H33.2461V426.973H65.9321V426.662Z" fill="#EBEBEB"/>
<path d="M234.66 361.394H6.81389C5.02896 361.39 3.31821 360.637 2.05717 359.299C0.796142 357.962 0.0878879 356.149 0.0878906 354.258V15.0729C0.103429 13.1935 0.818539 11.3965 2.07789 10.0721C3.33725 8.74785 5.03914 8.00322 6.81389 8H234.66C236.447 8 238.161 8.75176 239.424 10.0899C240.688 11.428 241.398 13.2429 241.398 15.1354V354.258C241.398 356.151 240.688 357.966 239.424 359.304C238.161 360.642 236.447 361.394 234.66 361.394ZM6.81389 8.24993C5.1072 8.25324 3.47148 8.97354 2.26577 10.2527C1.06006 11.5319 0.382888 13.2655 0.382891 15.0729V354.258C0.382888 356.066 1.06006 357.799 2.26577 359.079C3.47148 360.358 5.1072 361.078 6.81389 361.081H234.66C236.368 361.078 238.005 360.358 239.212 359.079C240.42 357.8 241.1 356.067 241.103 354.258V15.0729C241.1 13.2643 240.42 11.5308 239.212 10.252C238.005 8.97313 236.368 8.25323 234.66 8.24993H6.81389Z" fill="#EBEBEB"/>
<path d="M489.906 361.394H262.048C260.262 361.39 258.55 360.638 257.287 359.3C256.024 357.963 255.313 356.15 255.31 354.258V15.0729C255.329 13.1923 256.046 11.3953 257.308 10.0714C258.569 8.74741 260.272 8.00318 262.048 8H489.906C491.679 8.0065 493.377 8.75259 494.634 10.0765C495.891 11.4005 496.605 13.1956 496.62 15.0729V354.258C496.62 356.146 495.913 357.958 494.655 359.295C493.396 360.632 491.689 361.387 489.906 361.394ZM262.048 8.24993C260.34 8.25323 258.703 8.97313 257.496 10.252C256.288 11.5308 255.608 13.2643 255.605 15.0729V354.258C255.608 356.067 256.288 357.8 257.496 359.079C258.703 360.358 260.34 361.078 262.048 361.081H489.906C491.614 361.078 493.251 360.358 494.458 359.079C495.666 357.8 496.346 356.067 496.349 354.258V15.0729C496.346 13.2643 495.666 11.5308 494.458 10.252C493.251 8.97313 491.614 8.25323 489.906 8.24993H262.048Z" fill="#EBEBEB"/>
<path d="M90.7001 157.493C97.244 157.493 103.52 154.74 108.147 149.839C112.774 144.939 115.374 138.293 115.374 131.363C115.374 124.433 112.774 117.787 108.147 112.886C103.52 107.986 97.244 105.233 90.7001 105.233H87.6675V157.493H90.7001Z" fill="#E0E0E0"/>
<path d="M87.644 157.493C101.271 157.493 112.318 145.794 112.318 131.363C112.318 116.932 101.271 105.233 87.644 105.233C74.0171 105.233 62.9702 116.932 62.9702 131.363C62.9702 145.794 74.0171 157.493 87.644 157.493Z" fill="#F5F5F5"/>
<path d="M86.5112 134.637C77.7484 134.637 69.3446 130.951 63.1484 124.389C56.9522 117.827 53.4712 108.927 53.4712 99.6475V78.7662C53.4712 77.8946 53.7982 77.0587 54.3802 76.4423C54.9622 75.826 55.7515 75.4797 56.5746 75.4797C57.3977 75.4797 58.187 75.826 58.769 76.4423C59.351 77.0587 59.678 77.8946 59.678 78.7662V99.66C59.6842 107.192 62.5117 114.414 67.54 119.742C72.5683 125.069 79.3868 128.066 86.4994 128.076C86.9222 128.049 87.346 128.113 87.7444 128.265C88.1429 128.418 88.5077 128.655 88.8164 128.962C89.1251 129.27 89.371 129.641 89.5392 130.052C89.7073 130.464 89.7941 130.908 89.7941 131.357C89.7941 131.805 89.7073 132.249 89.5392 132.661C89.371 133.073 89.1251 133.444 88.8164 133.751C88.5077 134.058 88.1429 134.296 87.7444 134.448C87.346 134.6 86.9222 134.665 86.4994 134.637H86.5112Z" fill="#E0E0E0"/>
<path d="M29.1394 97.1606H84.033C84.9109 97.1608 85.7771 96.9475 86.5649 96.5372C87.3527 96.1269 88.041 95.5306 88.5768 94.7942C89.1126 94.0577 89.4816 93.2008 89.6554 92.2895C89.8291 91.3782 89.803 90.4369 89.579 89.5379L84.8 70.4812C84.4774 69.1866 83.7599 68.0411 82.7591 67.223C81.7582 66.405 80.5301 65.96 79.2658 65.9575H33.9066C32.6408 65.9594 31.411 66.4038 30.4081 67.2218C29.4053 68.0398 28.6855 69.1856 28.3606 70.4812L23.6406 89.5129C23.4109 90.4096 23.3789 91.3501 23.5471 92.262C23.7153 93.1738 24.0792 94.0325 24.6106 94.7716C25.1421 95.5108 25.8269 96.1107 26.6122 96.5249C27.3975 96.9391 28.2621 97.1567 29.1394 97.1606Z" fill="#F5F5F5"/>
<path d="M439.13 157.493C445.674 157.493 451.95 154.74 456.577 149.839C461.205 144.939 463.804 138.293 463.804 131.363C463.804 124.433 461.205 117.787 456.577 112.886C451.95 107.986 445.674 105.233 439.13 105.233H436.098V157.493H439.13Z" fill="#E0E0E0"/>
<path d="M436.098 157.493C449.725 157.493 460.771 145.794 460.771 131.363C460.771 116.932 449.725 105.233 436.098 105.233C422.471 105.233 411.424 116.932 411.424 131.363C411.424 145.794 422.471 157.493 436.098 157.493Z" fill="#F5F5F5"/>
<path d="M434.965 134.637C426.202 134.637 417.798 130.951 411.602 124.389C405.406 117.827 401.925 108.927 401.925 99.6475V78.7662C401.925 77.8946 402.252 77.0587 402.834 76.4423C403.416 75.826 404.205 75.4797 405.028 75.4797C405.851 75.4797 406.641 75.826 407.223 76.4423C407.805 77.0587 408.132 77.8946 408.132 78.7662V99.66C408.138 107.192 410.965 114.414 415.994 119.742C421.022 125.069 427.84 128.066 434.953 128.076C435.376 128.049 435.8 128.113 436.198 128.265C436.597 128.418 436.961 128.655 437.27 128.962C437.579 129.27 437.825 129.641 437.993 130.052C438.161 130.464 438.248 130.908 438.248 131.357C438.248 131.805 438.161 132.249 437.993 132.661C437.825 133.073 437.579 133.444 437.27 133.751C436.961 134.058 436.597 134.296 436.198 134.448C435.8 134.6 435.376 134.665 434.953 134.637H434.965Z" fill="#E0E0E0"/>
<path d="M377.594 97.1607H432.487C433.365 97.1608 434.231 96.9475 435.019 96.5373C435.807 96.127 436.495 95.5306 437.031 94.7942C437.567 94.0577 437.936 93.2008 438.109 92.2895C438.283 91.3783 438.257 90.4369 438.033 89.538L433.313 70.5062C432.991 69.2116 432.273 68.0662 431.272 67.2481C430.271 66.43 429.043 65.9851 427.779 65.9825H382.361C381.095 65.9844 379.865 66.4289 378.862 67.2469C377.859 68.0648 377.14 69.2106 376.815 70.5062L372.095 89.538C371.869 90.433 371.841 91.3708 372.011 92.2794C372.181 93.188 372.546 94.0432 373.077 94.7793C373.608 95.5154 374.291 96.1128 375.074 96.5256C375.857 96.9384 376.719 97.1557 377.594 97.1607Z" fill="#F5F5F5"/>
<path d="M113.096 333.977H131.044V260.337H113.096V333.977Z" fill="#E6E6E6"/>
<path d="M64.4448 333.964H123.999L132.991 247.778H73.4364L64.4448 333.964Z" fill="#F0F0F0"/>
<path d="M57.9902 333.964H119.515L128.507 247.778H66.9936L57.9902 333.964Z" fill="#F5F5F5"/>
<path d="M115.067 327.179L122.643 254.576H71.4306L63.855 327.179H115.067Z" fill="white"/>
<path d="M104.494 309.572L104.86 306.66C106.76 288.441 96.0217 272.208 82.0741 272.208L81.7555 275.17C79.8557 293.377 90.5937 309.609 104.553 309.609L104.494 309.572Z" fill="#F5F5F5"/>
<path d="M24.7265 417.127H77.6377L77.6377 333.964H24.7265L24.7265 417.127Z" fill="#E6E6E6"/>
<path d="M30.0362 417.127H24.7144V401.094H35.6176L30.0362 417.127Z" fill="#F0F0F0"/>
<path d="M173.017 417.127H225.928V333.964H173.017V417.127Z" fill="#E6E6E6"/>
<path d="M24.7145 407.292H177.654V333.977H24.7145V407.292Z" fill="#F0F0F0"/>
<path d="M172.333 417.127H177.655V401.094H166.751L172.333 417.127Z" fill="#F0F0F0"/>
<path d="M28.8441 368.142H173.524V338.55H28.8441V368.142Z" fill="#E6E6E6"/>
<path d="M91.5378 357.895H110.831C114.979 357.897 119.084 357.002 122.894 355.266C126.704 353.53 130.14 350.989 132.991 347.798H69.3774C72.2297 350.987 75.6658 353.527 79.4758 355.263C83.2859 356.999 87.3901 357.894 91.5378 357.895Z" fill="#F0F0F0"/>
<path d="M28.8441 402.506H173.524V372.915H28.8441V402.506Z" fill="#E6E6E6"/>
<path d="M91.5378 392.209H110.831C114.979 392.211 119.084 391.317 122.894 389.581C126.704 387.845 130.14 385.303 132.991 382.113H69.3774C72.2297 385.302 75.6658 387.842 79.4758 389.578C83.2859 391.314 87.3901 392.209 91.5378 392.209Z" fill="#F0F0F0"/>
<path d="M167.966 330.578H169.335C169.335 327.591 169.335 320.031 169.477 302.699C169.725 271.271 170.197 269.359 170.197 269.359L166.94 283.867C164.875 299.925 167.542 316.07 167.966 330.578Z" fill="#E6E6E6"/>
<path d="M165.264 281.668C160.544 275.757 150.573 274.033 140.331 272.558C136.307 271.983 150.892 281.718 158.031 288.628C163.577 294.002 167.117 295.489 168.651 300.837C169.429 294.164 169.3 286.804 165.264 281.668Z" fill="#E6E6E6"/>
<path d="M171.483 292.265C176.203 286.354 186.174 284.642 196.416 283.167C200.44 282.592 185.796 292.327 178.716 299.237C173.17 304.611 169.63 306.098 168.096 311.446C167.317 304.773 167.4 297.363 171.483 292.265Z" fill="#E6E6E6"/>
<path d="M169.477 267.922C173.017 260.849 181.82 254.176 191.744 251.677C195.638 250.69 182.717 264.723 177.808 273.783C173.996 280.805 168.946 289.078 168.155 295.026C166.975 283.305 165.961 275.032 169.477 267.922Z" fill="#E6E6E6"/>
<path d="M169.052 333.965C164.875 333.965 161.417 331.753 161.169 328.904L160.473 324.055H177.642L176.934 328.904C176.698 331.753 173.3 333.965 169.052 333.965Z" fill="#F0F0F0"/>
<path d="M178.752 325.917H159.365L158.81 320.506H179.307L178.752 325.917Z" fill="#F0F0F0"/>
<path d="M155.057 222.585L344.105 222.585V39.9778L155.057 39.9778L155.057 222.585Z" fill="#E6E6E6"/>
<path d="M150.809 222.585L342.252 222.585V39.9778L150.809 39.9778L150.809 222.585Z" fill="#F5F5F5"/>
<path d="M334.606 214.413V48.163L158.432 48.163V214.413H334.606Z" fill="#FAFAFA"/>
<path d="M313 214.413L243.663 48.163H220.11L289.447 214.413H313Z" fill="white"/>
<path d="M282.769 214.413L213.432 48.163H197.219L266.556 214.413H282.769Z" fill="white"/>
<path d="M223.851 214.4V48.1504H214.741V214.4H223.851Z" fill="#E6E6E6"/>
<path d="M284.409 214.4V48.1504H275.3V214.4H284.409Z" fill="#E6E6E6"/>
<path d="M222.211 219.599V42.0773H210.695V219.599H222.211Z" fill="#F5F5F5"/>
<path d="M282.769 219.599V42.0773H271.252V219.599H282.769Z" fill="#F5F5F5"/>
<path d="M159.258 214.413V48.163H158.444V214.413H159.258Z" fill="#E6E6E6"/>
<path d="M147.6 29.4561H352.4C352.662 29.4593 352.913 29.5709 353.098 29.7671C353.283 29.9632 353.389 30.2284 353.392 30.5057C353.388 30.782 353.283 31.0458 353.097 31.2399C352.912 31.4341 352.661 31.5429 352.4 31.5429H147.6C147.339 31.5429 147.088 31.4341 146.903 31.2399C146.717 31.0458 146.612 30.782 146.608 30.5057C146.611 30.2284 146.717 29.9632 146.902 29.7671C147.087 29.5709 147.338 29.4593 147.6 29.4561Z" fill="#E6E6E6"/>
<path d="M344.105 36.3415C344.456 36.3382 344.793 36.188 345.04 35.9235C345.288 35.6591 345.426 35.3018 345.426 34.9295V31.9054C345.428 31.7205 345.395 31.5372 345.329 31.3659C345.264 31.1947 345.166 31.0389 345.044 30.9076C344.921 30.7763 344.775 30.6721 344.613 30.601C344.452 30.5299 344.279 30.4933 344.105 30.4933C343.753 30.4933 343.416 30.6403 343.166 30.9024C342.916 31.1646 342.775 31.5205 342.771 31.8929V34.917C342.771 35.2926 342.912 35.6531 343.161 35.9199C343.411 36.1867 343.75 36.3382 344.105 36.3415Z" fill="#E6E6E6"/>
<path d="M162.444 36.3415C162.797 36.3383 163.134 36.1884 163.384 35.9243C163.633 35.6602 163.775 35.303 163.778 34.9295V31.9054C163.778 31.5309 163.637 31.1717 163.387 30.9069C163.137 30.6421 162.798 30.4933 162.444 30.4933C162.094 30.4933 161.758 30.6407 161.51 30.9032C161.262 31.1657 161.123 31.5217 161.123 31.8929V34.917C161.121 35.1024 161.154 35.2863 161.22 35.4583C161.285 35.6302 161.382 35.7868 161.505 35.9191C161.628 36.0514 161.774 36.1568 161.935 36.2293C162.096 36.3018 162.269 36.3399 162.444 36.3415Z" fill="#E6E6E6"/>
<path opacity="0.6" d="M147.906 173.5L339.22 173.5V30.4931L147.906 30.4931L147.906 173.5Z" fill="#E0E0E0"/>
<path d="M356.542 264.135H323.55C320.043 264.135 317.201 267.145 317.201 270.858V287.029C317.201 290.742 320.043 293.752 323.55 293.752H356.542C360.048 293.752 362.891 290.742 362.891 287.029V270.858C362.891 267.145 360.048 264.135 356.542 264.135Z" fill="#FAFAFA"/>
<path d="M360.755 258.662H319.337C318.157 258.662 317.201 259.675 317.201 260.924V262.748C317.201 263.998 318.157 265.01 319.337 265.01H360.755C361.935 265.01 362.891 263.998 362.891 262.748V260.924C362.891 259.675 361.935 258.662 360.755 258.662Z" fill="#E6E6E6"/>
<path d="M317.874 326.654C317.874 326.654 318.475 347.485 341.391 347.485C364.307 347.485 364.908 326.654 364.908 326.654H317.874Z" fill="#F0F0F0"/>
<path d="M370.124 326.654C370.124 326.654 370.726 347.485 393.641 347.485C416.557 347.485 417.159 326.654 417.159 326.654H370.124Z" fill="#F0F0F0"/>
<path d="M405.808 250.727H360.496C355.673 250.727 351.764 254.867 351.764 259.974V284.517C351.764 289.624 355.673 293.764 360.496 293.764H405.808C410.63 293.764 414.54 289.624 414.54 284.517V259.974C414.54 254.867 410.63 250.727 405.808 250.727Z" fill="#F0F0F0"/>
<path d="M411.613 243.204H354.69C353.074 243.204 351.764 244.592 351.764 246.303V248.828C351.764 250.539 353.074 251.927 354.69 251.927H411.613C413.229 251.927 414.54 250.539 414.54 248.828V246.303C414.54 244.592 413.229 243.204 411.613 243.204Z" fill="#F5F5F5"/>
<path d="M300.61 417.127H306.558V313.858H300.61V417.127Z" fill="#E6E6E6"/>
<path d="M472.336 293.752H440.133V313.846H472.336V293.752Z" fill="#E6E6E6"/>
<path d="M280.019 313.858H440.122V293.764H280.019V313.858Z" fill="#F5F5F5"/>
<path d="M472.336 347.423H440.133V367.517H472.336V347.423Z" fill="#E6E6E6"/>
<path d="M280.019 367.517H440.122V347.423H280.019V367.517Z" fill="#F5F5F5"/>
<path d="M460.712 417.127H466.66V313.858H460.712V417.127Z" fill="#E6E6E6"/>
<path d="M434.186 417.127H440.133V313.858H434.186V417.127Z" fill="#F5F5F5"/>
<path d="M280.019 417.127H285.966V313.858H280.019V417.127Z" fill="#F5F5F5"/>
<path d="M250 473.56C376.357 473.56 478.79 467.227 478.79 459.414C478.79 451.602 376.357 445.269 250 445.269C123.642 445.269 21.2095 451.602 21.2095 459.414C21.2095 467.227 123.642 473.56 250 473.56Z" fill="#F5F5F5"/>
<path d="M262.284 396.008H111.751C109.33 395.972 107.012 394.968 105.261 393.197C103.511 391.426 102.457 389.02 102.311 386.461L88.8119 109.607C88.7371 108.375 88.9032 107.141 89.3 105.98C89.6968 104.82 90.3156 103.759 91.1177 102.864C91.9198 101.969 92.8878 101.259 93.9611 100.778C95.0345 100.298 96.1899 100.058 97.3551 100.072H247.888C250.307 100.105 252.625 101.107 254.376 102.876C256.128 104.644 257.182 107.049 257.328 109.607L270.803 386.461C270.878 387.691 270.712 388.924 270.317 390.083C269.922 391.242 269.305 392.303 268.506 393.199C267.707 394.095 266.742 394.806 265.671 395.29C264.601 395.773 263.447 396.018 262.284 396.008Z" fill="#FB0B0F"/>
<path opacity="0.8" d="M262.284 396.008H111.751C109.33 395.972 107.012 394.968 105.261 393.197C103.511 391.426 102.457 389.02 102.311 386.461L88.8119 109.607C88.7371 108.375 88.9032 107.141 89.3 105.98C89.6968 104.82 90.3156 103.759 91.1177 102.864C91.9198 101.969 92.8878 101.259 93.9611 100.778C95.0345 100.298 96.1899 100.058 97.3551 100.072H247.888C250.307 100.105 252.625 101.107 254.376 102.876C256.128 104.644 257.182 107.049 257.328 109.607L270.803 386.461C270.878 387.691 270.712 388.924 270.317 390.083C269.922 391.242 269.305 392.303 268.506 393.199C267.707 394.095 266.742 394.806 265.671 395.29C264.601 395.773 263.447 396.018 262.284 396.008Z" fill="white"/>
<path d="M233.032 91.0499H216.382V92.2996H233.032V91.0499Z" fill="#FB0B0F"/>
<path d="M210.612 91.0499H204.511V92.2996H210.612V91.0499Z" fill="#FB0B0F"/>
<path d="M268.762 378.439H124.802C122.484 378.415 120.26 377.462 118.579 375.772C116.897 374.081 115.883 371.779 115.74 369.329L102.854 104.533C102.782 103.355 102.942 102.173 103.321 101.063C103.701 99.9527 104.294 98.9374 105.061 98.0809C105.829 97.2244 106.756 96.5452 107.783 96.0858C108.811 95.6263 109.916 95.3967 111.032 95.4112H254.991C257.31 95.4383 259.532 96.3943 261.211 98.0869C262.891 99.7795 263.902 102.083 264.042 104.533L276.928 369.329C276.999 370.506 276.841 371.686 276.461 372.794C276.082 373.903 275.491 374.917 274.724 375.772C273.957 376.628 273.032 377.306 272.006 377.765C270.98 378.224 269.876 378.453 268.762 378.439Z" fill="#FB0B0F"/>
<path d="M268.762 372.353H124.802C123.958 372.322 123.153 371.964 122.542 371.347C121.931 370.729 121.555 369.895 121.486 369.004L108.589 104.221C108.559 103.869 108.601 103.514 108.711 103.18C108.821 102.846 108.996 102.541 109.226 102.284C109.456 102.028 109.735 101.826 110.044 101.693C110.353 101.559 110.686 101.497 111.019 101.509H254.979C255.822 101.543 256.623 101.902 257.232 102.52C257.841 103.137 258.215 103.969 258.283 104.858L271.24 369.641C271.268 369.992 271.226 370.345 271.117 370.678C271.007 371.011 270.832 371.315 270.604 371.571C270.376 371.827 270.099 372.029 269.791 372.164C269.484 372.298 269.153 372.363 268.821 372.353H268.762ZM111.019 101.822C110.726 101.812 110.434 101.866 110.162 101.983C109.889 102.099 109.643 102.274 109.438 102.496C109.241 102.727 109.091 102.998 108.995 103.292C108.9 103.587 108.862 103.898 108.884 104.208L121.769 368.991C121.835 369.802 122.178 370.56 122.735 371.121C123.291 371.683 124.022 372.01 124.79 372.04H268.75C269.042 372.053 269.333 371.999 269.604 371.882C269.874 371.766 270.118 371.59 270.319 371.366C270.521 371.138 270.675 370.868 270.771 370.573C270.866 370.278 270.902 369.964 270.874 369.654L258 104.871C257.937 104.061 257.596 103.303 257.042 102.742C256.488 102.18 255.758 101.853 254.991 101.822H111.019Z" fill="white"/>
<path opacity="0.3" d="M218.408 198.012C234.781 180.219 233.715 150.995 216.026 132.74C198.337 114.485 170.723 114.111 154.35 131.905C137.976 149.698 139.042 178.922 156.731 197.177C174.42 215.432 202.034 215.806 218.408 198.012Z" fill="white"/>
<path d="M221.68 164.965C222.01 171.106 220.844 177.234 218.293 182.76C215.532 188.687 211.246 193.667 205.928 197.127C200.611 200.587 194.479 202.386 188.238 202.316C181.771 202.255 175.429 200.421 169.829 196.994C164.23 193.567 159.563 188.663 156.284 182.76C153.228 177.361 151.469 171.251 151.163 164.965C150.872 160.144 151.524 155.312 153.077 150.77C154.631 146.229 157.053 142.075 160.192 138.57C163.331 135.066 167.119 132.285 171.32 130.401C175.52 128.518 180.043 127.574 184.604 127.626C194.097 127.731 203.2 131.641 210.08 138.57C216.959 145.498 221.104 154.93 221.68 164.965Z" fill="white"/>
<path d="M218.258 182.76C215.497 188.687 211.211 193.667 205.894 197.127C200.576 200.587 194.444 202.386 188.203 202.316C181.736 202.255 175.394 200.421 169.795 196.994C164.195 193.567 159.528 188.663 156.249 182.76C165.216 176.202 175.866 172.712 186.764 172.763C197.953 172.807 208.891 176.279 218.258 182.76Z" fill="#FB0B0F"/>
<path d="M197.31 164.097C203.209 157.686 202.823 147.156 196.447 140.576C190.072 133.997 180.121 133.86 174.222 140.27C168.323 146.681 168.709 157.212 175.084 163.791C181.46 170.371 191.411 170.508 197.31 164.097Z" fill="#FB0B0F"/>
<path d="M248.124 275.419H135.398C134.416 275.409 133.475 275.004 132.763 274.288C132.052 273.571 131.623 272.596 131.563 271.558L130.714 254.063C130.684 253.566 130.752 253.067 130.913 252.598C131.075 252.13 131.325 251.702 131.65 251.34C131.974 250.979 132.366 250.693 132.799 250.499C133.233 250.305 133.7 250.208 134.171 250.215H246.896C247.876 250.225 248.816 250.628 249.528 251.341C250.239 252.055 250.669 253.028 250.731 254.063L251.581 271.558C251.612 272.057 251.545 272.557 251.385 273.027C251.225 273.497 250.974 273.927 250.65 274.289C250.325 274.652 249.933 274.94 249.498 275.134C249.063 275.329 248.596 275.426 248.124 275.419Z" fill="white"/>
<path opacity="0.3" d="M213.609 240.555H166.527C165.541 240.547 164.595 240.143 163.88 239.423C163.166 238.704 162.737 237.723 162.68 236.681L162.503 232.932C162.472 232.434 162.539 231.934 162.699 231.464C162.859 230.994 163.11 230.564 163.434 230.201C163.759 229.838 164.151 229.551 164.586 229.356C165.021 229.162 165.489 229.065 165.96 229.071H213.031C214.012 229.082 214.954 229.486 215.666 230.202C216.377 230.919 216.806 231.894 216.866 232.932L217.054 236.681C217.083 237.179 217.016 237.678 216.856 238.147C216.696 238.616 216.446 239.045 216.123 239.408C215.801 239.771 215.411 240.06 214.978 240.257C214.546 240.455 214.08 240.556 213.609 240.555Z" fill="black"/>
<path opacity="0.3" d="M231.12 359.532H160.591C158.921 359.51 157.321 358.82 156.111 357.601C154.9 356.382 154.17 354.724 154.066 352.959L153.653 344.336C153.611 343.489 153.733 342.641 154.011 341.845C154.289 341.049 154.717 340.322 155.269 339.707C155.821 339.092 156.485 338.602 157.222 338.268C157.959 337.934 158.752 337.762 159.553 337.763H230.058C231.728 337.785 233.329 338.475 234.539 339.694C235.749 340.913 236.479 342.571 236.583 344.336L236.996 352.959C237.038 353.804 236.917 354.65 236.641 355.444C236.364 356.238 235.938 356.965 235.389 357.579C234.839 358.194 234.177 358.684 233.444 359.02C232.71 359.355 231.919 359.53 231.12 359.532Z" fill="black"/>
<path d="M250.189 317.732H137.451C136.47 317.718 135.53 317.313 134.819 316.597C134.108 315.881 133.679 314.907 133.616 313.87L132.767 296.376C132.738 295.877 132.806 295.378 132.967 294.909C133.128 294.44 133.378 294.011 133.702 293.648C134.027 293.286 134.418 292.999 134.852 292.803C135.286 292.608 135.753 292.51 136.224 292.514H248.95C249.931 292.525 250.873 292.929 251.585 293.646C252.296 294.362 252.725 295.338 252.785 296.376L253.646 313.87C253.673 314.368 253.604 314.867 253.443 315.335C253.281 315.803 253.031 316.232 252.707 316.594C252.383 316.955 251.992 317.243 251.559 317.439C251.126 317.635 250.66 317.734 250.189 317.732Z" fill="white"/>
<path d="M149.7 262.811C149.732 263.363 149.657 263.916 149.478 264.436C149.3 264.956 149.022 265.432 148.662 265.833C148.302 266.234 147.868 266.552 147.387 266.767C146.905 266.983 146.387 267.091 145.865 267.084C144.78 267.071 143.739 266.622 142.953 265.83C142.168 265.037 141.694 263.958 141.629 262.811C141.595 262.259 141.668 261.706 141.846 261.186C142.023 260.666 142.3 260.191 142.659 259.789C143.018 259.388 143.451 259.07 143.932 258.854C144.412 258.639 144.93 258.531 145.452 258.537C146.538 258.55 147.58 258.998 148.368 259.791C149.156 260.584 149.632 261.662 149.7 262.811Z" fill="#263238"/>
<path d="M162.126 262.811C162.16 263.362 162.086 263.915 161.909 264.435C161.732 264.955 161.455 265.431 161.096 265.832C160.737 266.233 160.303 266.552 159.823 266.767C159.342 266.983 158.824 267.091 158.302 267.084C157.216 267.074 156.174 266.626 155.388 265.833C154.601 265.039 154.129 263.959 154.066 262.811C154.032 262.259 154.106 261.706 154.283 261.186C154.46 260.666 154.737 260.191 155.096 259.789C155.455 259.388 155.889 259.07 156.369 258.854C156.85 258.639 157.367 258.531 157.889 258.537C158.976 258.548 160.017 258.995 160.804 259.789C161.59 260.582 162.063 261.662 162.126 262.811Z" fill="#263238"/>
<path d="M174.48 262.811C174.514 263.362 174.44 263.915 174.263 264.435C174.086 264.955 173.809 265.431 173.45 265.832C173.091 266.233 172.658 266.552 172.177 266.767C171.696 266.983 171.179 267.091 170.657 267.084C169.57 267.071 168.529 266.623 167.741 265.83C166.953 265.038 166.477 263.959 166.409 262.811C166.376 262.258 166.452 261.705 166.63 261.185C166.809 260.665 167.087 260.19 167.447 259.789C167.807 259.388 168.241 259.069 168.722 258.854C169.203 258.639 169.721 258.531 170.244 258.537C171.329 258.551 172.369 258.999 173.155 259.792C173.941 260.585 174.414 261.663 174.48 262.811Z" fill="#263238"/>
<path d="M186.929 262.811C186.961 263.362 186.886 263.914 186.708 264.433C186.53 264.953 186.253 265.427 185.895 265.828C185.536 266.229 185.103 266.548 184.623 266.764C184.144 266.98 183.627 267.089 183.105 267.085C182.019 267.071 180.977 266.623 180.189 265.831C179.402 265.038 178.926 263.959 178.857 262.811C178.825 262.26 178.9 261.707 179.078 261.188C179.256 260.669 179.533 260.194 179.891 259.793C180.25 259.393 180.683 259.074 181.163 258.858C181.642 258.642 182.159 258.533 182.681 258.537C183.767 258.551 184.809 258.999 185.597 259.791C186.384 260.584 186.86 261.662 186.929 262.811Z" fill="#263238"/>
<path d="M151.789 305.098C151.823 305.65 151.749 306.203 151.572 306.723C151.394 307.243 151.118 307.718 150.759 308.119C150.4 308.521 149.966 308.839 149.486 309.055C149.005 309.27 148.487 309.378 147.965 309.372C146.879 309.358 145.837 308.91 145.049 308.118C144.262 307.325 143.786 306.246 143.717 305.098C143.685 304.546 143.76 303.992 143.939 303.472C144.117 302.952 144.395 302.477 144.755 302.076C145.115 301.675 145.549 301.357 146.031 301.141C146.512 300.926 147.03 300.818 147.552 300.824C148.638 300.838 149.678 301.286 150.464 302.079C151.25 302.872 151.723 303.951 151.789 305.098Z" fill="#263238"/>
<path d="M164.19 305.098C164.223 305.649 164.147 306.201 163.97 306.721C163.792 307.24 163.515 307.714 163.156 308.115C162.798 308.516 162.365 308.835 161.885 309.051C161.405 309.267 160.888 309.376 160.367 309.372C159.28 309.358 158.239 308.91 157.451 308.118C156.663 307.325 156.187 306.246 156.119 305.098C156.085 304.546 156.159 303.993 156.336 303.473C156.513 302.953 156.79 302.478 157.149 302.077C157.508 301.675 157.941 301.357 158.422 301.141C158.903 300.926 159.42 300.818 159.942 300.824C161.029 300.838 162.07 301.286 162.858 302.078C163.646 302.871 164.122 303.949 164.19 305.098Z" fill="#263238"/>
<path d="M176.593 305.098C176.625 305.65 176.55 306.204 176.371 306.724C176.192 307.244 175.914 307.719 175.555 308.12C175.195 308.521 174.761 308.839 174.279 309.055C173.798 309.27 173.28 309.378 172.758 309.372C171.671 309.361 170.63 308.914 169.843 308.12C169.057 307.327 168.584 306.246 168.521 305.098C168.487 304.546 168.561 303.993 168.738 303.473C168.915 302.953 169.192 302.478 169.551 302.077C169.91 301.675 170.344 301.357 170.824 301.141C171.305 300.926 171.823 300.818 172.345 300.824C173.431 300.838 174.473 301.286 175.261 302.078C176.048 302.871 176.524 303.949 176.593 305.098Z" fill="#263238"/>
<path d="M188.982 305.098C189.017 305.65 188.943 306.203 188.765 306.723C188.588 307.243 188.311 307.718 187.952 308.119C187.593 308.521 187.16 308.839 186.679 309.055C186.199 309.27 185.681 309.378 185.159 309.372C184.073 309.358 183.031 308.91 182.243 308.118C181.455 307.325 180.98 306.246 180.911 305.098C180.879 304.546 180.954 303.992 181.133 303.472C181.311 302.952 181.589 302.477 181.949 302.076C182.309 301.675 182.743 301.357 183.224 301.141C183.706 300.926 184.224 300.818 184.746 300.824C185.832 300.835 186.874 301.282 187.661 302.076C188.447 302.869 188.92 303.95 188.982 305.098Z" fill="#263238"/>
<path d="M201.384 305.098C201.418 305.65 201.344 306.203 201.167 306.723C200.99 307.243 200.713 307.718 200.354 308.12C199.995 308.521 199.561 308.839 199.081 309.055C198.6 309.27 198.082 309.378 197.561 309.372C196.474 309.358 195.432 308.91 194.645 308.118C193.857 307.325 193.381 306.247 193.313 305.098C193.28 304.547 193.355 303.995 193.533 303.475C193.711 302.956 193.988 302.482 194.346 302.081C194.705 301.68 195.138 301.361 195.618 301.145C196.098 300.929 196.614 300.82 197.136 300.824C198.222 300.838 199.264 301.286 200.052 302.078C200.84 302.871 201.315 303.95 201.384 305.098Z" fill="#263238"/>
<path d="M213.786 305.098C213.818 305.65 213.743 306.204 213.564 306.724C213.386 307.244 213.108 307.719 212.748 308.12C212.388 308.521 211.954 308.839 211.473 309.055C210.991 309.27 210.473 309.378 209.951 309.372C208.866 309.358 207.825 308.91 207.039 308.117C206.254 307.324 205.78 306.245 205.715 305.098C205.68 304.546 205.754 303.993 205.932 303.473C206.109 302.953 206.386 302.478 206.745 302.077C207.104 301.675 207.537 301.357 208.018 301.141C208.498 300.926 209.016 300.818 209.538 300.824C210.624 300.838 211.666 301.286 212.454 302.078C213.242 302.871 213.717 303.949 213.786 305.098Z" fill="#263238"/>
<path d="M347.94 159.979C348.235 160.454 348.388 160.704 348.577 161.041L349.108 161.966C349.45 162.591 349.757 163.216 350.052 163.828C350.642 165.078 351.232 166.327 351.704 167.577C352.693 170.059 353.545 172.6 354.253 175.187C355.682 180.298 356.623 185.548 357.061 190.857L357.144 191.845C357.154 192.044 357.154 192.245 357.144 192.444V193.107C357.164 193.976 357.116 194.845 357.002 195.706C356.776 197.302 356.38 198.865 355.822 200.367C354.786 203.049 353.413 205.571 351.74 207.865C348.619 212.097 344.916 215.808 340.754 218.874L337.497 214.838C340.461 211.293 343.085 207.446 345.332 203.354C346.343 201.497 347.136 199.516 347.692 197.455C347.918 196.583 348.048 195.685 348.082 194.781C348.118 194.395 348.118 194.006 348.082 193.619V193.357C348.094 193.24 348.094 193.123 348.082 193.007L347.94 192.132C347.181 187.475 346.109 182.881 344.73 178.386C344.046 176.149 343.208 173.988 342.37 171.876C341.957 170.813 341.485 169.776 341.013 168.777L340.282 167.302L339.916 166.615L339.609 166.065L347.94 159.979Z" fill="#803E3C"/>
<path d="M336.966 218.899L341.238 228.459L344.624 220.373C344.624 220.373 341.615 213.376 337.544 214.025L336.966 218.899Z" fill="#7F3E3B"/>
<path d="M344.294 228.933L347.693 223.035L344.625 220.374L341.238 228.459L344.294 228.933Z" fill="#7F3E3B"/>
<path d="M325.083 449.392C325.967 449.369 326.845 449.243 327.703 449.017C327.746 449.003 327.785 448.977 327.817 448.942C327.848 448.907 327.869 448.864 327.88 448.817C327.887 448.769 327.881 448.72 327.862 448.676C327.843 448.631 327.812 448.594 327.774 448.567C327.431 448.33 324.434 446.281 323.278 446.83C323.15 446.894 323.04 446.992 322.959 447.115C322.878 447.238 322.829 447.381 322.818 447.53C322.782 447.756 322.799 447.988 322.866 448.206C322.934 448.424 323.051 448.621 323.207 448.78C323.742 449.217 324.409 449.435 325.083 449.392ZM327.03 448.655C325.319 449.03 324.021 448.967 323.49 448.48C323.382 448.366 323.302 448.225 323.259 448.07C323.216 447.915 323.21 447.751 323.242 447.593C323.242 447.38 323.36 447.318 323.443 447.28C324.08 446.98 325.815 447.868 327.03 448.655Z" fill="#FB0B0F"/>
<path d="M327.644 449.017H327.762C327.798 448.993 327.827 448.96 327.848 448.92C327.868 448.881 327.879 448.837 327.88 448.792C327.88 448.667 327.88 445.656 326.795 444.644C326.661 444.517 326.504 444.422 326.333 444.366C326.162 444.31 325.981 444.294 325.803 444.319C325.617 444.32 325.437 444.389 325.294 444.515C325.15 444.64 325.051 444.813 325.013 445.006C324.789 446.193 326.582 448.443 327.526 449.017H327.644ZM325.957 444.781C326.052 444.778 326.147 444.796 326.237 444.832C326.326 444.869 326.407 444.923 326.476 444.994C327.099 445.966 327.42 447.118 327.396 448.293C326.452 447.493 325.331 445.793 325.473 445.081C325.473 444.969 325.556 444.819 325.851 444.781H325.957Z" fill="#FB0B0F"/>
<path d="M313.945 444.294C313.972 444.257 313.99 444.213 313.997 444.167C314.003 444.12 313.997 444.073 313.98 444.03C313.964 443.986 313.936 443.948 313.901 443.92C313.865 443.892 313.823 443.874 313.779 443.869C313.296 443.869 309.059 443.656 308.092 444.756V444.831C308.012 444.939 307.96 445.068 307.941 445.203C307.923 445.339 307.938 445.478 307.986 445.606C308.049 445.82 308.16 446.015 308.31 446.174C308.46 446.333 308.644 446.451 308.847 446.518C310.216 446.968 312.635 445.331 313.956 444.319L313.945 444.294ZM308.446 445.081C308.977 444.481 311.313 444.319 313.06 444.344C311.231 445.668 309.708 446.293 308.941 446.043C308.808 446 308.686 445.923 308.587 445.818C308.488 445.714 308.416 445.585 308.375 445.443C308.351 445.395 308.339 445.342 308.339 445.287C308.339 445.233 308.351 445.179 308.375 445.131L308.446 445.081Z" fill="#FB0B0F"/>
<path d="M313.945 444.294C313.963 444.255 313.972 444.212 313.972 444.169C313.972 444.125 313.963 444.083 313.945 444.044C313.886 443.944 312.564 441.545 311.007 441.045C310.783 440.975 310.548 440.955 310.317 440.985C310.086 441.015 309.863 441.095 309.661 441.22C309.095 441.569 309.06 441.982 309.13 442.244C309.437 443.406 312.446 444.431 313.744 444.419C313.785 444.418 313.825 444.406 313.86 444.384C313.895 444.362 313.924 444.331 313.945 444.294ZM309.709 441.794C309.775 441.725 309.851 441.666 309.933 441.619C310.078 441.521 310.243 441.458 310.414 441.434C310.585 441.41 310.759 441.427 310.924 441.482C311.951 441.769 312.906 443.169 313.343 443.856C311.939 443.694 309.803 442.782 309.626 442.082C309.611 442.029 309.611 441.972 309.625 441.919C309.64 441.866 309.669 441.818 309.709 441.782V441.794Z" fill="#FB0B0F"/>
<path d="M326.936 123.378C325.756 129.626 323.207 143.134 327.302 147.283C327.302 147.283 325.697 153.531 314.806 153.531C302.817 153.531 309.083 147.283 309.083 147.283C315.62 145.633 315.455 140.485 314.31 135.661L326.936 123.378Z" fill="#7F3E3B"/>
<path d="M306.971 108.732C307.037 108.744 307.105 108.744 307.171 108.732C307.227 108.703 307.277 108.662 307.318 108.612C307.36 108.563 307.391 108.505 307.411 108.442C307.43 108.379 307.438 108.313 307.434 108.247C307.429 108.181 307.412 108.116 307.384 108.057C307.066 107.345 306.592 106.723 306.001 106.244C305.409 105.766 304.718 105.445 303.985 105.308C303.862 105.297 303.74 105.336 303.644 105.418C303.547 105.499 303.484 105.616 303.466 105.746C303.453 105.876 303.489 106.007 303.566 106.11C303.643 106.213 303.756 106.28 303.879 106.295C304.458 106.413 305.001 106.675 305.465 107.06C305.929 107.444 306.299 107.941 306.546 108.507C306.592 108.581 306.655 108.641 306.73 108.68C306.804 108.72 306.887 108.738 306.971 108.732Z" fill="#263238"/>
<path d="M303.395 114.218C302.466 116.042 301.307 117.724 299.95 119.217C300.317 119.573 300.754 119.84 301.228 119.999C301.703 120.159 302.205 120.208 302.699 120.141L303.395 114.218Z" fill="#630F0F"/>
<path d="M304.28 112.806C304.186 113.643 303.678 114.268 303.171 114.206C302.664 114.143 302.31 113.406 302.404 112.569C302.498 111.731 303.006 111.106 303.584 111.169C304.162 111.231 304.363 111.969 304.28 112.806Z" fill="#263238"/>
<path d="M303.737 111.244L301.92 110.469C301.92 110.469 302.687 112.119 303.737 111.244Z" fill="#263238"/>
<path d="M324.363 441.919L314.735 444.294L308.882 420.851L318.511 418.477L324.363 441.919Z" fill="#7F3E3B"/>
<path d="M339.137 448.767H329.261L330.028 424.537H339.916L339.137 448.767Z" fill="#7F3E3B"/>
<path d="M328.47 447.555H339.574C339.766 447.553 339.953 447.626 340.098 447.759C340.244 447.893 340.339 448.078 340.364 448.28L341.627 457.577C341.652 457.812 341.63 458.05 341.562 458.276C341.493 458.501 341.381 458.708 341.231 458.884C341.082 459.06 340.899 459.201 340.695 459.296C340.49 459.392 340.269 459.441 340.046 459.439C336.175 459.377 334.311 459.127 329.426 459.127C326.417 459.127 322.027 459.464 317.885 459.464C313.744 459.464 313.508 455.115 315.242 454.728C322.983 452.954 324.21 450.529 326.818 448.205C327.279 447.788 327.864 447.558 328.47 447.555Z" fill="#263238"/>
<path d="M313.885 442.732L323.974 437.821C324.146 437.734 324.341 437.717 324.523 437.772C324.706 437.827 324.863 437.951 324.965 438.121L329.792 446.018C329.904 446.222 329.976 446.448 330.001 446.682C330.026 446.916 330.004 447.153 329.938 447.378C329.871 447.603 329.761 447.811 329.613 447.987C329.466 448.164 329.286 448.307 329.084 448.405C325.544 450.055 323.75 450.667 319.313 452.829C316.587 454.153 311.053 457.202 307.301 459.077C303.548 460.951 301.613 457.065 303.029 455.94C309.366 450.942 311.183 447.355 312.634 444.094C312.88 443.493 313.325 443.008 313.885 442.732Z" fill="#263238"/>
<path opacity="0.2" d="M308.882 420.851L312.021 433.422L321.531 430.56L318.522 418.477L308.882 420.851Z" fill="black"/>
<path opacity="0.2" d="M339.916 424.537H330.028L329.639 437.033H339.527L339.916 424.537Z" fill="black"/>
<path d="M344.4 149.657C348.506 150.62 352.896 166.252 352.896 166.252L341.285 179.336C341.285 179.336 331.644 164.64 333.615 159.242C335.609 153.606 339.503 148.533 344.4 149.657Z" fill="#263238"/>
<path opacity="0.4" d="M337.839 159.617C335.763 157.605 334.358 158.205 333.403 159.804C332.459 164.453 338.052 174.187 340.306 177.874C341.344 173.475 342.536 164.203 337.839 159.617Z" fill="black"/>
<path d="M292.374 149.97C292.374 149.97 287.654 151.719 297.094 213.138H337.214C336.542 195.843 336.518 185.172 344.294 149.657C338.673 148.429 332.974 147.635 327.243 147.283C321.178 146.82 315.089 146.82 309.024 147.283C301.248 148.045 292.374 149.97 292.374 149.97Z" fill="#263238"/>
<path opacity="0.4" d="M292.008 173.538C292.268 176.524 292.61 179.886 293.058 183.685C296.351 180.548 299.041 171.626 298.05 166.427C295.698 168.449 293.659 170.848 292.008 173.538Z" fill="black"/>
<path d="M296.303 164.203C294.139 169.973 291.701 175.625 288.999 181.135C286.329 186.845 283.169 192.283 279.559 197.38L278.804 198.368L278.426 198.855C278.297 199.017 278.19 199.167 277.99 199.392C277.28 200.213 276.489 200.95 275.63 201.592C274.112 202.704 272.451 203.58 270.697 204.191C267.639 205.225 264.465 205.822 261.257 205.965C255.251 206.218 249.239 205.651 243.369 204.278L244.018 199.03C246.732 199.03 249.575 199.03 252.278 198.792C254.992 198.651 257.695 198.334 260.372 197.843C262.859 197.432 265.291 196.71 267.618 195.693C268.557 195.268 269.435 194.705 270.225 194.019C270.527 193.751 270.8 193.45 271.04 193.119C271.04 193.119 271.181 192.919 271.276 192.782L271.547 192.369L272.102 191.545C275.063 186.701 277.7 181.645 279.996 176.412C282.356 171.101 284.716 165.59 286.875 160.167L296.303 164.203Z" fill="#803E3C"/>
<path d="M292.374 149.97C287.454 151.219 281.412 165.515 281.412 165.515L291.607 181.385C291.607 181.385 305.189 163.278 303.573 157.755C301.921 151.994 298.381 148.42 292.374 149.97Z" fill="#263238"/>
<path d="M246.85 199.83L238.342 195.668L237.492 204.628C237.492 204.628 244.572 206.84 248.112 204.628L246.85 199.83Z" fill="#7F3E3B"/>
<path d="M233.256 194.769L232.442 201.592L237.492 204.628L238.342 195.669L233.256 194.769Z" fill="#7F3E3B"/>
<path d="M331.208 113.418C329.403 123.628 328.848 128.001 323.326 132.637C315.066 139.61 303.561 135.037 302.452 124.465C301.437 114.943 304.552 99.8473 314.547 96.9731C316.748 96.3299 319.069 96.2947 321.287 96.8708C323.505 97.4469 325.547 98.6152 327.218 100.264C328.888 101.913 330.132 103.988 330.831 106.291C331.53 108.593 331.659 111.047 331.208 113.418Z" fill="#7F3E3B"/>
<path d="M310.027 115.567C309.472 120.778 309.26 134.312 320.068 134.737C333.296 135.249 337.261 123.278 336.081 118.492C342.972 112.556 343.963 102.346 336.223 94.5363C328.482 86.7262 311.443 91.0873 306.723 98.6976C300.74 108.132 310.027 115.567 310.027 115.567Z" fill="#263238"/>
<path d="M323.278 97.573C322.641 92.0747 323.137 88.2883 327.998 88.2883C332.86 88.2883 339.492 90.1503 341.922 95.4112C344.353 100.672 344.554 108.907 337.769 108.07C330.984 107.233 324.045 104.146 323.278 97.573Z" fill="#FB0B0F"/>
<path d="M330.807 96.2484C329.627 89.7004 335.161 71.2559 348.601 70.0063C354.832 69.4439 357.711 76.5418 354.501 77.7165C360.401 77.6415 364.177 85.9015 358.679 87.1386C363.021 90.0877 361.947 96.1359 355.752 99.11C351.138 101.359 332.4 105.321 330.807 96.2484Z" fill="#263238"/>
<path d="M345.168 103.284C340.837 103.284 336.318 102.609 333.509 100.622C332.724 100.121 332.063 99.4285 331.581 98.6027C331.098 97.7769 330.809 96.8413 330.736 95.8734C330.733 95.7913 330.759 95.7107 330.809 95.6481C330.859 95.5855 330.93 95.5454 331.008 95.536C331.047 95.5308 331.086 95.5343 331.124 95.5462C331.162 95.5581 331.197 95.5782 331.227 95.6053C331.257 95.6323 331.281 95.6657 331.298 95.7033C331.315 95.7408 331.325 95.7818 331.326 95.8234C331.397 96.6969 331.662 97.5402 332.099 98.285C332.535 99.0298 333.132 99.6549 333.84 100.11C339.185 103.859 351.54 102.609 355.386 101.359C358.714 100.21 360.968 97.9728 361.416 95.3986C361.556 94.4539 361.446 93.4867 361.098 92.6044C360.75 91.722 360.178 90.959 359.446 90.4001C359.417 90.372 359.395 90.3382 359.379 90.3005C359.364 90.2629 359.356 90.2224 359.356 90.1814C359.356 90.1404 359.364 90.0999 359.379 90.0623C359.395 90.0246 359.417 89.9908 359.446 89.9627C359.501 89.9055 359.575 89.8734 359.652 89.8734C359.729 89.8734 359.803 89.9055 359.859 89.9627C360.682 90.5992 361.323 91.4656 361.708 92.4653C362.094 93.4649 362.209 94.5584 362.042 95.6235C361.558 98.4352 359.162 100.834 355.622 102.059C352.207 102.971 348.689 103.383 345.168 103.284Z" fill="#263238"/>
<path d="M307.018 114.218C305.919 115.85 305.466 117.873 305.755 119.854C306.145 122.478 308.552 122.653 310.298 120.978C312.045 119.304 313.567 116.28 312.281 114.106C311.995 113.636 311.6 113.251 311.134 112.989C310.669 112.726 310.147 112.594 309.62 112.606C309.092 112.617 308.576 112.771 308.121 113.053C307.665 113.336 307.286 113.736 307.018 114.218Z" fill="#7F3E3B"/>
<path d="M307.69 213.138C307.69 213.138 313.425 284.979 319.384 325.467C324.187 358.17 327.986 434.609 327.986 434.609H341.462C341.462 434.609 346.253 360.456 343.822 328.116C337.651 246.266 351.421 239.593 337.249 213.151L307.69 213.138Z" fill="#FB0B0F"/>
<path opacity="0.4" d="M324.659 240.292C319.318 246.228 315.008 253.115 311.927 260.636C313.496 276.782 315.361 294.701 317.343 310.396C325.477 288.095 327.998 263.937 324.659 240.292Z" fill="black"/>
<path d="M298.262 212.688C298.262 212.688 285.813 291.152 283.854 326.517C288.74 359.219 308.729 428.348 308.729 428.348L320.989 423.637C320.989 423.637 314.204 348.26 306.829 327.629C323.432 268.434 335.633 253.464 332.081 213.138C323.573 213.138 298.262 212.688 298.262 212.688Z" fill="#FB0B0F"/>
<path d="M307.089 431.798L323.656 427.036L322.712 420.039L304.977 425.125L307.089 431.798Z" fill="#263238"/>
<path d="M326.133 434.897H343.302L344.199 428.524L326.039 427.874L326.133 434.897Z" fill="#263238"/>
<path d="M337.839 210.639L339.645 214.45C339.786 214.75 339.456 215.05 338.996 215.05H296.893C296.539 215.05 296.233 214.863 296.209 214.613L295.843 210.864C295.843 210.601 296.138 210.377 296.528 210.377H337.179C337.301 210.359 337.425 210.374 337.54 210.419C337.656 210.465 337.758 210.541 337.839 210.639Z" fill="#FB0B0F"/>
<path opacity="0.5" d="M337.839 210.639L339.645 214.45C339.786 214.75 339.456 215.05 338.996 215.05H296.893C296.539 215.05 296.233 214.863 296.209 214.613L295.843 210.864C295.843 210.601 296.138 210.377 296.528 210.377H337.179C337.301 210.359 337.425 210.374 337.54 210.419C337.656 210.465 337.758 210.541 337.839 210.639Z" fill="black"/>
<path d="M332.376 215.438H333.462C333.686 215.438 333.851 215.313 333.839 215.175L333.32 210.177C333.32 210.027 333.12 209.914 332.907 209.914H331.81C331.597 209.914 331.432 210.027 331.444 210.177L331.951 215.175C331.975 215.338 332.164 215.438 332.376 215.438Z" fill="#FB0B0F"/>
<path d="M317.767 179.048C317.637 179.046 317.511 179 317.407 178.917C317.303 178.834 317.227 178.718 317.189 178.586C313.342 163.516 305.389 151.094 301.531 149.22C301.231 149.025 300.871 148.962 300.528 149.045C300.456 149.085 300.378 149.109 300.298 149.115C300.218 149.122 300.137 149.111 300.061 149.083C299.985 149.055 299.915 149.011 299.855 148.954C299.796 148.896 299.748 148.827 299.715 148.749C299.682 148.671 299.664 148.587 299.663 148.502C299.661 148.416 299.677 148.332 299.708 148.253C299.738 148.174 299.784 148.103 299.842 148.043C299.9 147.984 299.969 147.938 300.044 147.908C300.366 147.782 300.711 147.733 301.053 147.763C301.396 147.793 301.728 147.902 302.026 148.083C306.109 150.132 314.18 162.378 318.216 177.786C321.107 177.786 325.567 177.374 326.653 177.274C327.998 175.574 337.886 162.478 334.193 148.145C334.172 148.066 334.166 147.984 334.175 147.903C334.184 147.821 334.209 147.743 334.247 147.672C334.286 147.6 334.337 147.538 334.399 147.489C334.461 147.439 334.531 147.403 334.606 147.383C334.756 147.341 334.916 147.363 335.051 147.445C335.186 147.527 335.284 147.662 335.326 147.82C339.444 163.765 327.502 178.149 327.373 178.286C327.327 178.347 327.269 178.397 327.204 178.433C327.14 178.47 327.068 178.492 326.995 178.499C326.936 178.499 321.048 179.048 317.767 179.048Z" fill="#FB0B0F"/>
<path d="M337.32 187.871C330.889 175.112 328.258 174.212 327.113 170.114C327.981 167.822 329.219 165.707 330.771 163.866C329.993 163.628 328.317 163.278 327.231 163.066C327.349 162.504 327.479 161.954 327.597 161.416C326.416 161.276 325.221 161.335 324.057 161.591V160.342C322.558 159.996 321.019 159.891 319.491 160.029C319.624 160.621 319.754 161.221 319.88 161.829C318.7 162.066 316.906 162.454 316.045 162.716C317.719 164.724 318.948 167.102 319.644 169.676C316.175 175.987 302.699 216.55 324.624 219.661C346.548 222.773 343.74 200.642 337.32 187.871Z" fill="#FB0B0F"/>
<path opacity="0.4" d="M337.32 187.871C330.889 175.112 328.258 174.212 327.113 170.114C327.981 167.822 329.219 165.707 330.771 163.866C329.993 163.628 328.317 163.278 327.231 163.066C327.349 162.504 327.479 161.954 327.597 161.416C326.416 161.276 325.221 161.335 324.057 161.591V160.342C322.558 159.996 321.019 159.891 319.491 160.029C319.624 160.621 319.754 161.221 319.88 161.829C318.7 162.066 316.906 162.454 316.045 162.716C317.719 164.724 318.948 167.102 319.644 169.676C316.175 175.987 302.699 216.55 324.624 219.661C346.548 222.773 343.74 200.642 337.32 187.871Z" fill="white"/>
<path d="M318.747 168.464C318.611 169.108 318.551 169.767 318.57 170.426C318.57 170.888 319.75 171.201 321.06 171.338C322.37 171.476 327.869 171.701 327.692 171.051C327.515 170.401 327.963 169.514 327.987 168.964C328.01 168.414 325.804 168.389 323.951 168.464C322.099 168.539 319.113 167.764 318.747 168.464Z" fill="#FB0B0F"/>
<path d="M305.991 215.438H307.077C307.289 215.438 307.454 215.313 307.443 215.175L306.935 210.177C306.935 210.027 306.735 209.914 306.51 209.914H305.46C305.248 209.914 305.083 210.027 305.094 210.177L305.602 215.175C305.578 215.338 305.767 215.438 305.991 215.438Z" fill="#FB0B0F"/>
</g>
<defs>
<clipPath id="clip0_129_4">
<rect width="500" height="500" fill="white"/>
</clipPath>
</defs>
</svg>
