<svg width="232" height="276" viewBox="0 0 232 276" fill="none" xmlns="http://www.w3.org/2000/svg">
<g clip-path="url(#clip0_281_345)">
<path d="M140.982 112.317C141.202 112.01 141.285 111.625 141.215 111.253C140.22 105.996 142.23 103.923 142.23 103.923C142.23 103.378 148.386 102.936 156.004 102.932H156.348C159.511 102.934 162.421 103.011 164.744 103.14C164.756 103.141 164.769 103.141 164.781 103.142C164.923 103.15 165.063 103.158 165.2 103.166C168.21 103.347 170.122 103.619 170.122 103.923C170.122 103.923 172.133 105.996 171.137 111.253C171.067 111.625 171.149 112.01 171.37 112.317C171.531 112.542 171.677 112.77 171.68 113.201C171.684 113.615 171.532 113.814 171.354 113.976C171.014 114.286 170.858 114.75 170.931 115.205C171.03 115.817 171.162 116.728 171.292 117.87C171.723 121.66 172.122 128.007 171.114 134.554C170.862 136.19 170.523 137.838 170.074 139.462C169.928 139.987 169.983 140.548 170.23 141.035C170.377 141.325 170.459 141.786 170.283 142.509C169.74 144.742 160.332 149.185 158.875 154.515H153.474C152.917 152.475 151.194 150.564 149.249 148.858C146.114 146.107 142.402 143.888 142.067 142.509C141.89 141.786 141.973 141.325 142.119 141.035C142.366 140.548 142.421 139.987 142.276 139.462C141.827 137.838 141.487 136.19 141.235 134.554C140.228 128.007 140.626 121.66 141.057 117.87C141.187 116.727 141.32 115.817 141.418 115.205C141.491 114.75 141.335 114.286 140.996 113.976C140.818 113.813 140.666 113.615 140.669 113.201C140.675 112.77 140.821 112.542 140.982 112.317Z" fill="#D0E0FA" style="fill:#D0E0FA;fill:color(display-p3 0.8157 0.8784 0.9804);fill-opacity:1;"/>
<path opacity="0.5" d="M156.35 103.631C159.41 103.633 162.298 103.704 164.703 103.838C164.717 103.839 164.729 103.839 164.742 103.84H164.745C164.885 103.848 165.023 103.856 165.158 103.864C167.883 104.028 168.994 104.224 169.422 104.33L169.777 104.622C169.933 104.857 170.172 105.287 170.369 105.934C170.667 106.917 170.924 108.616 170.449 111.122C170.344 111.682 170.473 112.267 170.802 112.725C170.925 112.895 170.979 112.981 170.981 113.206C170.981 113.368 170.955 113.392 170.883 113.459C170.37 113.927 170.13 114.621 170.241 115.314C170.331 115.877 170.466 116.79 170.597 117.949C170.87 120.35 171.02 122.784 171.043 125.185C171.075 128.453 170.866 131.57 170.424 134.448C170.164 136.133 169.82 137.757 169.401 139.274C169.208 139.97 169.281 140.707 169.606 141.349C169.667 141.468 169.746 141.756 169.604 142.343C169.569 142.487 169.389 142.837 168.58 143.566C167.927 144.153 167.031 144.84 166.082 145.566C163.146 147.817 159.528 150.59 158.365 153.814H153.99C153.372 152.092 151.999 150.335 149.714 148.331C148.575 147.331 147.351 146.394 146.272 145.565C145.323 144.839 144.427 144.152 143.775 143.565C142.966 142.836 142.786 142.487 142.751 142.343C142.609 141.756 142.689 141.468 142.749 141.349C143.074 140.707 143.147 139.97 142.954 139.274C142.535 137.757 142.19 136.133 141.931 134.448C141.489 131.57 141.28 128.453 141.311 125.185C141.334 122.784 141.484 120.35 141.757 117.949C141.889 116.79 142.024 115.877 142.113 115.314C142.224 114.621 141.985 113.927 141.472 113.459C141.398 113.393 141.371 113.368 141.373 113.206C141.375 112.981 141.429 112.895 141.552 112.724C141.882 112.265 142.009 111.681 141.903 111.122C141.429 108.616 141.685 106.916 141.985 105.933C142.181 105.286 142.42 104.856 142.576 104.621H142.931V104.326C143.343 104.222 144.393 104.039 146.958 103.877C149.452 103.719 152.665 103.631 156.004 103.629H156.35V103.631Z" fill="white" style="fill:white;fill-opacity:1;"/>
<path d="M141.06 117.869H171.293C171.724 121.659 172.123 128.007 171.115 134.553H141.237C140.229 128.007 140.628 121.659 141.06 117.869Z" fill="#4BBEFF" style="fill:#4BBEFF;fill:color(display-p3 0.2941 0.7451 1.0000);fill-opacity:1;"/>
<path d="M156.518 139.215C165.187 139.215 168.58 140.001 168.614 140.009C168.629 140.012 168.637 140.028 168.635 140.042C168.631 140.057 168.616 140.066 168.601 140.063C168.567 140.056 165.179 139.271 156.518 139.271C147.857 139.271 143.748 140.056 143.707 140.063C143.692 140.066 143.678 140.056 143.674 140.041C143.672 140.026 143.681 140.011 143.697 140.009C143.737 140 147.85 139.215 156.518 139.215Z" fill="white" style="fill:white;fill-opacity:1;"/>
<path d="M156.573 113.893C166.572 113.893 170.485 114.678 170.524 114.686C170.539 114.689 170.549 114.704 170.546 114.719C170.543 114.735 170.527 114.744 170.513 114.741C170.475 114.733 166.564 113.948 156.574 113.948C146.581 113.948 141.841 114.733 141.794 114.741C141.779 114.743 141.764 114.733 141.762 114.717C141.759 114.702 141.77 114.688 141.785 114.685C141.83 114.678 146.575 113.893 156.573 113.893Z" fill="white" style="fill:white;fill-opacity:1;"/>
<path d="M156.573 111.119C166.572 111.119 170.485 111.905 170.524 111.912C170.539 111.915 170.549 111.931 170.546 111.945C170.543 111.96 170.527 111.97 170.513 111.967C170.475 111.959 166.564 111.175 156.574 111.175C146.581 111.175 141.841 111.959 141.794 111.967C141.779 111.97 141.764 111.959 141.762 111.944C141.759 111.929 141.77 111.914 141.785 111.911C141.83 111.904 146.575 111.119 156.573 111.119Z" fill="white" style="fill:white;fill-opacity:1;"/>
<path opacity="0.25" d="M151.392 102.991C152.833 102.954 154.387 102.933 156.005 102.932H156.35C163.968 102.936 170.123 103.378 170.123 103.923C170.123 103.923 172.135 105.996 171.138 111.253C171.068 111.625 171.151 112.01 171.372 112.317C171.532 112.542 171.679 112.77 171.681 113.201C171.685 113.615 171.533 113.814 171.355 113.976C171.015 114.286 170.86 114.75 170.933 115.205C171.031 115.817 171.164 116.728 171.294 117.87C171.725 121.66 172.124 128.008 171.116 134.554C170.863 136.19 170.525 137.838 170.075 139.462C169.93 139.987 169.985 140.548 170.231 141.035C170.378 141.325 170.46 141.786 170.284 142.509C169.771 144.621 161.327 148.709 159.182 153.656C158.836 153.434 157.622 153.152 156.176 153.152C155.584 153.152 155.03 153.2 154.56 153.269C153.966 153.36 153.503 153.488 153.262 153.606C152.84 151.12 153.778 148.573 155.803 146.996C158.235 145.102 160.457 143.56 160.712 142.509C160.888 141.786 160.807 141.325 160.659 141.035C160.413 140.548 160.358 139.987 160.504 139.462C160.952 137.838 161.292 136.19 161.544 134.554C162.551 128.008 162.152 121.66 161.722 117.87C161.592 116.727 161.459 115.817 161.361 115.205C161.289 114.75 161.443 114.286 161.783 113.976C161.961 113.813 162.114 113.615 162.11 113.201C162.106 112.77 161.96 112.542 161.8 112.317C161.579 112.01 161.497 111.625 161.567 111.253C162.562 105.996 160.552 103.923 160.552 103.923H160.551C160.551 103.494 156.734 103.129 151.392 102.991Z" fill="white" style="fill:white;fill-opacity:1;"/>
<path opacity="0.25" d="M140.982 112.317C141.203 112.01 141.285 111.625 141.215 111.253C140.22 105.996 142.231 103.923 142.231 103.923C142.231 103.378 148.386 102.936 156.004 102.932H156.348C159.511 102.934 162.421 103.011 164.744 103.14C162.692 103.043 154.31 102.872 149.998 106.212C145.061 110.034 143.455 141.335 149.251 148.858C146.116 146.107 142.404 143.888 142.069 142.509C141.892 141.786 141.974 141.325 142.121 141.035C142.368 140.548 142.423 139.987 142.278 139.462C141.829 137.838 141.489 136.19 141.237 134.554C140.23 128.007 140.628 121.66 141.059 117.87C141.189 116.727 141.322 115.817 141.42 115.205C141.493 114.75 141.337 114.286 140.998 113.976C140.82 113.813 140.668 113.615 140.671 113.201C140.675 112.77 140.821 112.542 140.982 112.317Z" fill="#4BBEFF" style="fill:#4BBEFF;fill:color(display-p3 0.2941 0.7451 1.0000);fill-opacity:1;"/>
<path d="M158.878 154.515C158.878 154.728 157.668 154.901 156.177 154.901C154.685 154.901 153.477 154.728 153.477 154.515C153.477 154.302 154.685 154.129 156.177 154.129C157.668 154.129 158.878 154.302 158.878 154.515Z" fill="#D0E0FA" style="fill:#D0E0FA;fill:color(display-p3 0.8157 0.8784 0.9804);fill-opacity:1;"/>
<path d="M149.252 137.281C149.252 137.645 148.956 137.941 148.591 137.941C148.226 137.941 147.93 137.645 147.93 137.281C147.93 136.917 148.226 136.621 148.591 136.621C148.957 136.621 149.252 136.916 149.252 137.281Z" fill="white" style="fill:white;fill-opacity:1;"/>
<path d="M157.737 142.23C157.737 142.473 157.54 142.67 157.296 142.67C157.053 142.67 156.855 142.473 156.855 142.23C156.855 141.987 157.053 141.791 157.296 141.791C157.54 141.791 157.737 141.987 157.737 142.23Z" fill="white" style="fill:white;fill-opacity:1;"/>
<path d="M159.833 137.283C159.833 137.678 159.513 137.998 159.117 137.998C158.722 137.998 158.401 137.678 158.401 137.283C158.401 136.888 158.722 136.568 159.117 136.568C159.512 136.567 159.833 136.888 159.833 137.283Z" fill="white" style="fill:white;fill-opacity:1;"/>
<path d="M149.692 116.493C149.692 116.736 149.495 116.933 149.251 116.933C149.008 116.933 148.811 116.736 148.811 116.493C148.811 116.25 149.008 116.053 149.251 116.053C149.495 116.053 149.692 116.251 149.692 116.493Z" fill="white" style="fill:white;fill-opacity:1;"/>
<path d="M160.769 115.614C160.769 115.857 160.572 116.054 160.328 116.054C160.085 116.054 159.888 115.857 159.888 115.614C159.888 115.371 160.085 115.174 160.328 115.174C160.572 115.174 160.769 115.371 160.769 115.614Z" fill="white" style="fill:white;fill-opacity:1;"/>
<path d="M160.327 107.254C160.327 107.528 160.105 107.749 159.832 107.749C159.558 107.749 159.336 107.527 159.336 107.254C159.336 106.98 159.558 106.76 159.832 106.76C160.105 106.76 160.327 106.981 160.327 107.254Z" fill="white" style="fill:white;fill-opacity:1;"/>
<path d="M150.684 109.509C150.684 109.933 150.341 110.275 149.916 110.275C149.492 110.275 149.148 109.933 149.148 109.509C149.148 109.085 149.492 108.742 149.916 108.742C150.341 108.742 150.684 109.085 150.684 109.509Z" fill="white" style="fill:white;fill-opacity:1;"/>
<path d="M156.644 109.785C156.644 110.056 156.424 110.277 156.152 110.277C155.88 110.277 155.659 110.056 155.659 109.785C155.659 109.513 155.879 109.293 156.152 109.293C156.423 109.293 156.644 109.513 156.644 109.785Z" fill="white" style="fill:white;fill-opacity:1;"/>
<path d="M167.215 109.071C167.215 109.314 167.017 109.511 166.774 109.511C166.53 109.511 166.333 109.314 166.333 109.071C166.333 108.828 166.53 108.631 166.774 108.631C167.017 108.631 167.215 108.828 167.215 109.071Z" fill="white" style="fill:white;fill-opacity:1;"/>
<path d="M166.775 137.612C166.775 137.855 166.578 138.052 166.334 138.052C166.091 138.052 165.894 137.855 165.894 137.612C165.894 137.369 166.091 137.172 166.334 137.172C166.578 137.172 166.775 137.369 166.775 137.612Z" fill="white" style="fill:white;fill-opacity:1;"/>
<path d="M173.93 231.695H150.421C149.279 231.695 148.354 230.771 148.354 229.631V191.195H176V229.631C175.999 230.771 175.073 231.695 173.93 231.695Z" fill="#D1E1FB" style="fill:#D1E1FB;fill:color(display-p3 0.8196 0.8824 0.9843);fill-opacity:1;"/>
<path d="M161.929 231.695H138.421C137.278 231.695 136.353 230.771 136.353 229.631V191.195H163.999V229.631C163.998 230.771 163.072 231.695 161.929 231.695Z" fill="#EFF3FC" style="fill:#EFF3FC;fill:color(display-p3 0.9373 0.9529 0.9882);fill-opacity:1;"/>
<path d="M174.16 192.986H161.767V152.268H174.202C175.194 152.268 175.998 153.071 175.998 154.061V191.152C175.998 192.164 175.175 192.986 174.16 192.986Z" fill="#4BBEFF" style="fill:#4BBEFF;fill:color(display-p3 0.2941 0.7451 1.0000);fill-opacity:1;"/>
<path d="M162.203 192.985H138.148C137.157 192.985 136.353 192.183 136.353 191.193V154.058C136.353 153.069 137.156 152.266 138.148 152.266H162.203C163.195 152.266 163.999 153.068 163.999 154.058V191.193C163.999 192.183 163.195 192.985 162.203 192.985Z" fill="#D0DEF1" style="fill:#D0DEF1;fill:color(display-p3 0.8157 0.8706 0.9451);fill-opacity:1;"/>
<path d="M138.148 192.55C137.399 192.55 136.79 191.942 136.79 191.195V154.06C136.79 153.313 137.399 152.705 138.148 152.705H162.203C162.951 152.705 163.561 153.313 163.561 154.06V191.195C163.561 191.942 162.951 192.55 162.203 192.55H138.148Z" fill="#4BBEFF" style="fill:#4BBEFF;fill:color(display-p3 0.2941 0.7451 1.0000);fill-opacity:1;"/>
<path d="M140.045 191.502C138.829 191.502 137.841 190.515 137.841 189.302V171.875C137.841 170.662 138.829 169.676 140.045 169.676H160.308C161.524 169.676 162.512 170.662 162.512 171.875V189.302C162.512 190.515 161.524 191.502 160.308 191.502H140.045Z" fill="#D0DEF1" style="fill:#D0DEF1;fill:color(display-p3 0.8157 0.8706 0.9451);fill-opacity:1;"/>
<path d="M161.768 171.876V189.303C161.768 190.107 161.115 190.761 160.308 190.761H140.044C139.236 190.761 138.583 190.107 138.583 189.303V171.876C138.583 171.071 139.236 170.418 140.044 170.418H160.308C161.114 170.418 161.768 171.071 161.768 171.876Z" fill="#B1C8E7" style="fill:#B1C8E7;fill:color(display-p3 0.6941 0.7843 0.9059);fill-opacity:1;"/>
<path d="M161.769 171.876V189.303C161.769 190.107 161.115 190.761 160.308 190.761H146.969C146.162 190.761 145.508 190.107 145.508 189.303V171.876C145.508 171.071 146.162 170.418 146.969 170.418H160.308C161.115 170.418 161.769 171.071 161.769 171.876Z" fill="#4BBEFF" style="fill:#4BBEFF;fill:color(display-p3 0.2941 0.7451 1.0000);fill-opacity:1;"/>
<path d="M145.059 177.076H142.209C142.209 177.076 144.109 174.499 144.109 170.418H146.96C146.961 174.369 145.059 177.076 145.059 177.076Z" fill="#B1C8E7" style="fill:#B1C8E7;fill:color(display-p3 0.6941 0.7843 0.9059);fill-opacity:1;"/>
<path d="M144.747 177.076H141.896C141.896 177.076 143.797 174.499 143.797 170.418H146.648C146.648 174.369 144.747 177.076 144.747 177.076Z" fill="#F6F8FC" style="fill:#F6F8FC;fill:color(display-p3 0.9647 0.9725 0.9882);fill-opacity:1;"/>
<path d="M143.039 170.418V172.864C143.039 172.983 143.59 173.08 144.271 173.08C144.951 173.08 145.503 172.983 145.503 172.864V170.418H143.039Z" fill="#4BBEFF" style="fill:#4BBEFF;fill:color(display-p3 0.2941 0.7451 1.0000);fill-opacity:1;"/>
<path d="M145.505 172.061V172.864C145.505 172.983 144.953 173.08 144.273 173.08C143.592 173.08 143.041 172.983 143.041 172.864V172.061C143.041 172.18 143.592 172.277 144.273 172.277C144.952 172.277 145.505 172.181 145.505 172.061Z" fill="#B1C8E7" style="fill:#B1C8E7;fill:color(display-p3 0.6941 0.7843 0.9059);fill-opacity:1;"/>
<path d="M157.769 170.418C157.769 173.483 156.625 175.8 156.111 176.685C155.963 176.94 155.868 177.077 155.868 177.077H153.017C153.017 177.077 154.917 174.5 154.917 170.419L157.769 170.418Z" fill="#B1C8E7" style="fill:#B1C8E7;fill:color(display-p3 0.6941 0.7843 0.9059);fill-opacity:1;"/>
<path d="M157.455 170.418C157.455 173.483 156.311 175.8 155.798 176.685C155.65 176.94 155.555 177.077 155.555 177.077H152.704C152.704 177.077 152.803 176.942 152.957 176.685C153.474 175.819 154.604 173.566 154.604 170.418H157.455Z" fill="#F6F8FC" style="fill:#F6F8FC;fill:color(display-p3 0.9647 0.9725 0.9882);fill-opacity:1;"/>
<path d="M153.848 170.418V172.864C153.848 172.983 154.399 173.08 155.08 173.08C155.76 173.08 156.311 172.983 156.311 172.864V170.418H153.848Z" fill="#4BBEFF" style="fill:#4BBEFF;fill:color(display-p3 0.2941 0.7451 1.0000);fill-opacity:1;"/>
<path d="M156.313 172.061V172.864C156.313 172.983 155.762 173.08 155.081 173.08C154.401 173.08 153.85 172.983 153.85 172.864V172.061C153.85 172.18 154.401 172.277 155.081 172.277C155.762 172.277 156.313 172.181 156.313 172.061Z" fill="#F2B48F" style="fill:#F2B48F;fill:color(display-p3 0.9490 0.7059 0.5608);fill-opacity:1;"/>
<path d="M141.261 234.447H139.926C139.76 234.447 139.626 234.313 139.626 234.148V231.695H141.56V234.148C141.56 234.312 141.426 234.447 141.261 234.447Z" fill="#7D8599" style="fill:#7D8599;fill:color(display-p3 0.4902 0.5216 0.6000);fill-opacity:1;"/>
<path d="M140.784 234.447H139.449C139.283 234.447 139.148 234.313 139.148 234.148V231.695H141.083V234.148C141.083 234.312 140.949 234.447 140.784 234.447Z" fill="#4BBEFF" style="fill:#4BBEFF;fill:color(display-p3 0.2941 0.7451 1.0000);fill-opacity:1;"/>
<path d="M154.025 234.447H152.69C152.524 234.447 152.39 234.313 152.39 234.148V231.695H154.324V234.148C154.325 234.312 154.19 234.447 154.025 234.447Z" fill="#7D8599" style="fill:#7D8599;fill:color(display-p3 0.4902 0.5216 0.6000);fill-opacity:1;"/>
<path d="M153.547 234.447H152.212C152.046 234.447 151.912 234.313 151.912 234.148V231.695H153.846V234.148C153.846 234.312 153.712 234.447 153.547 234.447Z" fill="#7D8599" style="fill:#7D8599;fill:color(display-p3 0.4902 0.5216 0.6000);fill-opacity:1;"/>
<path d="M160.684 234.447H159.349C159.184 234.447 159.05 234.313 159.05 234.148V231.695H160.984V234.148C160.983 234.312 160.848 234.447 160.684 234.447Z" fill="#7D8599" style="fill:#7D8599;fill:color(display-p3 0.4902 0.5216 0.6000);fill-opacity:1;"/>
<path d="M160.205 234.447H158.87C158.705 234.447 158.57 234.313 158.57 234.148V231.695H160.505V234.148C160.506 234.312 160.371 234.447 160.205 234.447Z" fill="#4BBEFF" style="fill:#4BBEFF;fill:color(display-p3 0.2941 0.7451 1.0000);fill-opacity:1;"/>
<path d="M173.445 234.447H172.111C171.945 234.447 171.812 234.313 171.812 234.148V231.695H173.746V234.148C173.745 234.312 173.611 234.447 173.445 234.447Z" fill="#7D8599" style="fill:#7D8599;fill:color(display-p3 0.4902 0.5216 0.6000);fill-opacity:1;"/>
<path d="M172.968 234.447H171.633C171.468 234.447 171.334 234.313 171.334 234.148V231.695H173.268V234.148C173.267 234.312 173.134 234.447 172.968 234.447Z" fill="#7D8599" style="fill:#7D8599;fill:color(display-p3 0.4902 0.5216 0.6000);fill-opacity:1;"/>
<path d="M161.829 226.796H138.522C137.827 226.796 137.262 226.232 137.262 225.539V201.355C137.262 200.662 137.827 200.098 138.522 200.098H161.829C162.524 200.098 163.089 200.662 163.089 201.355V225.539C163.089 226.231 162.524 226.796 161.829 226.796ZM138.522 200.395C137.99 200.395 137.559 200.826 137.559 201.355V225.539C137.559 226.068 137.991 226.499 138.522 226.499H161.829C162.361 226.499 162.792 226.068 162.792 225.539V201.355C162.792 200.826 162.36 200.395 161.829 200.395H138.522Z" fill="#4BBEFF" style="fill:#4BBEFF;fill:color(display-p3 0.2941 0.7451 1.0000);fill-opacity:1;"/>
<path d="M141.136 204.381C141.136 205.327 140.621 206.095 139.986 206.095C139.351 206.095 138.836 205.327 138.836 204.381C138.836 203.434 139.351 202.666 139.986 202.666C140.621 202.666 141.136 203.434 141.136 204.381Z" fill="#4BBEFF" style="fill:#4BBEFF;fill:color(display-p3 0.2941 0.7451 1.0000);fill-opacity:1;"/>
<path d="M140.882 204.381C140.882 205.327 140.368 206.095 139.732 206.095C139.097 206.095 138.582 205.327 138.582 204.381C138.582 203.434 139.097 202.666 139.732 202.666C140.368 202.666 140.882 203.434 140.882 204.381Z" fill="#D1E1FB" style="fill:#D1E1FB;fill:color(display-p3 0.8196 0.8824 0.9843);fill-opacity:1;"/>
<path d="M155.111 156.702C155.111 157.359 154.682 157.892 154.154 157.892C153.626 157.892 153.198 157.359 153.198 156.702C153.198 156.045 153.626 155.512 154.154 155.512C154.682 155.512 155.111 156.045 155.111 156.702Z" fill="#B1C8E7" style="fill:#B1C8E7;fill:color(display-p3 0.6941 0.7843 0.9059);fill-opacity:1;"/>
<path d="M154.935 156.702C154.935 157.359 154.507 157.892 153.978 157.892C153.45 157.892 153.022 157.359 153.022 156.702C153.022 156.045 153.451 155.512 153.978 155.512C154.506 155.512 154.935 156.045 154.935 156.702Z" fill="white" style="fill:white;fill-opacity:1;"/>
<path d="M159.601 156.702C159.601 157.359 159.173 157.892 158.645 157.892C158.117 157.892 157.688 157.359 157.688 156.702C157.688 156.045 158.117 155.512 158.645 155.512C159.173 155.512 159.601 156.045 159.601 156.702Z" fill="#EC836E" style="fill:#EC836E;fill:color(display-p3 0.9255 0.5137 0.4314);fill-opacity:1;"/>
<path d="M159.424 156.702C159.424 157.359 158.996 157.892 158.467 157.892C157.939 157.892 157.511 157.359 157.511 156.702C157.511 156.045 157.939 155.512 158.467 155.512C158.996 155.512 159.424 156.045 159.424 156.702Z" fill="#F2B48F" style="fill:#F2B48F;fill:color(display-p3 0.9490 0.7059 0.5608);fill-opacity:1;"/>
<path d="M162.022 167.747H138.33C138.059 167.747 137.84 167.528 137.84 167.258V162.456C137.84 162.186 138.059 161.967 138.33 161.967H162.022C162.293 161.967 162.512 162.186 162.512 162.456V167.258C162.512 167.528 162.293 167.747 162.022 167.747Z" fill="#EFF3FC" style="fill:#EFF3FC;fill:color(display-p3 0.9373 0.9529 0.9882);fill-opacity:1;"/>
<path d="M138.329 167.378C138.265 167.378 138.212 167.325 138.212 167.26V162.457C138.212 162.393 138.265 162.34 138.329 162.34H162.022C162.088 162.34 162.14 162.393 162.14 162.457V167.26C162.14 167.326 162.088 167.378 162.022 167.378H138.329Z" fill="#4BBEFF" style="fill:#4BBEFF;fill:color(display-p3 0.2941 0.7451 1.0000);fill-opacity:1;"/>
<path d="M155.799 176.684C155.651 176.939 155.556 177.075 155.556 177.075H152.705C152.705 177.075 152.804 176.941 152.958 176.684H155.799Z" fill="#F2B48F" style="fill:#F2B48F;fill:color(display-p3 0.9490 0.7059 0.5608);fill-opacity:1;"/>
<path d="M156.113 176.684C155.965 176.939 155.869 177.075 155.869 177.075H155.557C155.557 177.075 155.652 176.94 155.8 176.684H156.113Z" fill="#EF9A78" style="fill:#EF9A78;fill:color(display-p3 0.9373 0.6039 0.4706);fill-opacity:1;"/>
<path d="M144.99 176.684C144.842 176.939 144.747 177.075 144.747 177.075H141.896C141.896 177.075 141.995 176.941 142.149 176.684H144.99Z" fill="#D0DEF1" style="fill:#D0DEF1;fill:color(display-p3 0.8157 0.8706 0.9451);fill-opacity:1;"/>
<path d="M145.304 176.684C145.155 176.939 145.06 177.075 145.06 177.075H144.747C144.747 177.075 144.842 176.94 144.991 176.684H145.304Z" fill="#B1C8E7" style="fill:#B1C8E7;fill:color(display-p3 0.6941 0.7843 0.9059);fill-opacity:1;"/>
<path d="M115.436 236.669L51.0231 236.631C43.276 236.627 36.9986 230.375 37 222.665L37.0317 61.9609C37.0331 54.2468 43.3194 47.9958 51.0712 48L115.485 48.0377C123.232 48.0424 129.509 54.2943 129.507 62.0037L129.476 222.709C129.474 230.423 123.187 236.674 115.436 236.669Z" fill="#263238" style="fill:#263238;fill:color(display-p3 0.1490 0.1961 0.2196);fill-opacity:1;"/>
<path d="M115.886 52.8288L103.355 52.7711C101.674 52.7636 100.305 54.1788 100.298 55.9319L100.289 58.2004C100.282 59.954 98.9126 61.3692 97.2325 61.3613L72.8051 61.2486C71.1249 61.2412 69.7681 59.813 69.7755 58.0598L69.7853 55.7914C69.7928 54.0378 68.4359 52.61 66.7553 52.6026L62.3479 52.5821L51.3795 52.5314C45.9324 52.5067 41.4965 56.8942 41.4737 62.3309L40.8048 220.184C40.7819 225.619 45.1753 230.043 50.6197 230.068L115.127 230.365C120.573 230.39 125.009 226.002 125.033 220.565L125.701 62.7113C125.724 57.2782 121.331 52.8539 115.886 52.8288Z" fill="#F5F5F5" style="fill:#F5F5F5;fill:color(display-p3 0.9608 0.9608 0.9608);fill-opacity:1;"/>
<path d="M88.5086 200.536C88.4349 202.442 88.3649 204.229 88.3066 205.715H97.5725L96.4381 200.035L88.5086 200.536Z" fill="#F5F5F5" style="fill:#F5F5F5;fill:color(display-p3 0.9608 0.9608 0.9608);fill-opacity:1;"/>
<path d="M50.8496 202.912L50.9303 205.715H87.3808C87.4423 204.141 87.5109 202.395 87.5804 200.594L50.8496 202.912Z" fill="#F5F5F5" style="fill:#F5F5F5;fill:color(display-p3 0.9608 0.9608 0.9608);fill-opacity:1;"/>
<path d="M96.9043 200.005L98.0443 205.714H115.127L114.922 198.867L96.9043 200.005Z" fill="#F5F5F5" style="fill:#F5F5F5;fill:color(display-p3 0.9608 0.9608 0.9608);fill-opacity:1;"/>
<path d="M89.4339 120.188L92.6644 101.497L84.2041 100.871V120.188H89.4339Z" fill="#EBEBEB" style="fill:#EBEBEB;fill:color(display-p3 0.9216 0.9216 0.9216);fill-opacity:1;"/>
<path d="M50.0874 192.535L40.9055 196.125L40.8779 202.617L50.3607 202.018L50.0874 192.535Z" fill="#F5F5F5" style="fill:#F5F5F5;fill:color(display-p3 0.9608 0.9608 0.9608);fill-opacity:1;"/>
<path d="M50.0465 191.077L49.5446 173.668L49.5376 173.669V167.529L41.0241 168.429L40.9131 194.637L50.0428 191.067L50.0465 191.077Z" fill="#EBEBEB" style="fill:#EBEBEB;fill:color(display-p3 0.9216 0.9216 0.9216);fill-opacity:1;"/>
<path d="M49.5372 153.824L41.0899 152.711L41.0293 167.038L49.5372 166.138V153.824Z" fill="#F5F5F5" style="fill:#F5F5F5;fill:color(display-p3 0.9608 0.9608 0.9608);fill-opacity:1;"/>
<path d="M112.496 167.787L112.14 172.776L102.164 173.85L102.936 177.797L114.261 176.945L114.091 171.284L114.995 167.535L112.496 167.787Z" fill="#F5F5F5" style="fill:#F5F5F5;fill:color(display-p3 0.9608 0.9608 0.9608);fill-opacity:1;"/>
<path d="M94.5156 178.43L102.472 177.831L100.739 168.971L93.7949 169.67L94.5156 178.43Z" fill="#F5F5F5" style="fill:#F5F5F5;fill:color(display-p3 0.9608 0.9608 0.9608);fill-opacity:1;"/>
<path d="M94.5908 179.351L95.1991 186.74L96.2779 196.873L96.7211 199.092L114.893 197.945L114.289 177.869L94.5908 179.351Z" fill="#EBEBEB" style="fill:#EBEBEB;fill:color(display-p3 0.9216 0.9216 0.9216);fill-opacity:1;"/>
<path d="M63.3151 144.469L64.0139 145.665L49.9991 153.823V173.174L64.79 172.129L93.2966 169.258L92.2527 156.573L65.0195 153.023L65.1991 151.65L92.1365 155.162L90.3701 133.694L63.7079 136.252L63.6193 135.333L90.2941 132.774L89.3724 121.572H63.7261L41.2034 125.663L41.0947 151.315L49.6227 152.438L63.3151 144.469ZM51.4344 171.327C51.4344 171.327 51.5402 155.37 51.4344 154.774L62.8697 148.703L64.352 170.511L51.4344 171.327Z" fill="#F5F5F5" style="fill:#F5F5F5;fill:color(display-p3 0.9608 0.9608 0.9608);fill-opacity:1;"/>
<path d="M111.563 167.881L101.202 168.925L101.988 172.941L111.274 171.941L111.563 167.881Z" fill="#F5F5F5" style="fill:#F5F5F5;fill:color(display-p3 0.9608 0.9608 0.9608);fill-opacity:1;"/>
<path d="M88.6405 197.115C88.6084 197.953 88.5762 198.788 88.5449 199.607L96.2566 199.12L95.8601 197.135L88.6405 197.115Z" fill="#F5F5F5" style="fill:#F5F5F5;fill:color(display-p3 0.9608 0.9608 0.9608);fill-opacity:1;"/>
<path d="M72.0297 120.189L73.3899 114.042H83.7415V100.838L51.3691 98.4453V110.843L41.258 113.125L41.2109 124.256L63.6025 120.189H72.0297Z" fill="#EBEBEB" style="fill:#EBEBEB;fill:color(display-p3 0.9216 0.9216 0.9216);fill-opacity:1;"/>
<path d="M93.6312 83.4486L93.355 82.3174L105.717 77.4351L97.6761 61.3263C97.5306 61.3477 97.3832 61.3626 97.2321 61.3617L83.5713 61.2988L83.9431 83.8443L93.6312 83.4486Z" fill="#F5F5F5" style="fill:#F5F5F5;fill:color(display-p3 0.9608 0.9608 0.9608);fill-opacity:1;"/>
<path d="M112.365 74.8096L112.35 52.8129L103.354 52.7715C101.673 52.7641 100.304 54.1792 100.297 55.9319L100.288 58.2008C100.283 59.2827 99.7597 60.2352 98.9648 60.8045L107.011 76.9239L112.365 74.8096Z" fill="#EBEBEB" style="fill:#EBEBEB;fill:color(display-p3 0.9216 0.9216 0.9216);fill-opacity:1;"/>
<path d="M65.8936 75.7534L64.8511 52.5939L62.3472 52.5823L52.5696 52.5371L48.4043 73.2475L65.8936 75.7534ZM63.6649 54.941L63.998 73.8015L51.0019 71.9035L53.8482 54.941H63.6649Z" fill="#F5F5F5" style="fill:#F5F5F5;fill:color(display-p3 0.9608 0.9608 0.9608);fill-opacity:1;"/>
<path d="M66.3658 75.8208L66.3681 76.0182C66.3905 77.8253 66.4279 81.0779 66.4549 84.5572L83.481 83.8626L83.1088 61.2962L72.8051 61.2487C71.1245 61.2413 69.7681 59.8136 69.7755 58.0599L69.7853 55.7915C69.7928 54.0379 68.4359 52.6101 66.7553 52.6027L65.3145 52.5957L66.3598 75.8199L66.3658 75.8208Z" fill="#F5F5F5" style="fill:#F5F5F5;fill:color(display-p3 0.9608 0.9608 0.9608);fill-opacity:1;"/>
<path d="M47.0293 73.0494L51.1541 52.541C45.811 52.6369 41.4955 56.9695 41.4731 62.3304L41.4297 72.5541L41.4731 72.2534L47.0293 73.0494Z" fill="#F5F5F5" style="fill:#F5F5F5;fill:color(display-p3 0.9608 0.9608 0.9608);fill-opacity:1;"/>
<path d="M49.9819 98.3413L41.3229 97.7012L41.2637 111.703L49.9819 109.736V98.3413Z" fill="#F5F5F5" style="fill:#F5F5F5;fill:color(display-p3 0.9608 0.9608 0.9608);fill-opacity:1;"/>
<path d="M46.9383 73.5024L41.4291 72.7129L41.333 95.3883L42.5187 95.4763L46.9383 73.5024Z" fill="#F5F5F5" style="fill:#F5F5F5;fill:color(display-p3 0.9608 0.9608 0.9608);fill-opacity:1;"/>
<path d="M64.4278 190.812L64.5733 172.607L50.0059 173.636L50.5199 191.471L64.4278 190.812Z" fill="#F5F5F5" style="fill:#F5F5F5;fill:color(display-p3 0.9608 0.9608 0.9608);fill-opacity:1;"/>
<path d="M67.1085 186.611L87.74 196.474C87.9858 190.028 88.2055 184.001 88.185 183.617L88.6323 183.593L88.8506 183.158C89.144 183.305 89.144 183.305 88.9901 187.699C88.9043 190.151 88.7825 193.413 88.658 196.677H95.7932L94.7399 186.784L93.3359 169.719L66.3799 172.434L67.1085 186.611Z" fill="#F5F5F5" style="fill:#F5F5F5;fill:color(display-p3 0.9608 0.9608 0.9608);fill-opacity:1;"/>
<path d="M117.679 156.396L117.447 153.996L92.7168 156.563L93.7574 169.211L115.11 167.06L117.679 156.396Z" fill="#F5F5F5" style="fill:#F5F5F5;fill:color(display-p3 0.9608 0.9608 0.9608);fill-opacity:1;"/>
<path d="M83.742 115.426H74.5044L73.4502 120.189H83.742V115.426Z" fill="#F5F5F5" style="fill:#F5F5F5;fill:color(display-p3 0.9608 0.9608 0.9608);fill-opacity:1;"/>
<path d="M113.861 117.033L90.7254 115.436L89.7822 120.891L90.7562 132.73L115.157 130.388L113.861 117.033ZM91.5762 120.881L92.8178 117.438L112.913 118.706L114.076 128.555L92.2558 131.137L91.5762 120.881Z" fill="#F5F5F5" style="fill:#F5F5F5;fill:color(display-p3 0.9608 0.9608 0.9608);fill-opacity:1;"/>
<path d="M116.261 141.778L115.245 131.307L90.8311 133.65L91.7481 144.793L116.261 141.778Z" fill="#F5F5F5" style="fill:#F5F5F5;fill:color(display-p3 0.9608 0.9608 0.9608);fill-opacity:1;"/>
<path d="M50.3877 202.942L40.9161 203.539L40.8769 202.924L40.8652 205.715H50.4679L50.3877 202.942Z" fill="#F5F5F5" style="fill:#F5F5F5;fill:color(display-p3 0.9608 0.9608 0.9608);fill-opacity:1;"/>
<path d="M125.531 69.6089L125.671 69.9604L125.701 62.7109C125.724 57.2774 121.331 52.8536 115.886 52.8284L112.813 52.8145L112.827 74.6263L125.531 69.6089Z" fill="#EBEBEB" style="fill:#EBEBEB;fill:color(display-p3 0.9216 0.9216 0.9216);fill-opacity:1;"/>
<path d="M87.72 196.976L66.66 186.907L65.9179 172.479L65.0358 172.567L64.8866 191.251L50.5332 191.931L50.5453 192.347L50.5486 192.356L50.5458 192.357L50.8233 201.989L87.617 199.666C87.651 198.773 87.686 197.872 87.72 196.976ZM51.4344 193.119L71.525 191.711L84.5963 197.764L51.4348 199.555L51.4344 193.119Z" fill="#F5F5F5" style="fill:#F5F5F5;fill:color(display-p3 0.9608 0.9608 0.9608);fill-opacity:1;"/>
<path d="M119.545 93.8337L120.407 88.7335C112.855 86.0437 112.332 78.1839 112.355 75.8047L107.425 77.7519L114.847 92.622L119.545 93.8337Z" fill="#F5F5F5" style="fill:#F5F5F5;fill:color(display-p3 0.9608 0.9608 0.9608);fill-opacity:1;"/>
<path d="M92.6025 155.185L102.87 154.118L100.847 145.068L91.8613 146.174L92.6025 155.185Z" fill="#F5F5F5" style="fill:#F5F5F5;fill:color(display-p3 0.9608 0.9608 0.9608);fill-opacity:1;"/>
<path d="M114.753 102.709L95.575 102.706L93.9835 102.588L91.8174 115.121L114.581 116.693L114.052 111.243L116.293 103.194L114.753 102.709Z" fill="#F5F5F5" style="fill:#F5F5F5;fill:color(display-p3 0.9608 0.9608 0.9608);fill-opacity:1;"/>
<path d="M113.428 99.3457L113.667 93.3632L106.13 78.2637L94.4434 82.8797L98.4608 99.3457H113.428ZM105.675 80.1006L112.582 93.2138L111.584 97.3002L99.7669 96.8561L96.8124 84.4527L105.675 80.1006Z" fill="#F5F5F5" style="fill:#F5F5F5;fill:color(display-p3 0.9608 0.9608 0.9608);fill-opacity:1;"/>
<path d="M116.412 171.525L116.765 183.275L125.074 182.808L125.1 183.268L116.779 183.736L117.202 197.799L125.058 197.303L125.116 198.224L117.23 198.722L117.44 205.715H125.096L125.262 166.502L117.432 167.291L116.412 171.525Z" fill="#F5F5F5" style="fill:#F5F5F5;fill:color(display-p3 0.9608 0.9608 0.9608);fill-opacity:1;"/>
<path d="M65.9082 76.22L48.3135 73.6992L43.9131 95.5785L65.9861 97.2106C66.0743 93.8421 65.9968 83.5095 65.9082 76.22Z" fill="#EBEBEB" style="fill:#EBEBEB;fill:color(display-p3 0.9216 0.9216 0.9216);fill-opacity:1;"/>
<path d="M94.8472 99.3461H97.5097L93.7422 83.9062L83.9502 84.3057L84.1848 98.558L94.8472 99.3461Z" fill="#F5F5F5" style="fill:#F5F5F5;fill:color(display-p3 0.9608 0.9608 0.9608);fill-opacity:1;"/>
<path d="M40.8182 216.947L40.8047 220.185C40.8042 220.285 40.8159 220.382 40.8182 220.481V216.947Z" fill="#F5F5F5" style="fill:#F5F5F5;fill:color(display-p3 0.9608 0.9608 0.9608);fill-opacity:1;"/>
<path d="M66.4355 97.2454L83.7213 98.5233L83.4873 84.3242L66.4575 85.0188C66.4929 89.8206 66.5074 94.9425 66.4355 97.2454Z" fill="#F5F5F5" style="fill:#F5F5F5;fill:color(display-p3 0.9608 0.9608 0.9608);fill-opacity:1;"/>
<path d="M116.394 143.156L101.308 145.012L103.333 154.07L117.312 152.619L116.394 143.156Z" fill="#F5F5F5" style="fill:#F5F5F5;fill:color(display-p3 0.9608 0.9608 0.9608);fill-opacity:1;"/>
<path d="M120.485 88.2714L121.451 82.5479L125.615 82.8714L125.667 70.5469L112.822 75.6205C112.56 84.2927 118.019 87.3423 120.485 88.2714Z" fill="#EBEBEB" style="fill:#EBEBEB;fill:color(display-p3 0.9216 0.9216 0.9216);fill-opacity:1;"/>
<path d="M115.539 110.391L116.063 115.797L125.474 116.447L125.521 105.315L117.643 102.832L115.539 110.391Z" fill="#F5F5F5" style="fill:#F5F5F5;fill:color(display-p3 0.9608 0.9608 0.9608);fill-opacity:1;"/>
<path d="M120.017 156.56L117.546 166.816L125.263 166.039L125.309 155.284C122.94 154.662 120.874 154.155 119.763 153.941L120.017 156.56Z" fill="#F5F5F5" style="fill:#F5F5F5;fill:color(display-p3 0.9608 0.9608 0.9608);fill-opacity:1;"/>
<path d="M114.809 99.5193L125.531 102.899L125.557 96.8128L115.026 94.0977L114.809 99.5193Z" fill="#F5F5F5" style="fill:#F5F5F5;fill:color(display-p3 0.9608 0.9608 0.9608);fill-opacity:1;"/>
<path d="M119.626 152.532C120.491 152.661 122.128 153.009 125.315 153.845L125.414 130.33L117.546 131.085L119.626 152.532Z" fill="#F5F5F5" style="fill:#F5F5F5;fill:color(display-p3 0.9608 0.9608 0.9608);fill-opacity:1;"/>
<path d="M117.458 130.168L125.419 129.403L125.468 117.835L116.199 117.195L117.458 130.168Z" fill="#F5F5F5" style="fill:#F5F5F5;fill:color(display-p3 0.9608 0.9608 0.9608);fill-opacity:1;"/>
<path d="M121.373 88.5627C122.882 89.0207 124.286 89.375 125.587 89.6352L125.612 83.7966L122.222 83.5332L121.373 88.5627Z" fill="#F5F5F5" style="fill:#F5F5F5;fill:color(display-p3 0.9608 0.9608 0.9608);fill-opacity:1;"/>
<path d="M85.8633 90.9159L90.9816 92.2361L91.0039 86.9599C89.6797 86.6955 88.251 86.3357 86.715 85.8711L85.8633 90.9159Z" fill="#F5F5F5" style="fill:#F5F5F5;fill:color(display-p3 0.9608 0.9608 0.9608);fill-opacity:1;"/>
<path d="M125.116 198.224L125.057 197.302L117.201 197.799L116.778 183.735L125.099 183.268L125.073 182.807L116.764 183.274L116.411 171.524L117.431 167.29L125.261 166.501L125.263 166.038L117.546 166.815L120.017 156.559L119.763 153.94C120.874 154.154 122.94 154.661 125.309 155.283L125.315 153.845C122.128 153.009 120.491 152.662 119.626 152.532L117.546 131.086L125.415 130.331L125.418 129.403L117.457 130.167L116.198 117.194L125.467 117.834L125.473 116.447L116.063 115.797L115.538 110.391L117.642 102.833L125.52 105.316L125.53 102.9L114.808 99.5204L115.025 94.0987L125.556 96.8143L125.562 95.3866L120.444 94.0666L121.296 89.0218C122.832 89.4863 124.261 89.8457 125.585 90.1106L125.587 89.6358C124.286 89.3756 122.882 89.0213 121.373 88.5632L122.222 83.5338L125.611 83.7973L125.615 82.8718L121.451 82.5483L120.485 88.2718C118.019 87.3431 112.56 84.293 112.822 75.6209L125.668 70.5472L125.67 69.9607L125.531 69.6092L112.827 74.6266L112.813 52.8148L112.351 52.8124L112.365 74.8091L107.011 76.9239L98.9649 60.8044C98.5875 61.0749 98.149 61.256 97.6756 61.3263L105.716 77.435L93.3545 82.3174L93.6306 83.4486L83.9426 83.8438L83.571 61.2983L83.1083 61.296L83.4805 83.8624L66.4544 84.557C66.4274 81.0782 66.3901 77.8251 66.3677 76.018L66.3653 75.8206L66.3593 75.8197L65.314 52.5955L64.8513 52.5936L65.8938 75.7531L48.405 73.2472L52.5703 52.5369L51.3795 52.5313C51.3039 52.5308 51.2302 52.5401 51.1546 52.5415L47.0299 73.0499L41.4736 72.2538L41.4302 72.5546L41.4298 72.7138L46.9389 73.5033L42.5194 95.4764L41.3332 95.3889L41.3234 97.7016L49.9825 98.3417V109.736L41.2642 111.704L41.2581 113.125L51.3697 110.842V98.4446L83.742 100.838V114.042H73.3904L72.0303 120.189H63.6031L41.2115 124.256L41.2054 125.664L63.7281 121.573H89.3743L90.296 132.775L63.6213 135.334L63.7099 136.253L90.372 133.695L92.1385 155.163L65.2011 151.651L65.0215 153.024L92.2546 156.574L93.2985 169.259L64.792 172.13L50.0011 173.175V153.824L64.0159 145.666L63.3171 144.47L49.6256 152.439L41.0977 151.316L41.0916 152.712L49.5384 153.825V166.139L41.0305 167.038L41.0249 168.43L49.5384 167.531V173.67L49.5454 173.669L50.0473 191.078L50.044 191.069L40.9139 194.639L40.9078 196.128L50.0898 192.538L50.3631 202.02L40.8803 202.619L40.8789 202.926L40.9176 203.541L50.3897 202.943L50.4694 205.717H50.9321L50.8515 202.914L87.5827 200.595C87.5127 202.396 87.4446 204.143 87.3831 205.717H88.3085C88.3668 204.231 88.4368 202.443 88.5105 200.537L96.44 200.036L97.5744 205.717H98.0455L96.9055 200.007L114.923 198.87L115.129 205.717H117.441M88.544 199.608C88.5758 198.788 88.608 197.954 88.6397 197.116L95.8593 197.135L96.2558 199.12L88.544 199.608ZM96.7213 199.091L96.2781 196.873L95.1993 186.739L94.5915 179.35L114.29 177.868L114.893 197.944L96.7213 199.091ZM101.201 168.925L111.562 167.881L111.273 171.941L101.986 172.941L101.201 168.925ZM100.739 168.971L102.473 177.832L94.5159 178.431L93.7953 169.671L100.739 168.971ZM114.261 176.945L102.936 177.797L102.164 173.85L112.14 172.776L112.496 167.788L114.995 167.536L114.091 171.285L114.261 176.945ZM100.847 145.068L102.87 154.118L92.6026 155.184L91.8614 146.173L100.847 145.068ZM103.334 154.07L101.308 145.011L116.395 143.156L117.313 152.618L103.334 154.07ZM113.725 115.636L90.9612 114.064L93.1273 101.531L94.7188 101.649L113.897 101.652L115.437 102.138L113.196 110.187L113.725 115.636ZM112.355 75.8053C112.332 78.1845 112.855 86.0443 120.407 88.7341L119.545 93.8343L114.847 92.6225L107.424 77.7525L112.355 75.8053ZM106.13 78.2637L113.668 93.3632L113.428 99.3453H98.4616L94.4441 82.8797L106.13 78.2637ZM93.7421 83.9053L97.5096 99.3449H94.8476L84.1851 98.5568L83.9501 84.3047L93.7421 83.9053ZM83.488 84.3238L83.722 98.5228L66.4362 97.2449C66.5085 94.942 66.4941 89.8201 66.4582 85.0183L83.488 84.3238ZM48.3131 73.7002L65.9078 76.221C65.9964 83.5105 66.0734 93.8431 65.9852 97.2114L43.9122 95.5793L48.3131 73.7002ZM92.6641 101.497L89.4336 120.188H84.2038V100.871L92.6641 101.497ZM74.5038 115.425H83.7416V120.187H73.4501L74.5038 115.425ZM89.7811 120.89L90.7242 115.435L113.86 117.033L115.156 130.388L90.7555 132.729L89.7811 120.89ZM115.245 131.306L116.261 141.778L91.748 144.793L90.831 133.65L115.245 131.306ZM92.7164 156.563L117.446 153.996L117.679 156.396L115.109 167.06L93.7566 169.211L92.7164 156.563ZM94.7389 186.783L95.7921 196.675H88.6569C88.7815 193.411 88.9032 190.149 88.989 187.697C89.143 183.303 89.143 183.303 88.8496 183.157L88.6313 183.591L88.184 183.615C88.2045 183.999 87.9848 190.027 87.739 196.473L67.1075 186.609L66.3784 172.432L93.3344 169.717L94.7389 186.783ZM64.5733 172.606L64.4277 190.811L50.5198 191.469L50.0058 173.634L64.5733 172.606ZM50.5455 192.356L50.5483 192.355L50.545 192.347L50.5329 191.93L64.8863 191.251L65.0355 172.567L65.9176 172.478L66.6597 186.907L87.7194 196.976C87.6853 197.872 87.6503 198.773 87.6163 199.666L50.823 201.989L50.5455 192.356Z" fill="white" style="fill:white;fill-opacity:1;"/>
<path d="M71.5252 191.711L51.4346 193.118V199.554L84.5957 197.763L71.5252 191.711Z" fill="#E0E0E0" style="fill:#E0E0E0;fill:color(display-p3 0.8784 0.8784 0.8784);fill-opacity:1;"/>
<path d="M112.914 118.706L92.8178 117.438L91.5762 120.88L92.2562 131.137L114.076 128.555L112.914 118.706Z" fill="#E0E0E0" style="fill:#E0E0E0;fill:color(display-p3 0.8784 0.8784 0.8784);fill-opacity:1;"/>
<path d="M64.392 75.005L64.0585 56.1445H54.2417L51.3955 73.107L64.392 75.005Z" fill="#E0E0E0" style="fill:#E0E0E0;fill:color(display-p3 0.8784 0.8784 0.8784);fill-opacity:1;"/>
<path d="M111.584 97.2995L112.581 93.2128L105.675 80.0996L96.8115 84.4522L99.766 96.8554L111.584 97.2995Z" fill="#EBEBEB" style="fill:#EBEBEB;fill:color(display-p3 0.9216 0.9216 0.9216);fill-opacity:1;"/>
<path d="M115.707 68.931C115.707 67.0112 113.969 65.4964 111.977 65.8693C110.724 66.1039 109.726 67.1248 109.506 68.3779C109.369 69.1614 109.531 69.8983 109.889 70.5063H109.888L109.896 70.5179C110.016 70.7195 110.167 70.8633 110.318 71.0751L112.133 73.4735C112.358 73.7719 112.808 73.7719 113.033 73.4735L114.817 71.1147C114.817 71.1147 115.15 70.7186 115.271 70.5147L115.278 70.5063H115.276C115.548 70.044 115.707 69.5068 115.707 68.931ZM112.583 70.2889C111.823 70.2889 111.208 69.6744 111.208 68.9165C111.208 68.1587 111.823 67.5442 112.583 67.5442C113.342 67.5442 113.958 68.1587 113.958 68.9165C113.958 69.6744 113.342 70.2889 112.583 70.2889Z" fill="#4BBEFF" style="fill:#4BBEFF;fill:color(display-p3 0.2941 0.7451 1.0000);fill-opacity:1;"/>
<path d="M116.398 230.364H49.9148C44.8838 230.364 40.8047 226.294 40.8047 221.273V199.607H125.262V221.517C125.262 226.404 121.293 230.364 116.398 230.364Z" fill="#4BBEFF" style="fill:#4BBEFF;fill:color(display-p3 0.2941 0.7451 1.0000);fill-opacity:1;"/>
<path d="M61.2617 216.801V210.182H62.7966V215.553H66.1223V216.801H61.2617ZM69.2827 216.877C68.7395 216.877 68.2563 216.763 67.8331 216.537C67.4162 216.31 67.0846 216.001 66.8382 215.61C66.5982 215.213 66.4782 214.762 66.4782 214.258C66.4782 213.747 66.5982 213.296 66.8382 212.905C67.0846 212.508 67.4162 212.2 67.8331 211.979C68.2563 211.752 68.7395 211.639 69.2827 211.639C69.8196 211.639 70.2997 211.752 70.7229 211.979C71.1461 212.2 71.4778 212.505 71.7178 212.896C71.9578 213.287 72.0778 213.741 72.0778 214.258C72.0778 214.762 71.9578 215.213 71.7178 215.61C71.4778 216.001 71.1461 216.31 70.7229 216.537C70.2997 216.763 69.8196 216.877 69.2827 216.877ZM69.2827 215.667C69.5291 215.667 69.7501 215.61 69.946 215.496C70.1418 215.383 70.2965 215.222 70.4103 215.014C70.5239 214.8 70.5808 214.548 70.5808 214.258C70.5808 213.961 70.5239 213.709 70.4103 213.501C70.2965 213.293 70.1418 213.132 69.946 213.019C69.7501 212.905 69.5291 212.849 69.2827 212.849C69.0364 212.849 68.8153 212.905 68.6195 213.019C68.4237 213.132 68.2658 213.293 68.1458 213.501C68.032 213.709 67.9752 213.961 67.9752 214.258C67.9752 214.548 68.032 214.8 68.1458 215.014C68.2658 215.222 68.4237 215.383 68.6195 215.496C68.8153 215.61 69.0364 215.667 69.2827 215.667ZM75.5292 216.877C74.9797 216.877 74.4901 216.767 74.0606 216.546C73.6311 216.319 73.2931 216.007 73.0468 215.61C72.8068 215.213 72.6868 214.762 72.6868 214.258C72.6868 213.747 72.8068 213.296 73.0468 212.905C73.2931 212.508 73.6311 212.2 74.0606 211.979C74.4901 211.752 74.9797 211.639 75.5292 211.639C76.0662 211.639 76.5336 211.752 76.9315 211.979C77.3294 212.2 77.6231 212.518 77.8127 212.934L76.6662 213.549C76.5336 213.309 76.3662 213.132 76.1641 213.019C75.9682 212.905 75.7534 212.849 75.5198 212.849C75.2671 212.849 75.0397 212.905 74.8375 213.019C74.6354 213.132 74.4744 213.293 74.3544 213.501C74.2406 213.709 74.1838 213.961 74.1838 214.258C74.1838 214.554 74.2406 214.806 74.3544 215.014C74.4744 215.222 74.6354 215.383 74.8375 215.496C75.0397 215.61 75.2671 215.667 75.5198 215.667C75.7534 215.667 75.9682 215.613 76.1641 215.506C76.3662 215.392 76.5336 215.213 76.6662 214.967L77.8127 215.591C77.6231 216.001 77.3294 216.319 76.9315 216.546C76.5336 216.767 76.0662 216.877 75.5292 216.877ZM81.7904 216.801V215.809L81.6956 215.591V213.813C81.6956 213.498 81.5977 213.252 81.4019 213.076C81.2124 212.899 80.9187 212.811 80.5207 212.811C80.2491 212.811 79.9807 212.855 79.7154 212.943C79.4564 213.025 79.2354 213.139 79.0521 213.284L78.5216 212.253C78.7995 212.058 79.1343 211.906 79.5259 211.799C79.9175 211.692 80.3154 211.639 80.7197 211.639C81.4967 211.639 82.0999 211.821 82.5294 212.187C82.9589 212.552 83.1737 213.123 83.1737 213.898V216.801H81.7904ZM80.2365 216.877C79.8386 216.877 79.4974 216.811 79.2132 216.678C78.929 216.54 78.7111 216.354 78.5595 216.121C78.4079 215.887 78.3321 215.626 78.3321 215.336C78.3321 215.033 78.4047 214.768 78.55 214.542C78.7016 214.314 78.9385 214.138 79.2606 214.012C79.5828 213.88 80.0028 213.813 80.5207 213.813H81.8757V214.674H80.6818C80.3344 214.674 80.0944 214.731 79.9617 214.844C79.8354 214.957 79.7722 215.099 79.7722 215.27C79.7722 215.459 79.8449 215.61 79.9902 215.723C80.1417 215.831 80.347 215.884 80.606 215.884C80.8524 215.884 81.0735 215.827 81.2693 215.714C81.4651 215.594 81.6072 215.421 81.6956 215.194L81.923 215.875C81.8156 216.202 81.6198 216.452 81.3356 216.621C81.0514 216.792 80.685 216.877 80.2365 216.877ZM86.5961 216.877C85.9957 216.877 85.5284 216.726 85.1935 216.423C84.859 216.114 84.6916 215.657 84.6916 215.052V210.589H86.1697V215.033C86.1697 215.247 86.2262 215.414 86.34 215.534C86.4538 215.648 86.6086 215.704 86.8046 215.704C87.0382 215.704 87.2369 215.642 87.4011 215.515L87.799 216.555C87.6474 216.662 87.4646 216.744 87.2495 216.801C87.041 216.852 86.8232 216.877 86.5961 216.877ZM83.9051 212.962V211.828H87.4389V212.962H83.9051ZM88.6288 216.801V211.714H90.107V216.801H88.6288ZM89.3681 211.005C89.0962 211.005 88.8751 210.926 88.7048 210.768C88.5341 210.611 88.4488 210.415 88.4488 210.182C88.4488 209.949 88.5341 209.753 88.7048 209.596C88.8751 209.438 89.0962 209.359 89.3681 209.359C89.6396 209.359 89.8607 209.435 90.0309 209.587C90.2017 209.731 90.287 209.92 90.287 210.154C90.287 210.4 90.2017 210.605 90.0309 210.768C89.8668 210.926 89.6457 211.005 89.3681 211.005ZM94.5769 211.639C94.9813 211.639 95.3414 211.72 95.6572 211.884C95.9795 212.042 96.2318 212.287 96.4151 212.622C96.5985 212.949 96.6899 213.372 96.6899 213.889V216.801H95.2117V214.116C95.2117 213.706 95.1203 213.403 94.937 213.208C94.7602 213.013 94.5074 212.915 94.179 212.915C93.9453 212.915 93.7336 212.965 93.5442 213.066C93.3609 213.161 93.2158 213.309 93.1085 213.51C93.0073 213.712 92.9569 213.971 92.9569 214.286V216.801H91.4788V211.714H92.8907V213.123L92.6253 212.698C92.8081 212.357 93.0703 212.095 93.4117 211.913C93.7527 211.73 94.1412 211.639 94.5769 211.639ZM100.464 218.712C99.9839 218.712 99.5193 218.652 99.0711 218.532C98.6289 218.418 98.2595 218.245 97.9623 218.011L98.5501 216.952C98.7646 217.129 99.0361 217.268 99.3649 217.369C99.6994 217.476 100.028 217.529 100.35 217.529C100.874 217.529 101.254 217.413 101.487 217.18C101.727 216.946 101.847 216.6 101.847 216.139V215.373L101.942 214.097L101.923 212.811V211.714H103.325V215.95C103.325 216.896 103.079 217.593 102.586 218.04C102.094 218.488 101.386 218.712 100.464 218.712ZM100.236 216.555C99.7628 216.555 99.3332 216.455 98.9479 216.253C98.5687 216.045 98.2627 215.758 98.0286 215.392C97.8014 215.021 97.6876 214.589 97.6876 214.097C97.6876 213.599 97.8014 213.167 98.0286 212.801C98.2627 212.429 98.5687 212.143 98.9479 211.941C99.3332 211.739 99.7628 211.639 100.236 211.639C100.666 211.639 101.045 211.727 101.373 211.903C101.702 212.073 101.958 212.341 102.141 212.707C102.324 213.066 102.415 213.529 102.415 214.097C102.415 214.658 102.324 215.121 102.141 215.487C101.958 215.846 101.702 216.114 101.373 216.29C101.045 216.467 100.666 216.555 100.236 216.555ZM100.53 215.345C100.789 215.345 101.02 215.295 101.222 215.194C101.424 215.087 101.582 214.939 101.696 214.749C101.809 214.56 101.866 214.343 101.866 214.097C101.866 213.845 101.809 213.627 101.696 213.444C101.582 213.255 101.424 213.111 101.222 213.009C101.02 212.902 100.789 212.849 100.53 212.849C100.271 212.849 100.041 212.902 99.8384 213.009C99.6364 213.111 99.4755 213.255 99.3551 213.444C99.2418 213.627 99.1849 213.845 99.1849 214.097C99.1849 214.343 99.2418 214.56 99.3551 214.749C99.4755 214.939 99.6364 215.087 99.8384 215.194C100.041 215.295 100.271 215.345 100.53 215.345Z" fill="white" style="fill:white;fill-opacity:1;"/>
<path d="M50 173.174L93.7579 169.212L90.8319 133.65L89.3029 120.981L84.2047 121.183L84.1823 99.6905L112.583 100.872L113.21 91.7594L106.321 77.691L112.583 75.2168" stroke="#4BBEFF" style="stroke:#4BBEFF;stroke:color(display-p3 0.2941 0.7451 1.0000);stroke-opacity:1;" stroke-width="2" stroke-miterlimit="10"/>
<path d="M53.8486 165.26C53.8486 162.896 51.7076 161.03 49.2546 161.49C47.7116 161.779 46.4825 163.036 46.212 164.58C46.0432 165.544 46.2428 166.451 46.6836 167.2H46.6812L46.692 167.215C46.8394 167.463 47.0245 167.64 47.2111 167.901L49.4454 170.855C49.7234 171.222 50.2766 171.222 50.5546 170.855L52.7515 167.95C52.7515 167.95 53.1615 167.462 53.3103 167.211L53.3183 167.2H53.3169C53.6527 166.631 53.8486 165.969 53.8486 165.26ZM50.0005 166.932C49.0652 166.932 48.3068 166.176 48.3068 165.242C48.3068 164.309 49.0648 163.552 50.0005 163.552C50.9357 163.552 51.6941 164.309 51.6941 165.242C51.6941 166.176 50.9357 166.932 50.0005 166.932Z" fill="#4BBEFF" style="fill:#4BBEFF;fill:color(display-p3 0.2941 0.7451 1.0000);fill-opacity:1;"/>
<path d="M50.8964 173.173C50.8964 173.667 50.4948 174.069 49.999 174.069C49.5036 174.069 49.1016 173.668 49.1016 173.173C49.1016 172.679 49.5032 172.277 49.999 172.277C50.4948 172.277 50.8964 172.678 50.8964 173.173Z" fill="#4BBEFF" style="fill:#4BBEFF;fill:color(display-p3 0.2941 0.7451 1.0000);fill-opacity:1;"/>
<path d="M112.674 75.9525C113.081 75.9525 113.411 75.6235 113.411 75.2175C113.411 74.8115 113.081 74.4824 112.674 74.4824C112.267 74.4824 111.938 74.8115 111.938 75.2175C111.938 75.6235 112.267 75.9525 112.674 75.9525Z" fill="#4BBEFF" style="fill:#4BBEFF;fill:color(display-p3 0.2941 0.7451 1.0000);fill-opacity:1;"/>
<path d="M93.1461 78.5449H56.069C55.2415 78.5449 54.5703 79.2148 54.5703 80.0406V91.4993C54.5703 92.3252 55.2415 92.995 56.069 92.995H83.5719L83.8247 96.4472L88.9877 92.995H93.1461C93.9736 92.995 94.6448 92.3252 94.6448 91.4993V80.0406C94.6448 79.2143 93.974 78.5449 93.1461 78.5449Z" fill="white" style="fill:white;fill-opacity:1;"/>
<path d="M93.1461 78.5451C93.1461 78.5451 93.2711 78.5264 93.508 78.5763C93.7384 78.627 94.1004 78.7713 94.3868 79.1563C94.5295 79.3453 94.6359 79.5985 94.6709 79.8899C94.6881 80.1832 94.6792 80.4923 94.6848 80.8331C94.6886 81.5137 94.6928 82.2962 94.697 83.1746C94.703 84.9375 94.7105 87.0859 94.7194 89.5713C94.7208 90.1932 94.7226 90.8361 94.7245 91.4995C94.7399 92.2043 94.2035 92.9058 93.4595 93.0483C93.0817 93.1078 92.7393 93.0692 92.3732 93.0818C92.0112 93.0827 91.6441 93.0832 91.2728 93.0841C90.5298 93.0855 89.7676 93.0869 88.9877 93.0883L89.04 93.0725C87.4261 94.1553 85.696 95.3157 83.8825 96.5331L83.7346 96.6322L83.7216 96.4549C83.6413 95.3791 83.5541 94.2041 83.4646 93.0031L83.5718 93.1027C76.0691 93.1069 67.3989 93.1116 58.2053 93.1162C57.7272 93.1162 57.2505 93.1162 56.7752 93.1162L56.0629 93.1158C55.8073 93.1139 55.5521 93.051 55.325 92.9347C54.8707 92.7019 54.5395 92.2457 54.4691 91.7425C54.429 91.2402 54.4583 90.7984 54.449 90.3264C54.4495 88.4676 54.4504 86.6358 54.4509 84.8356C54.4513 83.9358 54.4518 83.0438 54.4523 82.1603C54.4527 81.7185 54.4527 81.279 54.4532 80.8415L54.4537 80.1869C54.4476 79.9761 54.4649 79.7224 54.546 79.5073C54.7 79.0664 55.0517 78.7019 55.4854 78.5395C55.6981 78.4543 55.9402 78.4259 56.1562 78.4301L56.7943 78.4306C57.6427 78.4315 58.4819 78.4319 59.3103 78.4329C65.937 78.4427 71.9052 78.4515 76.9204 78.4589C81.9267 78.4752 85.9806 78.4883 88.7923 78.4976C90.1869 78.5074 91.2733 78.5153 92.0201 78.5204C92.3825 78.5255 92.6614 78.5297 92.8597 78.5325C93.0495 78.5367 93.1461 78.5451 93.1461 78.5451C93.1461 78.5451 93.049 78.5534 92.8601 78.5576C92.6619 78.5604 92.3834 78.5646 92.0205 78.5697C91.2737 78.5749 90.1874 78.5828 88.7927 78.5926C85.981 78.6019 81.9267 78.6149 76.9208 78.6312C71.9056 78.6386 65.9375 78.6475 59.3107 78.6573C58.4823 78.6582 57.6432 78.6587 56.7948 78.6596L56.1567 78.66C55.9463 78.6573 55.7569 78.6819 55.5694 78.755C55.1977 78.8942 54.8963 79.2084 54.7653 79.5855C54.6958 79.7787 54.6813 79.9654 54.6869 80.1883L54.6874 80.8429C54.6878 81.28 54.6878 81.7199 54.6883 82.1617C54.6888 83.0452 54.6892 83.9372 54.6897 84.837C54.6902 86.6367 54.6911 88.4685 54.6916 90.3278C54.6995 90.784 54.6743 91.2779 54.7093 91.708C54.769 92.1349 55.0512 92.5236 55.4374 92.7215C55.6305 92.8202 55.8465 92.8732 56.0643 92.8755H56.7756C57.2509 92.8755 57.7276 92.8755 58.2057 92.8755C67.3993 92.8802 76.0696 92.8853 83.5723 92.889H83.6726L83.6796 92.9887C83.7659 94.1902 83.8508 95.3656 83.9282 96.4414L83.7673 96.3632C85.585 95.1519 87.3183 93.997 88.9359 92.9188L88.9597 92.903H88.9882C89.7681 92.9044 90.5298 92.9058 91.2733 92.9072C91.645 92.9081 92.0117 92.9086 92.3736 92.9095C92.73 92.9002 93.1073 92.9351 93.4268 92.8839C94.0911 92.7596 94.5762 92.1344 94.5654 91.5013C94.5673 90.838 94.5687 90.1951 94.5706 89.5732C94.5794 87.0878 94.5869 84.9394 94.593 83.1765C94.5976 82.2976 94.6018 81.5155 94.6051 80.8349C94.6042 80.497 94.6167 80.1786 94.6042 79.8983C94.5748 79.6195 94.4773 79.3746 94.3429 79.1898C94.0738 78.8137 93.7263 78.6633 93.5019 78.6051C93.2711 78.5455 93.1456 78.5544 93.1461 78.5451Z" fill="#263238" style="fill:#263238;fill:color(display-p3 0.1490 0.1961 0.2196);fill-opacity:1;"/>
<path d="M69.0458 87.5929C68.7933 87.5929 68.5592 87.5519 68.3432 87.47C68.1303 87.388 67.9448 87.2727 67.7866 87.1239C67.6315 86.9752 67.5099 86.8007 67.4217 86.6004C67.3365 86.4 67.2939 86.1815 67.2939 85.9447C67.2939 85.708 67.3365 85.4894 67.4217 85.2891C67.5099 85.0888 67.633 84.9142 67.7912 84.7655C67.9493 84.6168 68.1349 84.5015 68.3478 84.4195C68.5607 84.3375 68.7918 84.2966 69.0412 84.2966C69.2936 84.2966 69.5248 84.3375 69.7347 84.4195C69.9475 84.5015 70.1316 84.6168 70.2866 84.7655C70.4448 84.9142 70.568 85.0888 70.6562 85.2891C70.7444 85.4864 70.7885 85.705 70.7885 85.9447C70.7885 86.1815 70.7444 86.4016 70.6562 86.6049C70.568 86.8053 70.4448 86.9798 70.2866 87.1285C70.1316 87.2742 69.9475 87.388 69.7347 87.47C69.5248 87.5519 69.2952 87.5929 69.0458 87.5929ZM69.0412 86.9646C69.1842 86.9646 69.3149 86.9403 69.4335 86.8917C69.5552 86.8432 69.6617 86.7734 69.7529 86.6823C69.8441 86.5913 69.9141 86.4835 69.9627 86.3591C70.0144 86.2346 70.0403 86.0965 70.0403 85.9447C70.0403 85.793 70.0144 85.6549 69.9627 85.5304C69.9141 85.406 69.8441 85.2982 69.7529 85.2072C69.6647 85.1161 69.5597 85.0463 69.4381 84.9977C69.3164 84.9491 69.1842 84.9249 69.0412 84.9249C68.8983 84.9249 68.7659 84.9491 68.6443 84.9977C68.5257 85.0463 68.4208 85.1161 68.3295 85.2072C68.2383 85.2982 68.1668 85.406 68.1151 85.5304C68.0665 85.6549 68.0421 85.793 68.0421 85.9447C68.0421 86.0935 68.0665 86.2316 68.1151 86.3591C68.1668 86.4835 68.2368 86.5913 68.325 86.6823C68.4162 86.7734 68.5226 86.8432 68.6443 86.8917C68.7659 86.9403 68.8983 86.9646 69.0412 86.9646ZM72.7444 87.5747C72.5285 87.5747 72.343 87.5292 72.1879 87.4381C72.0328 87.3471 71.9142 87.209 71.832 87.0238C71.7499 86.8356 71.7089 86.5988 71.7089 86.3135C71.7089 86.0252 71.7515 85.7884 71.8366 85.6033C71.9248 85.4181 72.0464 85.28 72.2016 85.1889C72.3567 85.0979 72.5377 85.0523 72.7444 85.0523C72.9756 85.0523 73.1824 85.104 73.3649 85.2072C73.5504 85.3103 73.6964 85.456 73.8028 85.6443C73.9124 85.8324 73.9671 86.0555 73.9671 86.3135C73.9671 86.5685 73.9124 86.7901 73.8028 86.9783C73.6964 87.1664 73.5504 87.3137 73.3649 87.4199C73.1824 87.5231 72.9756 87.5747 72.7444 87.5747ZM71.2937 87.5383V84.16H72.0054V85.585L71.9598 86.309L71.9734 87.0375V87.5383H71.2937ZM72.6213 86.9919C72.7399 86.9919 72.8448 86.9646 72.936 86.91C73.0304 86.8553 73.1048 86.7779 73.1596 86.6778C73.2174 86.5746 73.2463 86.4532 73.2463 86.3135C73.2463 86.1709 73.2174 86.0494 73.1596 85.9493C73.1048 85.8491 73.0304 85.7717 72.936 85.7171C72.8448 85.6625 72.7399 85.6351 72.6213 85.6351C72.5027 85.6351 72.3962 85.6625 72.3019 85.7171C72.2076 85.7717 72.1332 85.8491 72.0784 85.9493C72.0236 86.0494 71.9962 86.1709 71.9962 86.3135C71.9962 86.4532 72.0236 86.5746 72.0784 86.6778C72.1332 86.7779 72.2076 86.8553 72.3019 86.91C72.3962 86.9646 72.5027 86.9919 72.6213 86.9919ZM74.261 88.458C74.1515 88.458 74.0466 88.4459 73.9462 88.4216C73.8458 88.4003 73.7607 88.3669 73.6907 88.3214L73.8824 87.8069C73.9645 87.8646 74.0648 87.8934 74.1834 87.8934C74.2717 87.8934 74.3416 87.8631 74.3933 87.8023C74.4481 87.7447 74.4754 87.6567 74.4754 87.5383V85.0888H75.1871V87.5337C75.1871 87.816 75.1065 88.0406 74.9453 88.2076C74.7841 88.3745 74.556 88.458 74.261 88.458ZM74.8312 84.7473C74.7005 84.7473 74.5941 84.7094 74.5119 84.6335C74.4298 84.5576 74.3887 84.4635 74.3887 84.3512C74.3887 84.2389 74.4298 84.1448 74.5119 84.0689C74.5941 83.993 74.7005 83.9551 74.8312 83.9551C74.962 83.9551 75.0685 83.9915 75.1506 84.0643C75.2327 84.1342 75.2738 84.2252 75.2738 84.3375C75.2738 84.4559 75.2327 84.5546 75.1506 84.6335C75.0715 84.7094 74.9651 84.7473 74.8312 84.7473ZM77.0605 87.5747C76.7806 87.5747 76.5343 87.5201 76.3214 87.4108C76.1115 87.3015 75.9488 87.1528 75.8333 86.9646C75.7177 86.7734 75.6599 86.5563 75.6599 86.3135C75.6599 86.0677 75.7162 85.8507 75.8287 85.6625C75.9443 85.4712 76.1009 85.3225 76.2986 85.2163C76.4963 85.107 76.7198 85.0523 76.9692 85.0523C77.2095 85.0523 77.4254 85.104 77.617 85.2072C77.8117 85.3073 77.9653 85.453 78.0778 85.6443C78.1903 85.8324 78.2466 86.0586 78.2466 86.3227C78.2466 86.35 78.2451 86.3818 78.242 86.4183C78.239 86.4516 78.2359 86.4835 78.2329 86.5139H76.2393V86.0995H77.8588L77.5851 86.2225C77.5851 86.095 77.5592 85.9842 77.5076 85.8901C77.4558 85.796 77.3844 85.7232 77.2931 85.6716C77.2019 85.6169 77.0955 85.5896 76.9738 85.5896C76.8521 85.5896 76.7442 85.6169 76.6499 85.6716C76.5586 85.7232 76.4872 85.7976 76.4355 85.8947C76.3838 85.9887 76.3579 86.1011 76.3579 86.2316V86.3409C76.3579 86.4744 76.3868 86.5928 76.4446 86.696C76.5054 86.7961 76.589 86.8735 76.6955 86.9282C76.805 86.9798 76.9327 87.0056 77.0787 87.0056C77.2095 87.0056 77.3235 86.9859 77.4208 86.9464C77.5212 86.9069 77.6125 86.8478 77.6946 86.7689L78.0733 87.1786C77.9607 87.3061 77.8193 87.4047 77.649 87.4745C77.4786 87.5413 77.2825 87.5747 77.0605 87.5747ZM79.9065 87.5747C79.642 87.5747 79.4062 87.5216 79.1994 87.4154C78.9926 87.3061 78.8299 87.1558 78.7113 86.9646C78.5957 86.7734 78.5379 86.5563 78.5379 86.3135C78.5379 86.0677 78.5957 85.8507 78.7113 85.6625C78.8299 85.4712 78.9926 85.3225 79.1994 85.2163C79.4062 85.107 79.642 85.0523 79.9065 85.0523C80.1651 85.0523 80.3901 85.107 80.5817 85.2163C80.7733 85.3225 80.9147 85.4758 81.006 85.6761L80.454 85.9721C80.3901 85.8567 80.3095 85.7717 80.2122 85.7171C80.1179 85.6625 80.0145 85.6351 79.902 85.6351C79.7803 85.6351 79.6708 85.6625 79.5735 85.7171C79.4762 85.7717 79.3986 85.8491 79.3409 85.9493C79.2861 86.0494 79.2587 86.1709 79.2587 86.3135C79.2587 86.4562 79.2861 86.5776 79.3409 86.6778C79.3986 86.7779 79.4762 86.8553 79.5735 86.91C79.6708 86.9646 79.7803 86.9919 79.902 86.9919C80.0145 86.9919 80.1179 86.9661 80.2122 86.9145C80.3095 86.8599 80.3901 86.7734 80.454 86.655L81.006 86.9555C80.9147 87.1528 80.7733 87.3061 80.5817 87.4154C80.3901 87.5216 80.1651 87.5747 79.9065 87.5747ZM82.4551 87.5747C82.1661 87.5747 81.941 87.5019 81.7798 87.3562C81.6187 87.2075 81.5381 86.9874 81.5381 86.696V84.547H82.2497V86.6869C82.2497 86.7901 82.2771 86.8705 82.3319 86.9282C82.3866 86.9828 82.4611 87.0101 82.5554 87.0101C82.668 87.0101 82.7638 86.9798 82.8428 86.9191L83.0344 87.4199C82.9614 87.4715 82.8732 87.511 82.7698 87.5383C82.6694 87.5626 82.5645 87.5747 82.4551 87.5747ZM81.1594 85.6898V85.1434H82.8611V85.6898H81.1594ZM83.4339 87.5383V85.0888H84.1456V87.5383H83.4339ZM83.7897 84.7473C83.6591 84.7473 83.5525 84.7094 83.4704 84.6335C83.3883 84.5576 83.3472 84.4635 83.3472 84.3512C83.3472 84.2389 83.3883 84.1448 83.4704 84.0689C83.5525 83.993 83.6591 83.9551 83.7897 83.9551C83.9203 83.9551 84.0272 83.9915 84.1093 84.0643C84.1914 84.1342 84.2324 84.2252 84.2324 84.3375C84.2324 84.4559 84.1914 84.5546 84.1093 84.6335C84.03 84.7094 83.9236 84.7473 83.7897 84.7473ZM85.4722 87.5383L84.4414 85.0888H85.1755L86.0333 87.1968H85.6681L86.5581 85.0888H87.2424L86.2069 87.5383H85.4722ZM88.6837 87.5747C88.4043 87.5747 88.1575 87.5201 87.9448 87.4108C87.7349 87.3015 87.5721 87.1528 87.4565 86.9646C87.3412 86.7734 87.2834 86.5563 87.2834 86.3135C87.2834 86.0677 87.3394 85.8507 87.4523 85.6625C87.5675 85.4712 87.7242 85.3225 87.922 85.2163C88.1197 85.107 88.3432 85.0523 88.5927 85.0523C88.8329 85.0523 89.0489 85.104 89.2406 85.2072C89.4351 85.3073 89.5886 85.453 89.7014 85.6443C89.8139 85.8324 89.8698 86.0586 89.8698 86.3227C89.8698 86.35 89.8684 86.3818 89.8656 86.4183C89.8624 86.4516 89.8596 86.4835 89.8563 86.5139H87.8627V86.0995H89.4822L89.2084 86.2225C89.2084 86.095 89.1828 85.9842 89.131 85.8901C89.0792 85.796 89.0078 85.7232 88.9164 85.6716C88.8255 85.6169 88.7186 85.5896 88.5974 85.5896C88.4756 85.5896 88.3674 85.6169 88.2732 85.6716C88.1822 85.7232 88.1104 85.7976 88.0591 85.8947C88.0073 85.9887 87.9812 86.1011 87.9812 86.2316V86.3409C87.9812 86.4744 88.0101 86.5928 88.068 86.696C88.1286 86.7961 88.2126 86.8735 88.3189 86.9282C88.4285 86.9798 88.5563 87.0056 88.7023 87.0056C88.8329 87.0056 88.9467 86.9859 89.0442 86.9464C89.1445 86.9069 89.2359 86.8478 89.318 86.7689L89.6968 87.1786C89.5839 87.3061 89.4426 87.4047 89.2723 87.4745C89.1021 87.5413 88.9057 87.5747 88.6837 87.5747Z" fill="#263238" style="fill:#263238;fill:color(display-p3 0.1490 0.1961 0.2196);fill-opacity:1;"/>
<path d="M63.3332 84.3223C63.3332 85.1607 62.6522 85.8399 61.8126 85.8399C60.973 85.8399 60.292 85.1602 60.292 84.3223C60.292 83.4843 60.973 82.8047 61.8126 82.8047C62.6522 82.8047 63.3332 83.4839 63.3332 84.3223Z" fill="#4BBEFF" style="fill:#4BBEFF;fill:color(display-p3 0.2941 0.7451 1.0000);fill-opacity:1;"/>
<path d="M61.8123 85.5332C60.3873 85.5332 59.2324 86.6863 59.2324 88.108H64.3927C64.3927 86.6863 63.2373 85.5332 61.8123 85.5332Z" fill="#4BBEFF" style="fill:#4BBEFF;fill:color(display-p3 0.2941 0.7451 1.0000);fill-opacity:1;"/>
<path d="M84.2057 101.409C85.3475 101.409 86.2734 100.485 86.2734 99.3449C86.2734 98.2053 85.3475 97.2812 84.2057 97.2812C83.0635 97.2812 82.1377 98.2053 82.1377 99.3449C82.1377 100.485 83.0635 101.409 84.2057 101.409Z" fill="#4BBEFF" style="fill:#4BBEFF;fill:color(display-p3 0.2941 0.7451 1.0000);fill-opacity:1;"/>
</g>
<defs>
<clipPath id="clip0_281_345">
<rect width="139" height="189" fill="white" style="fill:white;fill-opacity:1;" transform="translate(37 48)"/>
</clipPath>
</defs>
</svg>
