<svg width="500" height="500" viewBox="0 0 500 500" fill="none" xmlns="http://www.w3.org/2000/svg">
<g clip-path="url(#clip0_129_144)">
<path d="M528 373.188H0V373.488H528V373.188Z" fill="#EBEBEB"/>
<path d="M475.094 392.56H440.12V392.86H475.094V392.56Z" fill="#EBEBEB"/>
<path d="M349.768 395.835H340.591V396.135H349.768V395.835Z" fill="#EBEBEB"/>
<path d="M439.063 381.387H418.799V381.687H439.063V381.387Z" fill="#EBEBEB"/>
<path d="M101.007 383.41H55.3979V383.71H101.007V383.41Z" fill="#EBEBEB"/>
<path d="M117.1 383.41H110.416V383.71H117.1V383.41Z" fill="#EBEBEB"/>
<path d="M237.759 388.49H138.833V388.791H237.759V388.49Z" fill="#EBEBEB"/>
<path d="M250.272 319.489H46.3688C44.7714 319.486 43.2405 318.761 42.112 317.472C40.9834 316.183 40.3496 314.436 40.3496 312.615V-14.1854C40.3635 -15.9962 41.0035 -17.7276 42.1305 -19.0035C43.2575 -20.2795 44.7806 -20.9969 46.3688 -21H250.272C251.871 -21 253.405 -20.2757 254.536 -18.9864C255.666 -17.6971 256.302 -15.9485 256.302 -14.1252V312.615C256.302 314.438 255.666 316.187 254.536 317.476C253.405 318.765 251.871 319.489 250.272 319.489ZM46.3688 -20.7592C44.8415 -20.756 43.3776 -20.062 42.2986 -18.8295C41.2196 -17.597 40.6136 -15.9268 40.6136 -14.1854V312.615C40.6136 314.356 41.2196 316.026 42.2986 317.259C43.3776 318.491 44.8415 319.185 46.3688 319.189H250.272C251.8 319.185 253.265 318.492 254.346 317.26C255.426 316.027 256.035 314.357 256.038 312.615V-14.1854C256.035 -15.9279 255.426 -17.5981 254.346 -18.8303C253.265 -20.0624 251.8 -20.756 250.272 -20.7592H46.3688Z" fill="#EBEBEB"/>
<path d="M478.695 319.489H274.782C273.183 319.486 271.651 318.761 270.521 317.472C269.391 316.184 268.755 314.437 268.752 312.615V-14.1854C268.769 -15.9973 269.411 -17.7287 270.54 -19.0043C271.668 -20.2799 273.192 -20.9969 274.782 -21H478.695C480.282 -20.9937 481.802 -20.2749 482.927 -18.9993C484.052 -17.7237 484.69 -15.9941 484.704 -14.1854V312.615C484.704 314.434 484.072 316.179 482.945 317.467C481.819 318.756 480.291 319.483 478.695 319.489ZM274.782 -20.7592C273.253 -20.756 271.788 -20.0624 270.708 -18.8303C269.627 -17.5981 269.019 -15.9279 269.016 -14.1854V312.615C269.019 314.357 269.627 316.027 270.708 317.26C271.788 318.492 273.253 319.185 274.782 319.189H478.695C480.224 319.185 481.689 318.492 482.769 317.26C483.85 316.027 484.458 314.357 484.461 312.615V-14.1854C484.458 -15.9279 483.85 -17.5981 482.769 -18.8303C481.689 -20.0624 480.224 -20.756 478.695 -20.7592H274.782Z" fill="#EBEBEB"/>
<path d="M235.161 133.99H69.8545V372.646H235.161V133.99Z" fill="#F0F0F0"/>
<path d="M229.311 142.695H75.6943V193.732H229.311V142.695Z" fill="#E0E0E0"/>
<path d="M84.4169 150.955H75.6943V193.72H84.4169V150.955Z" fill="#EBEBEB"/>
<path d="M126.615 150.955H117.892V193.72H126.615V150.955Z" fill="#EBEBEB"/>
<path d="M174.515 149.869L165.919 151.558L172.29 193.702L180.886 192.013L174.515 149.869Z" fill="#EBEBEB"/>
<path d="M95.2299 156.589H86.5073V193.72H95.2299V156.589Z" fill="#EBEBEB"/>
<path d="M115.284 156.589H106.561V193.72H115.284V156.589Z" fill="#EBEBEB"/>
<path d="M165.908 156.589H157.186V193.72H165.908V156.589Z" fill="#EBEBEB"/>
<path d="M138.073 155.309L129.559 157.467L136.624 193.714L145.139 191.556L138.073 155.309Z" fill="#EBEBEB"/>
<path d="M102.781 148.823H98.4194V193.72H102.781V148.823Z" fill="#EBEBEB"/>
<path d="M154.683 148.823H150.322V193.72H154.683V148.823Z" fill="#EBEBEB"/>
<path d="M75.6942 252.836L229.311 252.836V201.799L75.6942 201.799V252.836Z" fill="#E0E0E0"/>
<path d="M220.588 252.836H229.311V210.071H220.588V252.836Z" fill="#EBEBEB"/>
<path d="M178.39 252.836H187.113V210.071H178.39V252.836Z" fill="#EBEBEB"/>
<path d="M124.12 251.153L132.716 252.842L139.087 210.698L130.492 209.009L124.12 251.153Z" fill="#EBEBEB"/>
<path d="M209.764 252.836H218.486V215.705H209.764V252.836Z" fill="#EBEBEB"/>
<path d="M189.721 252.836H198.443V215.705H189.721V252.836Z" fill="#EBEBEB"/>
<path d="M139.086 252.836H147.809V215.705H139.086V252.836Z" fill="#EBEBEB"/>
<path d="M159.878 250.67L168.393 252.828L175.458 216.581L166.943 214.423L159.878 250.67Z" fill="#EBEBEB"/>
<path d="M202.224 252.836H206.585V207.939H202.224V252.836Z" fill="#EBEBEB"/>
<path d="M150.321 252.836H154.683V207.939H150.321V252.836Z" fill="#EBEBEB"/>
<path d="M84.4169 210.07H75.6943V252.836H84.4169V210.07Z" fill="#EBEBEB"/>
<path d="M95.2299 215.705H86.5073V252.836H95.2299V215.705Z" fill="#EBEBEB"/>
<path d="M115.284 215.705H106.561V252.836H115.284V215.705Z" fill="#EBEBEB"/>
<path d="M102.781 207.939H98.4194V252.836H102.781V207.939Z" fill="#EBEBEB"/>
<path d="M229.311 260.915H75.6943V311.952H229.311V260.915Z" fill="#E0E0E0"/>
<path d="M172.582 269.175H163.859V311.94H172.582V269.175Z" fill="#EBEBEB"/>
<path d="M220.491 268.097L211.895 269.787L218.267 311.931L226.862 310.242L220.491 268.097Z" fill="#EBEBEB"/>
<path d="M141.198 274.821H132.476V311.952H141.198V274.821Z" fill="#EBEBEB"/>
<path d="M161.262 274.821H152.54V311.952H161.262V274.821Z" fill="#EBEBEB"/>
<path d="M211.887 274.821H203.164V311.952H211.887V274.821Z" fill="#EBEBEB"/>
<path d="M184.06 273.536L175.545 275.693L182.61 311.94L191.125 309.782L184.06 273.536Z" fill="#EBEBEB"/>
<path d="M148.748 267.056H144.387V311.953H148.748V267.056Z" fill="#EBEBEB"/>
<path d="M200.65 267.056H196.289V311.953H200.65V267.056Z" fill="#EBEBEB"/>
<path d="M120.099 268.108L111.503 269.797L117.874 311.942L126.47 310.252L120.099 268.108Z" fill="#EBEBEB"/>
<path d="M111.492 274.821H102.77V311.952H111.492V274.821Z" fill="#EBEBEB"/>
<path d="M83.6598 273.542L75.145 275.7L82.2105 311.947L90.7253 309.789L83.6598 273.542Z" fill="#EBEBEB"/>
<path d="M100.257 267.056H95.8955V311.953H100.257V267.056Z" fill="#EBEBEB"/>
<path d="M322.376 230.189H415.536C417.942 230.189 420.325 230.731 422.547 231.782C424.77 232.834 426.789 234.375 428.488 236.318C430.187 238.261 431.533 240.567 432.449 243.104C433.365 245.641 433.833 248.359 433.826 251.103V334.034H304.128V251.103C304.117 245.571 306.033 240.26 309.454 236.339C312.876 232.417 317.524 230.205 322.376 230.189Z" fill="#E6E6E6"/>
<path d="M276.545 291.665H293.209C294.642 291.659 296.062 291.975 297.387 292.596C298.712 293.218 299.916 294.131 300.931 295.285C301.946 296.438 302.75 297.809 303.299 299.318C303.848 300.827 304.129 302.445 304.128 304.078V372.706H265.668V304.078C265.667 302.449 265.947 300.835 266.493 299.329C267.039 297.823 267.84 296.454 268.85 295.302C269.861 294.149 271.06 293.234 272.38 292.61C273.701 291.986 275.116 291.665 276.545 291.665Z" fill="#E0E0E0"/>
<path d="M276.545 291.665H276.894C278.323 291.665 279.738 291.986 281.059 292.61C282.379 293.234 283.578 294.149 284.589 295.301C285.599 296.454 286.4 297.823 286.946 299.329C287.492 300.835 287.772 302.449 287.771 304.078V372.706H265.668V304.078C265.667 302.449 265.947 300.835 266.493 299.329C267.039 297.823 267.84 296.454 268.85 295.301C269.861 294.149 271.06 293.234 272.38 292.61C273.701 291.986 275.116 291.665 276.545 291.665Z" fill="#EBEBEB"/>
<path d="M420.256 341.137H292.417V372.646H420.256V341.137Z" fill="#E6E6E6"/>
<path d="M415.525 312.326H292.237C286.131 312.326 281.181 317.97 281.181 324.932V332.77C281.181 339.732 286.131 345.376 292.237 345.376H415.525C421.632 345.376 426.582 339.732 426.582 332.77V324.932C426.582 317.97 421.632 312.326 415.525 312.326Z" fill="#F5F5F5"/>
<path d="M415.314 312.326H400.034C393.928 312.326 388.978 317.97 388.978 324.932V332.77C388.978 339.732 393.928 345.376 400.034 345.376H415.314C421.42 345.376 426.371 339.732 426.371 332.77V324.932C426.371 317.97 421.42 312.326 415.314 312.326Z" fill="#E0E0E0"/>
<path d="M416.972 291.665H433.646C435.075 291.665 436.49 291.986 437.81 292.61C439.129 293.235 440.328 294.149 441.338 295.302C442.347 296.455 443.147 297.824 443.692 299.33C444.236 300.836 444.515 302.449 444.513 304.078V372.706H406.106V304.078C406.103 302.449 406.382 300.836 406.927 299.33C407.472 297.824 408.272 296.455 409.281 295.302C410.29 294.149 411.489 293.235 412.809 292.61C414.129 291.986 415.543 291.665 416.972 291.665Z" fill="#E0E0E0"/>
<path d="M416.972 291.665H417.331C418.76 291.665 420.175 291.986 421.494 292.61C422.814 293.235 424.013 294.149 425.022 295.302C426.032 296.455 426.832 297.824 427.376 299.33C427.921 300.836 428.2 302.449 428.197 304.078V372.706H406.106V304.078C406.103 302.449 406.382 300.836 406.927 299.33C407.472 297.824 408.272 296.455 409.281 295.302C410.29 294.149 411.489 293.235 412.809 292.61C414.129 291.986 415.543 291.665 416.972 291.665Z" fill="#F0F0F0"/>
<path d="M158.67 104.978C172.227 102.469 181.434 87.9047 179.233 72.4475C177.032 56.9903 164.258 46.4938 150.701 49.0028C137.144 51.5119 127.937 66.0764 130.138 81.5336C132.339 96.9908 145.113 107.487 158.67 104.978Z" fill="#E0E0E0"/>
<path d="M158.074 100.795C169.605 98.6609 177.436 86.2733 175.564 73.1265C173.692 59.9796 162.827 51.052 151.296 53.186C139.766 55.3201 131.935 67.7076 133.807 80.8545C135.679 94.0013 146.544 102.929 158.074 100.795Z" fill="#F0F0F0"/>
<path d="M153.679 93.5478V76.6919L143.89 83.0129" fill="#F0F0F0"/>
<path d="M153.68 94.7518C153.4 94.7518 153.131 94.625 152.933 94.3992C152.735 94.1734 152.624 93.8671 152.624 93.5478V78.7507L144.408 84.0603C144.165 84.2163 143.877 84.2558 143.607 84.17C143.338 84.0842 143.11 83.8803 142.972 83.6028C142.834 83.3264 142.798 82.9991 142.872 82.6923C142.945 82.3855 143.121 82.1242 143.363 81.9654L153.163 75.6444C153.323 75.5415 153.505 75.4883 153.689 75.49C153.873 75.4918 154.053 75.5484 154.212 75.6543C154.372 75.7601 154.504 75.9116 154.595 76.0936C154.687 76.2757 154.736 76.4819 154.736 76.6919V93.5478C154.736 93.8671 154.625 94.1734 154.427 94.3992C154.229 94.625 153.96 94.7518 153.68 94.7518Z" fill="#E0E0E0"/>
<path d="M452.612 41.2224H293.42V202.281H452.612V41.2224Z" fill="#E6E6E6"/>
<path d="M448.42 45.6411H297.401V197.958H448.42V45.6411Z" fill="#F0F0F0"/>
<path d="M332.841 45.6411L297.401 197.621V126.212L316.114 45.6411H332.841Z" fill="white"/>
<path d="M345.396 45.6411L309.64 197.958H303.938L339.694 45.6411H345.396Z" fill="white"/>
<path d="M448.42 141.756V166.089L441.186 197.958H435.484L448.42 141.756Z" fill="white"/>
<path d="M350.075 42.9082H347.53V201.366H350.075V42.9082Z" fill="#E6E6E6"/>
<path d="M399.379 42.9082H396.834V201.366H399.379V42.9082Z" fill="#E6E6E6"/>
<path d="M264 427.56C377.079 427.56 468.748 421.458 468.748 413.931C468.748 406.403 377.079 400.302 264 400.302C150.921 400.302 59.252 406.403 59.252 413.931C59.252 421.458 150.921 427.56 264 427.56Z" fill="#F5F5F5"/>
<path d="M424.407 383.819C424.407 383.819 429.423 371.346 423.689 359.041C417.954 346.736 416.296 343.847 419.95 341.318C423.604 338.79 425.283 351.167 425.283 351.167C427.09 345.578 427.275 339.475 425.811 333.757C423.277 324.86 421.682 310.363 425.146 308.81C428.609 307.257 425.811 326.87 428.831 333.589C430.363 328.886 431.353 323.977 431.777 318.984C432.189 311.832 431.545 300.418 434.28 297.493C437.015 294.567 438.779 296.59 436.086 312.362C434.468 321.791 433.574 331.363 433.414 340.969C433.414 340.969 439.36 320.272 443.362 319.67C447.364 319.068 447.353 325.763 443.932 331.578C440.511 337.393 433.911 347.808 432.833 353.165C432.833 353.165 439.37 337.586 445.241 342.329C451.113 347.073 440.13 356.5 435.231 359.908C430.331 363.315 426.93 384.602 426.93 384.602L424.407 383.819Z" fill="#FB0B0F"/>
<path opacity="0.2" d="M424.407 383.819C424.407 383.819 429.423 371.346 423.689 359.041C417.954 346.736 416.296 343.847 419.95 341.318C423.604 338.79 425.283 351.167 425.283 351.167C427.09 345.578 427.275 339.475 425.811 333.757C423.277 324.86 421.682 310.363 425.146 308.81C428.609 307.257 425.811 326.87 428.831 333.589C430.363 328.886 431.353 323.977 431.777 318.984C432.189 311.832 431.545 300.418 434.28 297.493C437.015 294.567 438.779 296.59 436.086 312.362C434.468 321.791 433.574 331.363 433.414 340.969C433.414 340.969 439.36 320.272 443.362 319.67C447.364 319.068 447.353 325.763 443.932 331.578C440.511 337.393 433.911 347.808 432.833 353.165C432.833 353.165 439.37 337.586 445.241 342.329C451.113 347.073 440.13 356.5 435.231 359.908C430.331 363.315 426.93 384.602 426.93 384.602L424.407 383.819Z" fill="black"/>
<path d="M428.366 388.936C428.366 388.936 423.477 376.379 429.338 364.17C435.199 351.962 436.888 349.096 433.266 346.52C429.644 343.943 427.828 356.272 427.828 356.272C426.078 350.661 425.956 344.558 427.479 338.862C430.109 330.001 431.862 315.529 428.409 313.915C424.956 312.302 427.553 331.975 424.47 338.633C422.986 333.907 422.045 328.982 421.671 323.981C421.333 316.829 422.104 305.427 419.39 302.453C416.676 299.48 414.902 301.478 417.437 317.299C418.954 326.746 419.746 336.326 419.802 345.93C419.802 345.93 414.068 325.137 410.087 324.475C406.106 323.812 406.032 330.494 409.39 336.37C412.748 342.245 419.232 352.768 420.288 358.138C420.288 358.138 413.952 342.486 407.996 347.134C402.04 351.781 412.959 361.389 417.817 364.881C422.675 368.372 425.864 389.719 425.864 389.719L428.366 388.936Z" fill="#FB0B0F"/>
<path d="M405.832 379.978H446.181L442.918 412.908H409.095L405.832 379.978Z" fill="#263238"/>
<path d="M256.186 407.622V411.944C256.186 412.072 256.164 412.199 256.121 412.317C256.078 412.436 256.015 412.543 255.935 412.634C255.856 412.724 255.761 412.796 255.658 412.845C255.554 412.894 255.443 412.919 255.33 412.919H148.231C147.317 412.92 146.418 412.664 145.611 412.176C144.804 411.688 144.115 410.981 143.603 410.118C143.091 409.256 142.773 408.263 142.676 407.228C142.579 406.192 142.706 405.145 143.046 404.179L176.986 308.341L231.834 308.762L229.965 321.199L217.863 401.686C217.773 402.296 217.8 402.922 217.943 403.519C218.086 404.115 218.341 404.67 218.691 405.143C219.04 405.616 219.476 405.997 219.968 406.259C220.46 406.52 220.996 406.657 221.538 406.659H255.33C255.442 406.657 255.553 406.681 255.657 406.729C255.761 406.776 255.855 406.847 255.935 406.937C256.014 407.026 256.077 407.133 256.12 407.251C256.164 407.368 256.186 407.494 256.186 407.622Z" fill="#263238"/>
<path opacity="0.5" d="M256.186 407.622V411.944C256.186 412.072 256.164 412.199 256.121 412.317C256.078 412.436 256.015 412.543 255.935 412.634C255.856 412.724 255.761 412.796 255.658 412.845C255.554 412.894 255.443 412.919 255.33 412.919H148.231C147.317 412.92 146.418 412.664 145.611 412.176C144.804 411.688 144.115 410.981 143.603 410.118C143.091 409.256 142.773 408.263 142.676 407.228C142.579 406.192 142.706 405.145 143.046 404.179L164.092 344.761L176.986 308.341L231.834 308.762L229.965 321.199L224.685 356.199L217.853 401.686C217.762 402.296 217.79 402.922 217.932 403.519C218.075 404.115 218.33 404.67 218.68 405.143C219.03 405.616 219.466 405.997 219.957 406.259C220.449 406.52 220.985 406.657 221.528 406.659H255.32C255.432 406.656 255.545 406.678 255.65 406.725C255.754 406.772 255.85 406.842 255.931 406.932C256.012 407.022 256.076 407.129 256.119 407.248C256.163 407.366 256.186 407.493 256.186 407.622Z" fill="white"/>
<path opacity="0.2" d="M221.538 406.647H151.842C151.441 406.645 151.046 406.532 150.692 406.315C150.338 406.099 150.036 405.787 149.813 405.406C149.59 405.026 149.452 404.588 149.412 404.133C149.372 403.677 149.43 403.218 149.583 402.794L179.341 321.187H229.955L217.853 401.674C217.762 402.285 217.79 402.912 217.933 403.509C218.077 404.107 218.333 404.662 218.684 405.136C219.034 405.609 219.472 405.989 219.965 406.25C220.458 406.511 220.995 406.647 221.538 406.647Z" fill="black"/>
<path opacity="0.1" d="M231.834 308.75L229.965 321.187L224.696 356.187L164.092 344.761L176.986 308.329L231.834 308.75Z" fill="black"/>
<path d="M338.48 130.101H84.5647C83.7119 130.101 82.8673 130.293 82.0794 130.665C81.2915 131.037 80.5755 131.582 79.9725 132.27C79.3694 132.958 78.891 133.774 78.5647 134.672C78.2383 135.571 78.0703 136.533 78.0703 137.506V333.504C78.0703 335.468 78.7545 337.351 79.9725 338.74C81.1904 340.129 82.8423 340.909 84.5647 340.909H338.48C340.203 340.909 341.856 340.129 343.076 338.741C344.295 337.352 344.982 335.469 344.985 333.504V137.506C344.982 135.541 344.295 133.658 343.076 132.269C341.856 130.881 340.203 130.101 338.48 130.101Z" fill="#263238"/>
<path opacity="0.6" d="M338.48 130.101H84.5647C83.7119 130.101 82.8673 130.293 82.0794 130.665C81.2915 131.037 80.5755 131.582 79.9725 132.27C79.3694 132.958 78.891 133.774 78.5647 134.672C78.2383 135.571 78.0703 136.533 78.0703 137.506V333.504C78.0703 335.468 78.7545 337.351 79.9725 338.74C81.1904 340.129 82.8423 340.909 84.5647 340.909H338.48C340.203 340.909 341.856 340.129 343.076 338.741C344.295 337.352 344.982 335.469 344.985 333.504V137.506C344.982 135.541 344.295 133.658 343.076 132.269C341.856 130.881 340.203 130.101 338.48 130.101Z" fill="white"/>
<path opacity="0.2" d="M89.9503 340.897H84.5647C82.8441 340.897 81.1938 340.118 79.9762 338.732C78.7586 337.346 78.0731 335.466 78.0703 333.504V137.518C78.0689 136.545 78.2359 135.58 78.5616 134.681C78.8874 133.781 79.3655 132.963 79.9687 132.274C80.5719 131.586 81.2884 131.039 82.077 130.666C82.8656 130.293 83.711 130.101 84.5647 130.101H89.9503C89.0939 130.097 88.2451 130.285 87.4528 130.656C86.6606 131.027 85.9404 131.572 85.3338 132.262C84.7273 132.951 84.2463 133.77 83.9186 134.672C83.5908 135.574 83.4228 136.542 83.4242 137.518V333.504C83.4242 334.479 83.5933 335.444 83.9218 336.344C84.2503 337.244 84.7317 338.061 85.3382 338.749C85.9448 339.436 86.6646 339.979 87.4561 340.348C88.2476 340.717 89.0953 340.903 89.9503 340.897Z" fill="black"/>
<path d="M339.134 136.47H89.3164V325.461H339.134V136.47Z" fill="#FB0B0F"/>
<path opacity="0.4" d="M210.778 208.409C222.757 208.409 232.468 197.337 232.468 183.679C232.468 170.021 222.757 158.949 210.778 158.949C198.798 158.949 189.087 170.021 189.087 183.679C189.087 197.337 198.798 208.409 210.778 208.409Z" fill="white"/>
<path d="M205.603 179.923V177.659C205.603 176.58 205.979 175.545 206.649 174.782C207.318 174.019 208.226 173.59 209.173 173.59H212.341C212.813 173.584 213.282 173.684 213.72 173.886C214.157 174.087 214.556 174.386 214.892 174.765C215.228 175.143 215.495 175.594 215.677 176.091C215.859 176.588 215.952 177.121 215.952 177.659V179.971H218.265V177.659C218.262 175.882 217.641 174.178 216.539 172.921C215.437 171.664 213.942 170.956 212.383 170.953H209.215C207.656 170.956 206.161 171.664 205.059 172.921C203.956 174.178 203.336 175.882 203.333 177.659V179.971L205.603 179.923Z" fill="white"/>
<path d="M200.376 182.969V195.117C200.376 195.294 200.407 195.47 200.466 195.633C200.525 195.797 200.613 195.945 200.722 196.071C200.832 196.196 200.963 196.295 201.106 196.363C201.25 196.431 201.403 196.466 201.559 196.466H219.996C220.152 196.466 220.306 196.431 220.449 196.363C220.593 196.295 220.723 196.196 220.833 196.071C220.943 195.945 221.03 195.797 221.089 195.633C221.149 195.47 221.179 195.294 221.179 195.117V182.969C221.179 182.611 221.055 182.268 220.833 182.015C220.611 181.762 220.31 181.62 219.996 181.62H201.559C201.403 181.62 201.25 181.655 201.106 181.723C200.963 181.791 200.832 181.89 200.722 182.015C200.613 182.141 200.525 182.289 200.466 182.453C200.407 182.616 200.376 182.792 200.376 182.969ZM211.443 189.844V192.252H210.144V189.844C209.954 189.723 209.794 189.549 209.68 189.339C209.565 189.128 209.5 188.887 209.489 188.64C209.489 188.24 209.628 187.858 209.876 187.575C210.123 187.293 210.459 187.135 210.809 187.135C211.159 187.135 211.495 187.293 211.743 187.575C211.99 187.858 212.129 188.24 212.129 188.64C212.116 188.891 212.045 189.134 211.925 189.345C211.805 189.556 211.639 189.728 211.443 189.844Z" fill="white"/>
<path d="M157.861 228.889H137.375C136.156 228.889 135.168 230.016 135.168 231.406V254.763C135.168 256.153 136.156 257.279 137.375 257.279H157.861C159.08 257.279 160.068 256.153 160.068 254.763V231.406C160.068 230.016 159.08 228.889 157.861 228.889Z" fill="white"/>
<path d="M189.446 228.853H168.96C167.741 228.853 166.753 229.98 166.753 231.369V254.727C166.753 256.117 167.741 257.243 168.96 257.243H189.446C190.665 257.243 191.653 256.117 191.653 254.727V231.369C191.653 229.98 190.665 228.853 189.446 228.853Z" fill="white"/>
<path d="M221.021 228.817H200.535C199.316 228.817 198.328 229.943 198.328 231.333V254.691C198.328 256.08 199.316 257.207 200.535 257.207H221.021C222.24 257.207 223.228 256.08 223.228 254.691V231.333C223.228 229.943 222.24 228.817 221.021 228.817Z" fill="white"/>
<path d="M252.595 228.769H232.109C230.89 228.769 229.902 229.895 229.902 231.285V254.643C229.902 256.032 230.89 257.159 232.109 257.159H252.595C253.814 257.159 254.802 256.032 254.802 254.643V231.285C254.802 229.895 253.814 228.769 252.595 228.769Z" fill="white"/>
<path d="M284.17 228.733H263.684C262.465 228.733 261.477 229.859 261.477 231.249V254.606C261.477 255.996 262.465 257.123 263.684 257.123H284.17C285.389 257.123 286.377 255.996 286.377 254.606V231.249C286.377 229.859 285.389 228.733 284.17 228.733Z" fill="white"/>
<path d="M268.446 243.482C268.446 238.485 270.79 235.644 273.937 235.644C277.084 235.644 279.418 238.485 279.418 243.482C279.418 248.478 277.073 251.32 273.937 251.32C270.801 251.32 268.446 248.478 268.446 243.482ZM277.496 243.482C277.496 239.557 276.028 237.594 273.937 237.594C271.846 237.594 270.368 239.557 270.368 243.482C270.368 247.407 271.825 249.369 273.937 249.369C276.049 249.369 277.496 247.395 277.496 243.482Z" fill="#263238"/>
<path d="M152.624 243.289C152.624 248.514 150.026 251.32 146.288 251.32C145.121 251.367 143.965 251.055 142.941 250.417L143.617 248.695C144.401 249.212 145.299 249.463 146.204 249.417C148.928 249.417 150.66 247.467 150.66 243.626V243.084C150.209 243.757 149.62 244.292 148.943 244.64C148.267 244.989 147.525 245.141 146.785 245.083C144.113 245.083 142.191 243.265 142.191 240.448C142.191 237.63 144.303 235.632 146.932 235.632C150.586 235.644 152.624 238.401 152.624 243.289ZM150.259 240.375C150.259 238.798 149.203 237.414 147.091 237.414C146.721 237.363 146.346 237.401 145.991 237.527C145.635 237.653 145.307 237.864 145.027 238.145C144.748 238.425 144.524 238.77 144.37 239.157C144.216 239.543 144.136 239.963 144.134 240.387C144.134 242.193 145.306 243.349 147.196 243.349C149.087 243.349 150.259 242.061 150.259 240.375Z" fill="#263238"/>
<path d="M173.712 243.482C173.712 238.485 176.056 235.644 179.203 235.644C182.35 235.644 184.684 238.485 184.684 243.482C184.684 248.478 182.339 251.32 179.203 251.32C176.067 251.32 173.712 248.478 173.712 243.482ZM182.762 243.482C182.762 239.557 181.305 237.594 179.203 237.594C177.102 237.594 175.634 239.557 175.634 243.482C175.634 247.407 177.091 249.369 179.203 249.369C181.315 249.369 182.762 247.407 182.762 243.482Z" fill="#263238"/>
<path d="M215.636 249.237V251.103H205.973V249.658L211.443 243.638C212.869 242.061 213.133 241.098 213.133 240.135C213.133 238.557 212.161 237.594 210.271 237.594C209.626 237.553 208.981 237.682 208.386 237.97C207.791 238.258 207.262 238.698 206.839 239.256L205.53 237.967C206.147 237.188 206.91 236.575 207.761 236.173C208.612 235.771 209.531 235.59 210.451 235.644C213.249 235.644 215.055 237.281 215.055 239.906C215.055 241.399 214.675 242.735 212.848 244.722L208.74 249.225L215.636 249.237Z" fill="#263238"/>
<path d="M243.936 235.812V251.103H242.035V237.726H238.994V235.812H243.936Z" fill="#263238"/>
<g opacity="0.6">
<path d="M187.155 221.954V222.496H183.491V216.584H187.039V217.126H184.04V219.233H186.712V219.799H184.04V221.99L187.155 221.954Z" fill="white"/>
<path d="M191.907 219.919V222.496H191.379V219.979C191.41 219.792 191.403 219.6 191.356 219.417C191.309 219.234 191.225 219.066 191.111 218.928C190.997 218.789 190.855 218.683 190.698 218.619C190.541 218.555 190.372 218.534 190.207 218.559C190.021 218.543 189.834 218.575 189.66 218.651C189.486 218.726 189.328 218.845 189.199 218.997C189.069 219.15 188.97 219.333 188.909 219.534C188.847 219.735 188.826 219.948 188.845 220.16V222.496H188.327V218.053H188.823V218.872C188.982 218.594 189.203 218.37 189.463 218.222C189.722 218.074 190.012 218.007 190.302 218.029C190.522 218.007 190.744 218.042 190.95 218.131C191.157 218.219 191.344 218.359 191.498 218.54C191.652 218.72 191.768 218.938 191.839 219.177C191.91 219.415 191.933 219.669 191.907 219.919Z" fill="white"/>
<path d="M195.36 222.207C195.128 222.421 194.835 222.533 194.537 222.52C194.385 222.534 194.232 222.511 194.088 222.451C193.945 222.392 193.814 222.298 193.706 222.175C193.598 222.053 193.514 221.905 193.46 221.742C193.407 221.579 193.385 221.405 193.396 221.232V218.595H192.699V218.089H193.396V217.126H193.924V218.089H195.107V218.595H193.924V221.244C193.924 221.773 194.157 222.05 194.589 222.05C194.799 222.058 195.005 221.981 195.17 221.834L195.36 222.207Z" fill="white"/>
<path d="M199.584 220.461H196.332C196.356 220.897 196.531 221.303 196.818 221.592C197.105 221.881 197.481 222.029 197.863 222.002C198.087 222.01 198.309 221.963 198.515 221.863C198.722 221.763 198.906 221.614 199.056 221.424L199.352 221.81C199.064 222.118 198.706 222.328 198.318 222.416C197.931 222.504 197.529 222.466 197.16 222.306C196.79 222.147 196.467 221.873 196.227 221.515C195.988 221.157 195.841 220.729 195.804 220.28C195.789 219.988 195.828 219.694 195.917 219.419C196.007 219.144 196.145 218.893 196.323 218.682C196.502 218.47 196.716 218.303 196.954 218.191C197.192 218.079 197.447 218.024 197.705 218.029C197.961 218.023 198.216 218.078 198.452 218.191C198.689 218.304 198.902 218.471 199.079 218.683C199.256 218.895 199.392 219.146 199.479 219.421C199.566 219.696 199.602 219.989 199.584 220.28C199.584 220.28 199.584 220.389 199.584 220.461ZM196.332 220.016H199.088C199.058 219.623 198.899 219.257 198.644 218.99C198.389 218.724 198.056 218.576 197.71 218.576C197.364 218.576 197.03 218.724 196.775 218.99C196.52 219.257 196.362 219.623 196.332 220.016Z" fill="white"/>
<path d="M202.615 218.029V218.595H202.489C202.303 218.584 202.117 218.62 201.945 218.7C201.774 218.781 201.619 218.904 201.494 219.06C201.369 219.217 201.276 219.403 201.221 219.606C201.167 219.809 201.152 220.023 201.179 220.232V222.496H200.641V218.053H201.148V218.92C201.283 218.619 201.497 218.372 201.759 218.212C202.021 218.053 202.32 217.989 202.615 218.029Z" fill="white"/>
<path d="M208.824 218.053L206.881 223.025C206.553 223.892 206.142 224.169 205.582 224.169C205.409 224.176 205.237 224.144 205.076 224.074C204.914 224.003 204.767 223.897 204.642 223.76L204.885 223.314C204.975 223.425 205.085 223.512 205.207 223.57C205.329 223.628 205.46 223.656 205.592 223.652C205.941 223.652 206.173 223.471 206.395 222.917L206.564 222.484L204.864 218.053H205.413L206.87 221.821L208.338 218.053H208.824Z" fill="white"/>
<path d="M209.088 220.28C209.086 219.832 209.201 219.393 209.417 219.02C209.634 218.646 209.944 218.354 210.306 218.181C210.669 218.007 211.068 217.961 211.454 218.047C211.84 218.133 212.195 218.348 212.473 218.664C212.752 218.98 212.942 219.383 213.02 219.822C213.097 220.262 213.058 220.717 212.908 221.132C212.758 221.546 212.504 221.9 212.177 222.15C211.851 222.399 211.466 222.532 211.073 222.532C210.811 222.544 210.549 222.494 210.304 222.385C210.059 222.276 209.837 222.111 209.65 221.899C209.464 221.688 209.318 221.435 209.221 221.157C209.124 220.878 209.079 220.58 209.088 220.28ZM212.509 220.28C212.497 219.957 212.401 219.645 212.235 219.383C212.068 219.122 211.837 218.921 211.571 218.808C211.306 218.694 211.016 218.673 210.74 218.745C210.463 218.818 210.211 218.981 210.016 219.216C209.82 219.45 209.689 219.745 209.64 220.064C209.59 220.383 209.624 220.711 209.736 221.008C209.849 221.305 210.036 221.557 210.274 221.734C210.511 221.911 210.789 222.004 211.073 222.002C211.267 222.001 211.457 221.955 211.634 221.866C211.811 221.778 211.97 221.649 212.102 221.488C212.234 221.326 212.335 221.136 212.4 220.928C212.464 220.721 212.491 220.5 212.478 220.28H212.509Z" fill="white"/>
<path d="M217.589 218.053V222.496H217.093V221.677C216.948 221.951 216.741 222.175 216.494 222.325C216.247 222.476 215.968 222.547 215.688 222.532C215.465 222.557 215.24 222.525 215.029 222.438C214.818 222.35 214.627 222.21 214.47 222.028C214.313 221.845 214.194 221.625 214.121 221.383C214.049 221.141 214.025 220.883 214.051 220.63V218.053H214.569V220.569C214.537 220.756 214.545 220.949 214.592 221.132C214.638 221.315 214.722 221.482 214.837 221.621C214.951 221.759 215.093 221.865 215.25 221.929C215.407 221.994 215.575 222.014 215.741 221.99C215.924 222.002 216.108 221.968 216.279 221.891C216.449 221.813 216.603 221.694 216.729 221.541C216.855 221.388 216.95 221.206 217.007 221.007C217.065 220.808 217.083 220.597 217.061 220.389V218.053H217.589Z" fill="white"/>
<path d="M221.021 218.029V218.595H220.895C220.709 218.584 220.523 218.62 220.351 218.701C220.179 218.781 220.025 218.904 219.9 219.061C219.775 219.217 219.682 219.404 219.627 219.606C219.573 219.809 219.558 220.023 219.585 220.233V222.496H219.057V218.053H219.564V218.92C219.699 218.621 219.911 218.375 220.171 218.216C220.431 218.057 220.728 217.992 221.021 218.029Z" fill="white"/>
<path d="M223.608 219.546C223.589 218.928 223.733 218.317 224.02 217.792C224.308 217.267 224.727 216.852 225.222 216.6C225.718 216.348 226.269 216.271 226.803 216.379C227.338 216.486 227.832 216.773 228.223 217.203C228.614 217.633 228.883 218.186 228.996 218.791C229.109 219.396 229.061 220.026 228.857 220.6C228.654 221.174 228.305 221.666 227.856 222.012C227.406 222.359 226.875 222.544 226.333 222.544C225.979 222.56 225.626 222.495 225.295 222.351C224.965 222.208 224.663 221.989 224.408 221.709C224.154 221.429 223.951 221.093 223.814 220.721C223.676 220.349 223.606 219.95 223.608 219.546ZM228.497 219.546C228.51 219.05 228.391 218.561 228.157 218.142C227.923 217.723 227.584 217.394 227.184 217.197C226.784 217.001 226.342 216.946 225.914 217.039C225.486 217.132 225.093 217.37 224.785 217.721C224.477 218.072 224.268 218.521 224.186 219.009C224.104 219.496 224.153 220.001 224.325 220.457C224.498 220.913 224.786 221.299 225.154 221.566C225.521 221.833 225.95 221.968 226.385 221.954C226.946 221.954 227.483 221.701 227.879 221.249C228.275 220.797 228.497 220.185 228.497 219.546Z" fill="white"/>
<path d="M231.201 217.126H229.385V216.584H233.609V217.126H231.782V222.496H231.233L231.201 217.126Z" fill="white"/>
<path d="M238.498 218.595C238.498 219.799 237.696 220.605 236.386 220.605H235.003V222.472H234.433V216.56H236.365C237.696 216.584 238.498 217.391 238.498 218.595ZM237.949 218.595C237.949 217.644 237.4 217.102 236.365 217.102H234.992V220.052H236.365C237.4 220.076 237.949 219.546 237.949 218.595Z" fill="white"/>
</g>
<g opacity="0.6">
<path d="M190.239 272.642L190.45 272.173C190.924 272.642 191.533 272.895 192.161 272.883C193.122 272.883 193.544 272.425 193.544 271.835C193.544 270.222 190.376 271.209 190.376 269.03C190.376 268.163 190.967 267.417 192.277 267.417C192.845 267.408 193.402 267.588 193.882 267.935L193.702 268.428C193.276 268.118 192.782 267.951 192.277 267.947C191.337 267.947 190.915 268.428 190.915 269.018C190.915 270.631 194.083 269.656 194.083 271.799C194.083 272.678 193.481 273.413 192.161 273.413C191.458 273.443 190.771 273.167 190.239 272.642Z" fill="white"/>
<path d="M198.528 271.33H195.276C195.3 271.766 195.475 272.172 195.762 272.461C196.049 272.75 196.425 272.897 196.807 272.871C197.031 272.879 197.254 272.832 197.46 272.732C197.666 272.632 197.85 272.482 198 272.293L198.296 272.678C198.11 272.921 197.879 273.113 197.62 273.24C197.36 273.367 197.079 273.426 196.797 273.413C196.529 273.431 196.26 273.386 196.009 273.28C195.757 273.174 195.528 273.009 195.335 272.796C195.142 272.583 194.99 272.327 194.889 272.043C194.788 271.76 194.74 271.455 194.748 271.149C194.735 270.857 194.775 270.565 194.865 270.29C194.955 270.016 195.093 269.766 195.271 269.555C195.449 269.344 195.663 269.177 195.9 269.064C196.137 268.951 196.392 268.894 196.649 268.898C196.906 268.89 197.162 268.944 197.4 269.056C197.638 269.168 197.852 269.335 198.03 269.547C198.208 269.759 198.346 270.011 198.433 270.287C198.521 270.563 198.557 270.857 198.539 271.149C198.539 271.149 198.528 271.27 198.528 271.33ZM195.276 270.884H198.032C198.002 270.492 197.844 270.126 197.589 269.859C197.334 269.593 197 269.445 196.654 269.445C196.308 269.445 195.975 269.593 195.72 269.859C195.464 270.126 195.306 270.492 195.276 270.884Z" fill="white"/>
<path d="M203.207 270.788V273.364H202.689V270.848C202.719 270.662 202.709 270.471 202.662 270.289C202.614 270.108 202.53 269.942 202.416 269.805C202.302 269.668 202.161 269.563 202.005 269.5C201.849 269.436 201.681 269.416 201.517 269.439C201.331 269.424 201.144 269.456 200.97 269.531C200.796 269.607 200.638 269.726 200.509 269.878C200.379 270.031 200.28 270.214 200.219 270.415C200.158 270.616 200.136 270.829 200.155 271.041V273.364H199.584V268.934H200.091V269.752C200.249 269.473 200.469 269.246 200.729 269.096C200.989 268.946 201.279 268.877 201.57 268.898C201.792 268.87 202.018 268.901 202.228 268.987C202.439 269.072 202.63 269.211 202.788 269.393C202.945 269.575 203.064 269.794 203.137 270.036C203.209 270.277 203.233 270.534 203.207 270.788Z" fill="white"/>
<path d="M208.201 267.104V273.365H207.695V272.486C207.54 272.779 207.319 273.019 207.056 273.182C206.792 273.345 206.495 273.425 206.195 273.413C205.695 273.371 205.227 273.115 204.886 272.696C204.544 272.278 204.354 271.727 204.354 271.155C204.354 270.583 204.544 270.033 204.886 269.614C205.227 269.195 205.695 268.939 206.195 268.898C206.487 268.886 206.777 268.961 207.036 269.115C207.295 269.269 207.515 269.497 207.673 269.777V267.104H208.201ZM207.684 271.149C207.672 270.826 207.576 270.515 207.41 270.253C207.244 269.992 207.014 269.792 206.748 269.678C206.483 269.564 206.195 269.541 205.918 269.613C205.642 269.684 205.39 269.847 205.194 270.08C204.998 270.314 204.866 270.607 204.815 270.925C204.765 271.243 204.797 271.571 204.908 271.868C205.019 272.165 205.204 272.419 205.441 272.597C205.677 272.775 205.954 272.871 206.237 272.871C206.434 272.875 206.628 272.832 206.81 272.746C206.991 272.66 207.155 272.532 207.29 272.37C207.426 272.209 207.531 272.017 207.599 271.807C207.667 271.596 207.696 271.373 207.684 271.149Z" fill="white"/>
<path d="M214.537 270.619V273.364H214.031V272.678C213.884 272.925 213.683 273.123 213.447 273.252C213.211 273.381 212.95 273.436 212.689 273.413C211.813 273.413 211.274 272.883 211.274 272.112C211.274 271.342 211.655 270.908 212.774 270.908H214.009V270.643C214.024 270.481 214.007 270.317 213.96 270.163C213.912 270.009 213.834 269.87 213.733 269.754C213.632 269.639 213.509 269.551 213.375 269.496C213.24 269.442 213.096 269.422 212.953 269.439C212.479 269.431 212.017 269.619 211.655 269.969L211.422 269.524C211.868 269.118 212.425 268.904 212.996 268.922C213.199 268.894 213.406 268.918 213.6 268.993C213.795 269.068 213.972 269.191 214.12 269.353C214.267 269.516 214.382 269.714 214.454 269.933C214.526 270.152 214.555 270.386 214.537 270.619ZM214.009 272.028V271.306H212.784C212.035 271.306 211.792 271.643 211.792 272.1C211.792 272.558 212.151 272.931 212.774 272.931C213.037 272.951 213.3 272.874 213.522 272.711C213.744 272.549 213.915 272.309 214.009 272.028Z" fill="white"/>
<path d="M219.574 268.934V272.775C219.616 273.077 219.594 273.385 219.511 273.676C219.428 273.966 219.286 274.23 219.097 274.446C218.908 274.662 218.676 274.824 218.421 274.918C218.167 275.013 217.896 275.037 217.631 274.99C216.975 275.019 216.331 274.78 215.815 274.316L216.079 273.858C216.512 274.257 217.054 274.47 217.61 274.46C218.603 274.46 219.046 273.955 219.046 272.859V272.293C218.879 272.571 218.653 272.795 218.389 272.944C218.124 273.094 217.831 273.164 217.536 273.148C217.277 273.17 217.016 273.131 216.771 273.033C216.525 272.935 216.3 272.78 216.109 272.579C215.919 272.377 215.767 272.133 215.663 271.861C215.559 271.589 215.505 271.295 215.505 270.999C215.505 270.702 215.559 270.409 215.663 270.137C215.767 269.865 215.919 269.621 216.109 269.419C216.3 269.217 216.525 269.063 216.771 268.965C217.016 268.867 217.277 268.828 217.536 268.85C217.836 268.833 218.135 268.906 218.403 269.06C218.672 269.214 218.9 269.444 219.067 269.729V268.886L219.574 268.934ZM219.067 271.041C219.078 270.705 219 270.374 218.844 270.089C218.689 269.804 218.461 269.578 218.192 269.442C217.923 269.305 217.625 269.263 217.334 269.321C217.044 269.379 216.776 269.534 216.564 269.767C216.352 270.001 216.206 270.301 216.144 270.629C216.083 270.958 216.109 271.3 216.219 271.611C216.329 271.923 216.518 272.19 216.763 272.378C217.007 272.566 217.294 272.666 217.589 272.666C217.782 272.68 217.975 272.647 218.156 272.571C218.337 272.495 218.503 272.377 218.642 272.224C218.781 272.071 218.89 271.887 218.964 271.684C219.037 271.48 219.072 271.261 219.067 271.041Z" fill="white"/>
<path d="M223.978 270.619V273.364H223.482V272.678C223.334 272.924 223.133 273.121 222.897 273.25C222.662 273.379 222.401 273.435 222.14 273.413C221.253 273.413 220.715 272.883 220.715 272.112C220.715 271.342 221.106 270.908 222.225 270.908H223.45V270.643C223.45 269.885 223.08 269.439 222.394 269.439C221.922 269.433 221.465 269.621 221.106 269.969L220.863 269.524C221.313 269.118 221.873 268.905 222.447 268.922C222.65 268.896 222.855 268.922 223.048 268.997C223.241 269.073 223.417 269.196 223.564 269.359C223.71 269.521 223.823 269.718 223.895 269.936C223.966 270.154 223.995 270.387 223.978 270.619ZM223.45 272.028V271.306H222.235C221.475 271.306 221.232 271.643 221.232 272.1C221.232 272.558 221.602 272.931 222.225 272.931C222.487 272.952 222.749 272.875 222.97 272.713C223.19 272.55 223.359 272.31 223.45 272.028Z" fill="white"/>
<path d="M225.288 267.525C225.303 267.421 225.35 267.326 225.42 267.258C225.491 267.19 225.581 267.153 225.673 267.153C225.766 267.153 225.855 267.19 225.926 267.258C225.996 267.326 226.043 267.421 226.058 267.525C226.043 267.629 225.996 267.724 225.926 267.792C225.855 267.86 225.766 267.898 225.673 267.898C225.581 267.898 225.491 267.86 225.42 267.792C225.35 267.724 225.303 267.629 225.288 267.525ZM225.404 268.934H225.932V273.364H225.404V268.934Z" fill="white"/>
<path d="M230.969 270.788V273.365H230.451V270.848C230.481 270.662 230.471 270.471 230.424 270.29C230.377 270.109 230.292 269.943 230.178 269.806C230.064 269.668 229.923 269.564 229.767 269.5C229.611 269.437 229.444 269.416 229.279 269.44C229.093 269.425 228.906 269.456 228.732 269.532C228.558 269.608 228.401 269.726 228.271 269.879C228.141 270.031 228.042 270.214 227.981 270.415C227.92 270.616 227.898 270.83 227.917 271.041V273.365H227.399V268.934H227.896V269.753C228.053 269.473 228.273 269.247 228.533 269.096C228.793 268.946 229.083 268.877 229.374 268.898C229.593 268.878 229.814 268.915 230.019 269.004C230.225 269.093 230.411 269.233 230.563 269.414C230.715 269.594 230.831 269.811 230.901 270.049C230.971 270.287 230.994 270.539 230.969 270.788Z" fill="white"/>
</g>
<path opacity="0.4" d="M240.198 303.464H181.347C179.022 303.461 176.792 302.406 175.149 300.53C173.506 298.654 172.583 296.111 172.583 293.459C172.583 290.808 173.506 288.265 175.149 286.389C176.792 284.513 179.022 283.457 181.347 283.454H240.198C242.526 283.454 244.758 284.508 246.403 286.385C248.049 288.261 248.974 290.806 248.974 293.459C248.974 296.113 248.049 298.658 246.403 300.534C244.758 302.41 242.526 303.464 240.198 303.464Z" fill="white"/>
<path d="M187.82 292.954C187.815 292.485 187.895 292.02 188.054 291.588C188.213 291.156 188.449 290.765 188.746 290.441C189.043 290.117 189.395 289.866 189.781 289.704C190.167 289.542 190.578 289.472 190.988 289.498C191.408 289.481 191.825 289.567 192.214 289.75C192.602 289.932 192.951 290.208 193.237 290.558L192.688 291.16C192.476 290.899 192.217 290.693 191.929 290.556C191.642 290.419 191.331 290.354 191.02 290.365C190.645 290.369 190.277 290.479 189.948 290.685C189.619 290.891 189.341 291.186 189.137 291.545C188.933 291.904 188.81 292.314 188.779 292.74C188.748 293.166 188.81 293.595 188.96 293.987C189.109 294.379 189.342 294.722 189.636 294.987C189.931 295.251 190.278 295.429 190.648 295.503C191.017 295.577 191.396 295.546 191.753 295.412C192.109 295.278 192.43 295.046 192.688 294.735L193.237 295.337C192.949 295.688 192.598 295.964 192.208 296.147C191.818 296.33 191.399 296.415 190.977 296.397C190.568 296.423 190.159 296.354 189.774 296.192C189.39 296.03 189.039 295.78 188.743 295.457C188.446 295.134 188.212 294.746 188.053 294.315C187.894 293.884 187.815 293.421 187.82 292.954Z" fill="white"/>
<path d="M193.808 292.954C193.778 292.233 193.939 291.519 194.268 290.903C194.598 290.287 195.082 289.798 195.657 289.499C196.233 289.199 196.874 289.103 197.498 289.223C198.122 289.343 198.7 289.673 199.158 290.171C199.616 290.669 199.933 291.311 200.068 292.016C200.202 292.721 200.149 293.456 199.914 294.126C199.679 294.795 199.274 295.37 198.75 295.775C198.226 296.179 197.608 296.396 196.976 296.397C196.566 296.422 196.157 296.351 195.773 296.189C195.388 296.026 195.037 295.776 194.741 295.454C194.444 295.132 194.208 294.744 194.048 294.314C193.887 293.884 193.806 293.421 193.808 292.954ZM199.246 292.954C199.252 292.433 199.122 291.921 198.873 291.484C198.623 291.048 198.265 290.706 197.845 290.502C197.424 290.298 196.96 290.242 196.511 290.34C196.062 290.438 195.649 290.686 195.324 291.053C194.999 291.42 194.778 291.889 194.687 292.399C194.597 292.91 194.642 293.44 194.817 293.922C194.992 294.403 195.289 294.815 195.669 295.103C196.05 295.392 196.497 295.545 196.955 295.542C197.256 295.554 197.557 295.495 197.838 295.369C198.12 295.244 198.375 295.054 198.59 294.811C198.804 294.569 198.973 294.279 199.086 293.96C199.199 293.64 199.253 293.298 199.246 292.954Z" fill="white"/>
<path d="M206.469 289.631V296.373H205.772L202.224 291.34V296.373H201.379V289.631H202.076L205.625 294.651V289.631H206.469Z" fill="white"/>
<path d="M209.416 290.413H207.388V289.631H212.256V290.461H210.25V296.373H209.416V290.413Z" fill="white"/>
<path d="M213.196 289.631H214.041V296.373H213.196V289.631Z" fill="white"/>
<path d="M220.905 289.631V296.373H220.208L216.66 291.34V296.373H215.815V289.631H216.48L220.028 294.651V289.631H220.905Z" fill="white"/>
<path d="M222.626 293.411V289.631H223.471V293.423C223.471 294.916 224.073 295.59 225.14 295.59C226.206 295.59 226.808 294.916 226.808 293.423V289.631H227.632V293.459C227.632 294.216 227.368 294.942 226.899 295.477C226.43 296.012 225.793 296.313 225.129 296.313C224.465 296.313 223.829 296.012 223.359 295.477C222.89 294.942 222.626 294.216 222.626 293.459V293.411Z" fill="white"/>
<path d="M233.651 295.482V296.325H229.363V289.631H233.587V290.461H230.208V292.532H233.165V293.351H230.208V295.53L233.651 295.482Z" fill="white"/>
<path opacity="0.1" d="M313.093 137.349C278.552 176.804 189.837 264.624 89.3164 258.122V137.349H313.093Z" fill="white"/>
<path opacity="0.1" d="M339.124 209.866V326.352H188.729C194.494 302.826 206.026 270.608 228.392 247.587C268.625 206.17 315.322 206.29 339.124 209.866Z" fill="white"/>
<path d="M370.899 118.772L374.405 136.422L377.911 118.772H370.899Z" fill="#FB0B0F"/>
<path opacity="0.7" d="M370.899 118.772L374.405 136.422L377.911 118.772H370.899Z" fill="white"/>
<path d="M413.646 68.7939H335.175C330.165 68.7939 326.104 73.4244 326.104 79.1362V112.342C326.104 118.054 330.165 122.685 335.175 122.685H413.646C418.656 122.685 422.717 118.054 422.717 112.342V79.1362C422.717 73.4244 418.656 68.7939 413.646 68.7939Z" fill="#FB0B0F"/>
<path opacity="0.7" d="M413.646 68.7939H335.175C330.165 68.7939 326.104 73.4244 326.104 79.1362V112.342C326.104 118.054 330.165 122.685 335.175 122.685H413.646C418.656 122.685 422.717 118.054 422.717 112.342V79.1362C422.717 73.4244 418.656 68.7939 413.646 68.7939Z" fill="white"/>
<g opacity="0.5">
<path d="M345.397 88.5637V90.8874H344.563V88.5637L342.218 84.1812H343.126L345.017 87.7931L346.917 84.1812H347.752L345.397 88.5637Z" fill="#263238"/>
<path d="M347.562 88.3469C347.553 87.8187 347.683 87.2996 347.934 86.8558C348.185 86.4119 348.547 86.0634 348.973 85.8546C349.398 85.6458 349.869 85.5862 350.324 85.6833C350.78 85.7805 351.199 86.0301 351.53 86.4002C351.861 86.7703 352.087 87.2443 352.181 87.7617C352.274 88.2791 352.23 88.8166 352.055 89.3056C351.88 89.7946 351.581 90.2131 351.196 90.5076C350.811 90.8022 350.359 90.9595 349.895 90.9596C349.588 90.9764 349.282 90.9206 348.995 90.7959C348.708 90.6711 348.447 90.4801 348.228 90.2348C348.008 89.9894 347.836 89.6951 347.722 89.3702C347.607 89.0453 347.552 88.697 347.562 88.3469ZM351.395 88.3469C351.412 88.1096 351.386 87.8706 351.319 87.6452C351.251 87.4199 351.143 87.213 351.001 87.0376C350.86 86.8623 350.688 86.7223 350.497 86.6266C350.306 86.5308 350.099 86.4814 349.89 86.4814C349.681 86.4814 349.474 86.5308 349.283 86.6266C349.092 86.7223 348.92 86.8623 348.778 87.0376C348.637 87.213 348.529 87.4199 348.461 87.6452C348.394 87.8706 348.368 88.1096 348.385 88.3469C348.368 88.5843 348.394 88.8233 348.461 89.0486C348.529 89.274 348.637 89.4809 348.778 89.6562C348.92 89.8316 349.092 89.9716 349.283 90.0673C349.474 90.1631 349.681 90.2125 349.89 90.2125C350.099 90.2125 350.306 90.1631 350.497 90.0673C350.688 89.9716 350.86 89.8316 351.001 89.6562C351.143 89.4809 351.251 89.274 351.319 89.0486C351.386 88.8233 351.412 88.5843 351.395 88.3469Z" fill="#263238"/>
<path d="M357.509 85.7942V90.8991H356.749V90.1286C356.573 90.3969 356.343 90.6127 356.078 90.7573C355.814 90.902 355.522 90.9713 355.228 90.9593C354.966 90.9901 354.701 90.9534 354.453 90.8519C354.205 90.7505 353.98 90.5869 353.794 90.3732C353.609 90.1595 353.468 89.9011 353.382 89.6171C353.295 89.3331 353.266 89.0306 353.296 88.7319V85.7942H354.109V88.6356C354.109 89.6349 354.553 90.1286 355.324 90.1286C355.517 90.1429 355.71 90.1083 355.89 90.027C356.071 89.9458 356.233 89.8201 356.365 89.6588C356.497 89.4976 356.596 89.3049 356.656 89.0947C356.715 88.8845 356.732 88.6619 356.707 88.443V85.7942H357.509Z" fill="#263238"/>
<path d="M361.469 85.7461V86.6491H361.279C361.082 86.6345 360.885 86.67 360.701 86.7532C360.518 86.8363 360.353 86.965 360.218 87.1298C360.084 87.2946 359.983 87.4915 359.924 87.7062C359.865 87.9208 359.848 88.1479 359.875 88.3708V90.9113H359.041V85.7943H359.822V86.6612C359.991 86.3452 360.236 86.0911 360.528 85.929C360.82 85.7668 361.147 85.7034 361.469 85.7461Z" fill="#263238"/>
<path d="M364.437 87.528C364.409 86.8078 364.571 86.0947 364.902 85.4805C365.234 84.8663 365.718 84.3791 366.294 84.0815C366.87 83.784 367.511 83.6897 368.134 83.8109C368.757 83.9321 369.335 84.2632 369.792 84.7615C370.248 85.2599 370.564 85.9027 370.698 86.6073C370.832 87.3119 370.777 88.046 370.542 88.7152C370.307 89.3843 369.902 89.9579 369.378 90.3622C368.855 90.7664 368.237 90.9828 367.605 90.9835C367.194 91.0099 366.783 90.9399 366.397 90.7776C366.012 90.6154 365.659 90.3644 365.362 90.0404C365.065 89.7163 364.83 89.3261 364.67 88.8939C364.511 88.4617 364.432 87.9968 364.437 87.528ZM369.875 87.528C369.881 87.0069 369.751 86.4955 369.502 86.0589C369.252 85.6222 368.894 85.2802 368.474 85.0764C368.053 84.8725 367.589 84.816 367.14 84.9142C366.691 85.0123 366.278 85.2606 365.953 85.6274C365.628 85.9942 365.407 86.4629 365.316 86.9738C365.226 87.4847 365.271 88.0147 365.446 88.4962C365.621 88.9777 365.918 89.3889 366.298 89.6775C366.679 89.9661 367.126 90.1189 367.583 90.1166C367.885 90.1282 368.186 90.0694 368.467 89.9437C368.749 89.818 369.004 89.6281 369.219 89.3858C369.433 89.1434 369.602 88.8536 369.715 88.5341C369.828 88.2147 369.882 87.8723 369.875 87.528Z" fill="#263238"/>
<path d="M373.106 84.9516H371.079V84.1208H375.936V84.9516H373.909V90.8512H373.074L373.106 84.9516Z" fill="#263238"/>
<path d="M381.66 86.5167C381.66 87.9736 380.731 88.8645 379.189 88.8645H377.732V90.8993H376.887V84.1689H379.189C380.731 84.1689 381.66 85.0479 381.66 86.5167ZM380.815 86.5167C380.815 85.5535 380.245 84.9997 379.168 84.9997H377.732V88.0217H379.168C380.245 88.0217 380.815 87.4799 380.815 86.5167Z" fill="#263238"/>
<path d="M384.775 87.5281C384.803 86.8313 385.008 86.1589 385.364 85.5919C385.721 85.0249 386.213 84.5877 386.783 84.3331C387.352 84.0784 387.974 84.0172 388.574 84.1569C389.173 84.2965 389.724 84.6311 390.161 85.1201L389.611 85.7341C389.4 85.472 389.141 85.2645 388.854 85.1254C388.566 84.9863 388.255 84.9188 387.943 84.9274C387.341 84.9274 386.763 85.2002 386.338 85.6856C385.912 86.1711 385.673 86.8295 385.673 87.516C385.673 88.2026 385.912 88.861 386.338 89.3464C386.763 89.8319 387.341 90.1046 387.943 90.1046C388.255 90.1132 388.566 90.0457 388.854 89.9066C389.141 89.7675 389.4 89.56 389.611 89.2979L390.161 89.912C389.724 90.401 389.173 90.7355 388.574 90.8752C387.974 91.0148 387.352 90.9536 386.783 90.699C386.213 90.4443 385.721 90.0071 385.364 89.4402C385.008 88.8732 384.803 88.2007 384.775 87.504V87.5281Z" fill="#263238"/>
<path d="M390.646 88.3469C390.638 87.8187 390.767 87.2996 391.019 86.8558C391.27 86.4119 391.631 86.0634 392.057 85.8546C392.483 85.6458 392.953 85.5862 393.409 85.6833C393.864 85.7805 394.284 86.0301 394.614 86.4002C394.945 86.7703 395.172 87.2443 395.265 87.7617C395.359 88.2791 395.315 88.8166 395.14 89.3056C394.964 89.7946 394.665 90.2131 394.281 90.5076C393.896 90.8022 393.443 90.9595 392.98 90.9596C392.673 90.9764 392.366 90.9206 392.079 90.7959C391.793 90.6711 391.531 90.4801 391.312 90.2348C391.093 89.9894 390.921 89.6951 390.806 89.3702C390.691 89.0453 390.637 88.697 390.646 88.3469ZM394.479 88.3469C394.497 88.1096 394.471 87.8706 394.403 87.6452C394.335 87.4199 394.227 87.213 394.086 87.0376C393.945 86.8623 393.773 86.7223 393.581 86.6266C393.39 86.5308 393.183 86.4814 392.974 86.4814C392.766 86.4814 392.559 86.5308 392.368 86.6266C392.176 86.7223 392.004 86.8623 391.863 87.0376C391.722 87.213 391.614 87.4199 391.546 87.6452C391.478 87.8706 391.452 88.1096 391.47 88.3469C391.452 88.5843 391.478 88.8233 391.546 89.0486C391.614 89.274 391.722 89.4809 391.863 89.6562C392.004 89.8316 392.176 89.9716 392.368 90.0673C392.559 90.1631 392.766 90.2125 392.974 90.2125C393.183 90.2125 393.39 90.1631 393.581 90.0673C393.773 89.9716 393.945 89.8316 394.086 89.6562C394.227 89.4809 394.335 89.274 394.403 89.0486C394.471 88.8233 394.497 88.5843 394.479 88.3469Z" fill="#263238"/>
<path d="M400.647 83.7476V90.8872H399.876V90.0806C399.692 90.3614 399.45 90.587 399.173 90.738C398.895 90.889 398.589 90.9609 398.282 90.9474C397.702 90.9025 397.159 90.6084 396.763 90.1245C396.366 89.6406 396.146 89.003 396.146 88.3408C396.146 87.6786 396.366 87.041 396.763 86.5571C397.159 86.0732 397.702 85.7791 398.282 85.7341C398.58 85.7238 398.876 85.7923 399.147 85.9343C399.418 86.0764 399.657 86.2881 399.844 86.5529V83.7476H400.647ZM399.844 88.3348C399.83 87.9978 399.729 87.6731 399.554 87.4011C399.379 87.129 399.138 86.9215 398.86 86.8044C398.583 86.6873 398.281 86.6657 397.993 86.7424C397.705 86.819 397.443 86.9905 397.24 87.2354C397.036 87.4804 396.9 87.7882 396.849 88.1204C396.798 88.4527 396.833 88.7948 396.951 89.1043C397.069 89.4138 397.263 89.677 397.511 89.8613C397.759 90.0455 398.049 90.1427 398.345 90.1408C398.55 90.1464 398.753 90.1032 398.942 90.0139C399.131 89.9246 399.302 89.7912 399.443 89.6223C399.584 89.4533 399.693 89.2526 399.762 89.0329C399.831 88.8133 399.859 88.5796 399.844 88.3468V88.3348Z" fill="#263238"/>
<path d="M406.212 88.6598H402.59C402.64 89.0973 402.836 89.4961 403.136 89.7739C403.437 90.0517 403.82 90.1873 404.205 90.1528C404.446 90.1626 404.686 90.1128 404.909 90.0068C405.131 89.9008 405.331 89.7411 405.494 89.5387L405.948 90.1287C405.617 90.511 405.196 90.7759 404.736 90.8915C404.276 91.007 403.797 90.9682 403.355 90.7798C402.914 90.5913 402.53 90.2613 402.25 89.8295C401.97 89.3978 401.806 88.8828 401.777 88.3468C401.765 88.0048 401.815 87.6636 401.923 87.3445C402.032 87.0254 402.197 86.735 402.407 86.4913C402.618 86.2476 402.871 86.0557 403.149 85.9276C403.427 85.7994 403.726 85.7376 404.026 85.7461C404.329 85.729 404.631 85.7864 404.913 85.9145C405.195 86.0427 405.449 86.2385 405.659 86.4887C405.868 86.7389 406.028 87.0376 406.127 87.3644C406.226 87.6913 406.262 88.0386 406.233 88.3829C406.231 88.4756 406.223 88.568 406.212 88.6598ZM402.59 87.9976H405.504C405.473 87.5891 405.309 87.2087 405.044 86.9315C404.779 86.6543 404.433 86.5004 404.073 86.5004C403.714 86.5004 403.367 86.6543 403.102 86.9315C402.837 87.2087 402.673 87.5891 402.642 87.9976H402.59Z" fill="#263238"/>
</g>
<g opacity="0.5">
<path d="M362.208 101.447C362.208 105.239 360.339 107.262 357.604 107.262C356.761 107.296 355.926 107.071 355.186 106.612L355.714 105.408C356.285 105.778 356.937 105.958 357.593 105.925C359.568 105.925 360.825 104.517 360.825 101.736V101.35C360.498 101.839 360.071 102.227 359.581 102.481C359.091 102.735 358.553 102.847 358.016 102.807C357.6 102.859 357.179 102.812 356.78 102.667C356.381 102.522 356.013 102.284 355.7 101.968C355.387 101.652 355.135 101.264 354.961 100.83C354.787 100.396 354.694 99.9251 354.689 99.448C354.699 98.9554 354.798 98.4703 354.978 98.0226C355.159 97.575 355.418 97.1742 355.739 96.8449C356.061 96.5155 356.438 96.2647 356.848 96.1078C357.257 95.9508 357.691 95.8911 358.121 95.9323C360.73 95.9082 362.208 97.9069 362.208 101.447ZM360.487 99.3998C360.487 98.256 359.684 97.2567 358.164 97.2567C357.898 97.2248 357.63 97.2566 357.376 97.3502C357.121 97.4438 356.887 97.597 356.688 97.8001C356.489 98.0031 356.33 98.2514 356.22 98.5291C356.111 98.8067 356.053 99.1074 356.052 99.4119C356.052 100.712 356.896 101.555 358.259 101.555C358.53 101.586 358.804 101.555 359.065 101.463C359.325 101.37 359.567 101.219 359.775 101.018C359.983 100.817 360.153 100.57 360.276 100.292C360.398 100.014 360.47 99.7103 360.487 99.3998Z" fill="#263238"/>
<path d="M363.539 101.591C363.539 97.9788 365.239 95.908 367.52 95.908C369.801 95.908 371.48 97.9788 371.48 101.591C371.48 105.203 369.78 107.262 367.52 107.262C365.26 107.262 363.539 105.203 363.539 101.591ZM370.086 101.591C370.086 98.7494 369.03 97.3287 367.52 97.3287C366.01 97.3287 364.932 98.7494 364.932 101.591C364.932 104.432 365.988 105.853 367.52 105.853C369.051 105.853 370.086 104.432 370.086 101.591Z" fill="#263238"/>
<path d="M379.622 105.757V107.141H372.621V106.058L376.591 101.699C377.647 100.555 377.806 99.8571 377.806 99.1588C377.806 98.027 377.098 97.3287 375.694 97.3287C375.227 97.2973 374.76 97.3897 374.329 97.5986C373.898 97.8075 373.516 98.1272 373.212 98.5327L372.262 97.5936C372.708 97.0296 373.259 96.5858 373.875 96.2943C374.49 96.0028 375.155 95.8709 375.82 95.908C377.848 95.908 379.157 97.112 379.157 99.0022C379.142 99.6841 378.99 100.353 378.714 100.958C378.437 101.563 378.044 102.088 377.563 102.494L374.585 105.757H379.622Z" fill="#263238"/>
<path d="M383.783 96.04V107.141H382.399V97.4246H380.161V96.04H383.783Z" fill="#263238"/>
<path d="M385.905 101.591C385.905 97.9788 387.605 95.908 389.886 95.908C392.167 95.908 393.846 97.9788 393.846 101.591C393.846 105.203 392.157 107.262 389.886 107.262C387.616 107.262 385.905 105.203 385.905 101.591ZM392.463 101.591C392.463 98.7494 391.407 97.3287 389.886 97.3287C388.366 97.3287 387.299 98.7494 387.299 101.591C387.299 104.432 388.355 105.853 389.886 105.853C391.418 105.853 392.463 104.432 392.463 101.591Z" fill="#263238"/>
</g>
<path d="M365.724 170.543C372.028 175.517 379.079 179.129 386.527 181.199H386.601C386.044 181.18 385.495 181.357 385.028 181.704C384.568 182.032 384.201 182.504 383.972 183.065C383.895 183.237 383.851 183.426 383.845 183.619C384.014 181.09 383.053 178.249 382.377 175.516C381.163 171.193 379.737 166.763 378.312 162.416L382.388 159.924C385.756 165.812 397.003 184.449 389.326 189.843C388.01 190.718 386.454 191.002 384.964 190.638C376.599 189.225 368.622 185.678 361.627 180.26C361.141 179.874 360.719 179.537 360.148 179.056L365.745 170.519L365.724 170.543Z" fill="#DC897C"/>
<path d="M364.542 169.231C368.239 169.739 371.75 171.365 374.711 173.939L370.487 188.844C370.487 188.844 349.958 167.269 364.542 169.231Z" fill="#FB0B0F"/>
<path opacity="0.6" d="M364.499 181.765C366.378 184.219 368.366 186.561 370.455 188.784L372.198 182.656L374.711 173.879C371.752 171.306 368.245 169.681 364.552 169.171C355.576 168.027 359.863 175.685 364.499 181.765Z" fill="white"/>
<path opacity="0.2" d="M364.499 181.765C366.378 184.218 368.366 186.561 370.455 188.784L372.197 182.655C370.006 180.709 367.309 179.65 364.531 179.646C364.468 180.35 364.457 181.058 364.499 181.765Z" fill="black"/>
<path d="M318.912 147.186C318.912 147.186 309.091 184.413 329.778 189.41C350.465 194.406 352.704 177.274 352.704 177.274C352.704 177.274 335.702 147.944 318.912 147.186Z" fill="#263238"/>
<path d="M314.065 159.515C314.027 159.527 313.987 159.527 313.949 159.515C313.919 159.498 313.893 159.475 313.871 159.447C313.849 159.418 313.833 159.384 313.823 159.348C313.813 159.312 313.81 159.274 313.813 159.237C313.817 159.199 313.827 159.163 313.843 159.13C314.152 158.487 314.588 157.935 315.115 157.518C315.643 157.1 316.249 156.827 316.885 156.722C316.95 156.724 317.013 156.753 317.062 156.804C317.11 156.855 317.141 156.924 317.149 156.999C317.152 157.037 317.148 157.075 317.138 157.111C317.128 157.147 317.111 157.181 317.09 157.21C317.068 157.239 317.042 157.263 317.012 157.281C316.982 157.298 316.95 157.309 316.916 157.312C316.366 157.414 315.843 157.658 315.387 158.025C314.932 158.392 314.555 158.873 314.287 159.431C314.26 159.466 314.225 159.492 314.186 159.507C314.147 159.522 314.105 159.524 314.065 159.515Z" fill="#263238"/>
<path d="M317.021 164.138C316.889 165.589 316.602 167.016 316.166 168.388C316.493 168.611 316.867 168.729 317.248 168.729C317.63 168.729 318.004 168.611 318.331 168.388L317.021 164.138Z" fill="#DE5753"/>
<path d="M315.026 162.513C315.248 163.175 315.744 163.572 316.082 163.404C316.42 163.235 316.61 162.573 316.388 161.911C316.166 161.249 315.67 160.851 315.332 161.02C314.994 161.188 314.815 161.851 315.026 162.513Z" fill="#263238"/>
<path d="M315.501 160.984H314.054C314.054 160.984 315.089 161.897 315.501 160.984Z" fill="#263238"/>
<path d="M336.051 168.762C336.015 168.87 335.965 168.971 335.903 169.063C335.808 169.267 335.703 169.46 335.597 169.665C334.978 170.933 334.154 172.057 333.168 172.976C330 175.853 327.244 176.72 324.847 175.889L324.499 175.757C320.94 174.107 318.163 169.255 315.956 162.838C314.976 160.327 314.359 157.652 314.129 154.916C314.129 154.916 314.129 154.819 314.129 154.795C314.129 154.771 314.129 154.579 314.129 154.482C314.046 152.914 314.308 151.348 314.891 149.924C315.473 148.501 316.358 147.266 317.466 146.331C318.412 145.484 319.439 144.761 320.528 144.176C331.077 138.313 341.342 157.408 336.051 168.762Z" fill="#E4897B"/>
<path opacity="0.2" d="M335.597 169.665C334.978 170.933 334.154 172.057 333.168 172.976C330 175.853 327.244 176.72 324.847 175.889C327.178 175.245 329.277 173.794 330.855 171.735C331.465 171.016 332.205 170.458 333.024 170.1C333.844 169.742 334.722 169.593 335.597 169.665Z" fill="black"/>
<path d="M314.075 154.843C314.075 154.843 317.021 163.681 325.628 163.524C325.628 163.524 332.344 170.748 336.874 168.449C343.052 165.33 344.319 152.52 338.025 143.574C329.852 131.968 312.027 140.335 314.075 154.843Z" fill="#263238"/>
<path d="M321.024 163.018C320.475 161.682 320.485 158.949 322.418 158.275C324.35 157.6 327.698 162.284 323.537 165.944C322.946 166.474 322.164 165.787 321.024 163.018Z" fill="#E4897B"/>
<path d="M323.336 138.758C323.336 138.758 315.353 140.552 312.776 145.982C309.756 152.291 309.608 157.179 317.634 160.43C317.634 160.43 327.782 149.594 332.154 148.39C334.702 147.669 337.298 147.194 339.915 146.969C337.001 137.349 326.557 134.773 323.336 138.758Z" fill="#263238"/>
<path d="M331.076 173.204C331.076 173.204 336.568 177.539 337.993 184.69L355.111 173.301C355.111 173.301 341.71 169.821 339.408 163.909C339.408 163.909 330.453 165.174 331.076 173.204Z" fill="#E4897B"/>
<path d="M348.079 220.1C348.079 220.1 325.903 195.261 323.516 187.459C323.516 187.459 332.841 170.905 351.479 170.206C370.117 169.508 382.8 209.938 382.8 209.938L348.079 220.1Z" fill="#FB0B0F"/>
<path opacity="0.6" d="M382.8 209.95L348.089 220.112C348.089 220.112 343.253 214.682 337.846 208.072C336.178 206.013 334.435 203.846 332.756 201.703C328.353 196.008 324.467 190.445 323.527 187.423C323.527 187.423 332.841 170.868 351.479 170.17C370.118 169.472 382.8 209.95 382.8 209.95Z" fill="white"/>
<path d="M327.36 159.286C327.36 159.286 330.602 171.567 341.986 175.636C353.369 179.706 350.508 192.962 361.543 191.397C367.414 190.566 372.441 176.949 354.436 164.909C343.939 157.913 348.016 134.917 325.734 137.072C325.713 137.084 330.338 152.845 327.36 159.286Z" fill="#263238"/>
<path d="M338.416 407.297L333.136 405.924C333.928 375.824 337.74 339.428 341.109 312.085C341.637 307.799 342.165 303.753 342.65 299.973C342.893 298.179 343.115 296.457 343.337 294.796C344.393 286.596 345.364 280.119 345.945 276.11C346.378 273.184 346.621 271.583 346.621 271.583L365.629 276.868L364.267 282.334L359.779 300.394L359.272 302.453L356.294 314.36L351.246 334.624C351.563 365.217 338.416 407.297 338.416 407.297Z" fill="#E4897B"/>
<path d="M383.613 402.264L378.206 401.951C374.088 369.588 372.356 329.109 371.606 300.972C371.501 296.614 371.406 292.544 371.332 288.836C371.332 288.655 371.332 288.475 371.332 288.294C371.195 280.962 371.131 275.134 371.1 271.438C371.1 268.548 371.1 266.971 371.1 266.971L390.604 268.428L389.77 277.699L388.545 291.304L388.302 293.977L387.457 303.248L385.176 328.158C390.16 358.258 383.613 402.264 383.613 402.264Z" fill="#E4897B"/>
<path d="M385.64 401.06C385.64 400.29 377.298 400.892 377.298 400.892C377.298 400.892 372.176 406.827 367.202 408.116C362.229 409.404 365.016 412.859 370.571 412.859H384.299C388.27 412.907 385.799 409.067 385.64 401.06Z" fill="#263238"/>
<path d="M372.187 403.095C372.067 402.97 371.983 402.806 371.947 402.625C371.911 402.444 371.925 402.255 371.986 402.083C372.019 401.949 372.075 401.823 372.152 401.713C372.228 401.604 372.322 401.513 372.43 401.445C373.022 401.17 373.669 401.087 374.299 401.205C373.623 400.795 373.032 400.302 373 399.796C373 399.471 373.169 399.206 373.549 399.001C373.715 398.915 373.895 398.871 374.077 398.871C374.259 398.871 374.439 398.915 374.605 399.001C375.735 399.543 376.432 401.758 376.464 401.843C376.486 401.904 376.486 401.974 376.464 402.035V402.096C376.444 402.122 376.419 402.143 376.39 402.156C375.313 402.785 374.148 403.192 372.947 403.36C372.674 403.38 372.404 403.286 372.187 403.095ZM372.652 401.891C372.594 401.924 372.543 401.97 372.502 402.026C372.46 402.081 372.428 402.146 372.409 402.216C372.324 402.589 372.409 402.685 372.409 402.722C372.81 403.095 374.331 402.565 375.577 401.975C374.629 401.634 373.616 401.601 372.652 401.879V401.891ZM373.708 399.483C373.592 399.483 373.401 399.663 373.412 399.796C373.412 400.217 374.626 401 375.851 401.494C375.579 400.659 375.079 399.947 374.426 399.459C374.32 399.402 374.205 399.373 374.088 399.375C373.968 399.374 373.849 399.403 373.739 399.459L373.708 399.483Z" fill="#263238"/>
<path d="M341.088 401.06C341.088 400.29 332.756 400.892 332.756 400.892C332.756 400.892 327.634 406.827 322.661 408.116C317.687 409.404 320.464 412.859 326.019 412.859H339.747C343.728 412.907 341.267 409.067 341.088 401.06Z" fill="#263238"/>
<path d="M327.645 403.095C327.527 402.968 327.444 402.804 327.409 402.624C327.373 402.444 327.385 402.256 327.444 402.083C327.477 401.949 327.533 401.823 327.609 401.713C327.685 401.604 327.78 401.513 327.888 401.445C328.479 401.171 329.126 401.087 329.757 401.205C329.081 400.795 328.489 400.302 328.468 399.796C328.468 399.475 328.648 399.21 329.007 399.001C329.173 398.915 329.353 398.871 329.535 398.871C329.717 398.871 329.897 398.915 330.063 399.001C331.193 399.543 331.89 401.758 331.921 401.843C331.934 401.873 331.941 401.906 331.941 401.939C331.941 401.972 331.934 402.005 331.921 402.035C331.921 402.035 331.921 402.035 331.921 402.096L331.848 402.156C330.766 402.782 329.598 403.19 328.394 403.36C328.125 403.375 327.859 403.282 327.645 403.095ZM328.109 401.891C328.053 401.924 328.004 401.97 327.964 402.026C327.924 402.082 327.894 402.147 327.877 402.216C327.792 402.589 327.877 402.685 327.93 402.722C328.32 403.095 329.841 402.565 331.098 401.975C330.13 401.62 329.093 401.587 328.109 401.879V401.891ZM329.165 399.483C329.049 399.483 328.859 399.663 328.87 399.796C328.87 400.217 330.084 401 331.32 401.494C331.043 400.659 330.54 399.946 329.883 399.459C329.778 399.401 329.662 399.372 329.545 399.375C329.425 399.374 329.307 399.403 329.197 399.459L329.165 399.483Z" fill="#263238"/>
<path d="M343.58 280.637L348.079 244.517V220.076C359.938 209.914 382.8 209.914 382.8 209.914C382.8 209.914 400.361 237.69 391.829 283.358L369.779 286.97L368.375 278.445L365.608 286.97L343.58 280.637Z" fill="#263238"/>
<path opacity="0.2" d="M343.58 280.637L348.079 244.517V220.076C359.938 209.914 382.8 209.914 382.8 209.914C382.8 209.914 400.361 237.69 391.829 283.358L369.779 286.97L368.375 278.445L365.608 286.97L343.58 280.637Z" fill="white"/>
<path opacity="0.2" d="M368.375 278.578L372.599 263.54C372.599 263.54 377.055 261.999 382.779 251.909C382.8 251.909 381.807 269.078 368.375 278.578Z" fill="black"/>
<path opacity="0.2" d="M358.977 227.023L368.871 225.951C370.45 230.169 370.998 234.795 370.455 239.339L364.119 243.686L359.526 239.965C359.526 239.965 359.378 230.418 358.977 227.023Z" fill="black"/>
<path opacity="0.2" d="M382.8 224.266C384.128 227.987 385.108 231.857 385.725 235.812L389.231 237.51L391.121 234.825C391.121 234.825 389.843 226.963 387.679 223.11L382.8 224.266Z" fill="black"/>
<path d="M343.168 278.578L366.569 286.404L365.101 289.992L342.873 282.19L343.168 278.578Z" fill="#263238"/>
<path d="M368.872 285.886L369.262 289.185L392.209 285.886L392.558 281.732L368.872 285.886Z" fill="#263238"/>
<path d="M373.687 214.983C377.44 214.26 381.233 213.838 385.039 213.719L383.624 211.058C379.923 210.946 376.22 211.196 372.557 211.804L373.687 214.983Z" fill="#263238"/>
<path d="M352.64 218.258C349.61 219.751 347.867 220.87 347.867 220.87V224.157C349.571 223.178 351.278 222.283 352.989 221.472L352.64 218.258Z" fill="#263238"/>
<path d="M354.098 221.003C359.968 218.379 366.057 216.447 372.272 215.236L371.216 212.033C365.191 213.178 359.303 215.109 353.665 217.788L354.098 221.003Z" fill="#263238"/>
<path d="M290.653 230.406L284.655 227.661L283.599 234.114C283.599 234.114 289.006 237.847 291.266 233.404L290.653 230.406Z" fill="#E4897B"/>
<path d="M281.677 228.058L279.755 233.043L283.641 234.114L284.655 227.661L281.677 228.058Z" fill="#E4897B"/>
<path d="M382.705 161.044L381.997 153.724L376.527 155.746C376.527 155.746 376.189 162.97 380.698 163.115L382.705 161.044Z" fill="#E4897B"/>
<path d="M380.276 150.918L375.514 151.352L376.527 155.746L381.997 153.724L380.276 150.918Z" fill="#E4897B"/>
<path opacity="0.2" d="M337.846 208.108C336.178 206.049 334.435 203.882 332.756 201.739C332.112 197.26 331.7 193.311 331.7 193.311C333.712 195.012 335.325 197.252 336.397 199.833C337.468 202.414 337.966 205.256 337.846 208.108Z" fill="black"/>
<path d="M332.312 191.24C329.894 202.359 326.242 213.08 321.446 223.146C316.694 233.44 298.626 234.68 289.544 234.945L289.122 229.696C294.592 228.227 311.594 224.362 313.917 218.739C317.71 208.998 320.831 198.934 323.252 188.64L332.312 191.216V191.24Z" fill="#DC897C"/>
<path d="M327.138 182.162C321.974 186.015 319.208 196.032 318.331 200.932L329.06 209.938L334.477 203.918C336.674 190.096 329.102 180.705 327.138 182.162Z" fill="#FB0B0F"/>
<path opacity="0.6" d="M327.138 182.162C321.974 186.015 319.208 196.032 318.331 200.932L329.06 209.938L334.477 203.918C336.674 190.096 329.102 180.705 327.138 182.162Z" fill="white"/>
<path d="M379.516 163.392L371.849 164.331C371.741 164.334 371.634 164.312 371.534 164.266C371.433 164.22 371.343 164.15 371.267 164.062C371.192 163.974 371.133 163.869 371.095 163.753C371.057 163.638 371.041 163.515 371.047 163.392L370.582 144.886C370.567 144.625 370.636 144.366 370.776 144.158C370.916 143.95 371.117 143.806 371.342 143.755L378.998 142.827C379.107 142.822 379.215 142.843 379.316 142.889C379.417 142.934 379.508 143.004 379.584 143.092C379.66 143.181 379.718 143.287 379.756 143.403C379.793 143.519 379.808 143.643 379.801 143.767L380.266 162.272C380.28 162.53 380.213 162.786 380.075 162.992C379.937 163.198 379.738 163.34 379.516 163.392Z" fill="#263238"/>
<path opacity="0.6" d="M379.516 163.392L371.849 164.331C371.741 164.334 371.634 164.312 371.534 164.266C371.433 164.22 371.343 164.15 371.267 164.062C371.192 163.974 371.133 163.869 371.095 163.753C371.057 163.638 371.041 163.515 371.047 163.392L370.582 144.886C370.567 144.625 370.636 144.366 370.776 144.158C370.916 143.95 371.117 143.806 371.342 143.755L378.998 142.827C379.107 142.822 379.215 142.843 379.316 142.889C379.417 142.934 379.508 143.004 379.584 143.092C379.66 143.181 379.718 143.287 379.756 143.403C379.793 143.519 379.808 143.643 379.801 143.767L380.266 162.272C380.28 162.53 380.213 162.786 380.075 162.992C379.937 163.198 379.738 163.34 379.516 163.392Z" fill="white"/>
<path d="M378.84 163.476L371.184 164.403C371.076 164.41 370.967 164.391 370.866 164.347C370.764 164.303 370.672 164.234 370.596 164.147C370.519 164.059 370.459 163.954 370.42 163.839C370.382 163.723 370.365 163.599 370.371 163.476L369.917 144.958C369.897 144.699 369.963 144.44 370.102 144.233C370.241 144.026 370.442 143.886 370.667 143.839L378.323 142.912C378.43 142.906 378.538 142.927 378.638 142.972C378.738 143.017 378.829 143.085 378.904 143.172C378.98 143.26 379.039 143.364 379.077 143.479C379.115 143.594 379.131 143.716 379.125 143.839L379.59 162.356C379.609 162.616 379.543 162.874 379.405 163.081C379.266 163.288 379.065 163.429 378.84 163.476Z" fill="#263238"/>
<path opacity="0.7" d="M378.84 163.476L371.184 164.403C371.076 164.41 370.967 164.391 370.866 164.347C370.764 164.303 370.672 164.234 370.596 164.147C370.519 164.059 370.459 163.954 370.42 163.839C370.382 163.723 370.365 163.599 370.371 163.476L369.917 144.958C369.897 144.699 369.963 144.44 370.102 144.233C370.241 144.026 370.442 143.886 370.667 143.839L378.323 142.912C378.43 142.906 378.538 142.927 378.638 142.972C378.738 143.017 378.829 143.085 378.904 143.172C378.98 143.26 379.039 143.364 379.077 143.479C379.115 143.594 379.131 143.716 379.125 143.839L379.59 162.356C379.609 162.616 379.543 162.874 379.405 163.081C379.266 163.288 379.065 163.429 378.84 163.476Z" fill="white"/>
<path d="M378.333 143.273L376.327 143.514L376.073 144.224L372.969 144.597L372.684 143.959L370.677 144.2C370.532 144.234 370.403 144.328 370.313 144.463C370.224 144.598 370.181 144.766 370.192 144.934L370.646 163.44C370.641 163.52 370.651 163.601 370.676 163.676C370.701 163.752 370.74 163.82 370.79 163.877C370.84 163.934 370.9 163.978 370.966 164.007C371.032 164.035 371.103 164.047 371.174 164.042L378.83 163.115C378.974 163.083 379.103 162.991 379.193 162.858C379.282 162.725 379.326 162.559 379.315 162.392L378.861 143.875C378.864 143.795 378.853 143.715 378.827 143.64C378.802 143.566 378.763 143.498 378.713 143.441C378.664 143.385 378.604 143.341 378.539 143.312C378.473 143.283 378.403 143.269 378.333 143.273Z" fill="#FB0B0F"/>
<path opacity="0.8" d="M377.308 149.967L371.68 150.654C371.611 150.657 371.543 150.644 371.478 150.616C371.414 150.587 371.356 150.544 371.307 150.488C371.259 150.433 371.221 150.366 371.196 150.293C371.171 150.22 371.16 150.142 371.163 150.064V148.282C371.149 148.116 371.191 147.95 371.278 147.816C371.366 147.683 371.494 147.591 371.638 147.559L377.277 146.873C377.346 146.871 377.414 146.886 377.478 146.916C377.541 146.946 377.599 146.99 377.646 147.047C377.694 147.103 377.731 147.171 377.755 147.244C377.778 147.318 377.788 147.397 377.784 147.475L377.836 149.257C377.845 149.43 377.796 149.6 377.697 149.733C377.599 149.865 377.46 149.949 377.308 149.967Z" fill="white"/>
</g>
<defs>
<clipPath id="clip0_129_144">
<rect width="500" height="500" fill="white"/>
</clipPath>
</defs>
</svg>
