<svg width="337" height="337" viewBox="0 0 337 337" fill="none" xmlns="http://www.w3.org/2000/svg">
<g filter="url(#filter0_d_0_1)">
<circle cx="168.5" cy="164.5" r="164.5" fill="white" style="fill:white;fill-opacity:1;"/>
</g>
<path d="M64.7015 193L59.7072 175.545H63.7384L66.6276 187.673H66.7725L69.96 175.545H73.4117L76.5907 187.699H76.7441L79.6333 175.545H83.6646L78.6702 193H75.0737L71.7498 181.588H71.6134L68.2981 193H64.7015ZM89.3312 193.256C87.9846 193.256 86.8255 192.983 85.8539 192.438C84.888 191.886 84.1437 191.108 83.621 190.102C83.0982 189.091 82.8369 187.895 82.8369 186.514C82.8369 185.168 83.0982 183.986 83.621 182.969C84.1437 181.952 84.8795 181.159 85.8283 180.591C86.7829 180.023 87.9022 179.739 89.1863 179.739C90.0499 179.739 90.8539 179.878 91.5982 180.156C92.3482 180.429 93.0016 180.841 93.5585 181.392C94.121 181.943 94.5585 182.636 94.871 183.472C95.1835 184.301 95.3397 185.273 95.3397 186.386V187.384H84.2857V185.134H91.9221C91.9221 184.611 91.8085 184.148 91.5812 183.744C91.3539 183.341 91.0386 183.026 90.6352 182.798C90.2374 182.565 89.7744 182.449 89.246 182.449C88.6948 182.449 88.2062 182.577 87.78 182.832C87.3596 183.082 87.03 183.42 86.7914 183.847C86.5528 184.267 86.4306 184.736 86.4249 185.253V187.392C86.4249 188.04 86.5442 188.599 86.7829 189.071C87.0272 189.543 87.371 189.906 87.8141 190.162C88.2573 190.418 88.7829 190.545 89.3908 190.545C89.7942 190.545 90.1636 190.489 90.4988 190.375C90.834 190.261 91.121 190.091 91.3596 189.864C91.5982 189.636 91.78 189.358 91.905 189.028L95.263 189.25C95.0925 190.057 94.7431 190.761 94.2147 191.364C93.692 191.96 93.0158 192.426 92.1863 192.761C91.3624 193.091 90.4107 193.256 89.3312 193.256ZM100.54 175.545V193H96.909V175.545H100.54ZM108.563 193.256C107.222 193.256 106.069 192.972 105.103 192.403C104.142 191.83 103.404 191.034 102.887 190.017C102.375 189 102.12 187.83 102.12 186.506C102.12 185.165 102.378 183.989 102.895 182.977C103.418 181.96 104.159 181.168 105.12 180.599C106.08 180.026 107.222 179.739 108.546 179.739C109.688 179.739 110.688 179.946 111.546 180.361C112.404 180.776 113.083 181.358 113.583 182.108C114.083 182.858 114.358 183.739 114.409 184.75H110.983C110.887 184.097 110.631 183.571 110.216 183.173C109.807 182.77 109.27 182.568 108.605 182.568C108.043 182.568 107.551 182.722 107.131 183.028C106.716 183.33 106.392 183.77 106.159 184.349C105.926 184.929 105.81 185.631 105.81 186.455C105.81 187.29 105.924 188 106.151 188.585C106.384 189.17 106.711 189.616 107.131 189.923C107.551 190.23 108.043 190.384 108.605 190.384C109.02 190.384 109.392 190.298 109.722 190.128C110.057 189.957 110.333 189.71 110.549 189.386C110.77 189.057 110.915 188.662 110.983 188.202H114.409C114.353 189.202 114.08 190.082 113.591 190.844C113.108 191.599 112.441 192.19 111.588 192.616C110.736 193.043 109.728 193.256 108.563 193.256ZM121.849 193.256C120.525 193.256 119.38 192.974 118.414 192.412C117.454 191.844 116.712 191.054 116.19 190.043C115.667 189.026 115.406 187.847 115.406 186.506C115.406 185.153 115.667 183.972 116.19 182.96C116.712 181.943 117.454 181.153 118.414 180.591C119.38 180.023 120.525 179.739 121.849 179.739C123.173 179.739 124.315 180.023 125.275 180.591C126.241 181.153 126.985 181.943 127.508 182.96C128.031 183.972 128.292 185.153 128.292 186.506C128.292 187.847 128.031 189.026 127.508 190.043C126.985 191.054 126.241 191.844 125.275 192.412C124.315 192.974 123.173 193.256 121.849 193.256ZM121.866 190.443C122.468 190.443 122.971 190.273 123.374 189.932C123.778 189.585 124.082 189.114 124.286 188.517C124.497 187.92 124.602 187.241 124.602 186.48C124.602 185.719 124.497 185.04 124.286 184.443C124.082 183.847 123.778 183.375 123.374 183.028C122.971 182.682 122.468 182.509 121.866 182.509C121.258 182.509 120.747 182.682 120.332 183.028C119.923 183.375 119.613 183.847 119.403 184.443C119.198 185.04 119.096 185.719 119.096 186.48C119.096 187.241 119.198 187.92 119.403 188.517C119.613 189.114 119.923 189.585 120.332 189.932C120.747 190.273 121.258 190.443 121.866 190.443ZM129.853 193V179.909H133.313V182.219H133.466C133.739 181.452 134.194 180.847 134.83 180.403C135.466 179.96 136.228 179.739 137.114 179.739C138.012 179.739 138.776 179.963 139.407 180.412C140.037 180.855 140.458 181.457 140.668 182.219H140.804C141.072 181.469 141.554 180.869 142.253 180.42C142.958 179.966 143.79 179.739 144.75 179.739C145.972 179.739 146.964 180.128 147.725 180.906C148.492 181.679 148.875 182.776 148.875 184.196V193H145.253V184.912C145.253 184.185 145.06 183.639 144.674 183.276C144.287 182.912 143.804 182.73 143.225 182.73C142.566 182.73 142.052 182.94 141.682 183.361C141.313 183.776 141.128 184.324 141.128 185.006V193H137.608V184.835C137.608 184.193 137.424 183.682 137.054 183.301C136.691 182.92 136.211 182.73 135.614 182.73C135.211 182.73 134.847 182.832 134.523 183.037C134.205 183.236 133.952 183.517 133.765 183.881C133.577 184.239 133.483 184.659 133.483 185.142V193H129.853ZM156.909 193.256C155.563 193.256 154.404 192.983 153.432 192.438C152.466 191.886 151.722 191.108 151.199 190.102C150.676 189.091 150.415 187.895 150.415 186.514C150.415 185.168 150.676 183.986 151.199 182.969C151.722 181.952 152.458 181.159 153.406 180.591C154.361 180.023 155.48 179.739 156.764 179.739C157.628 179.739 158.432 179.878 159.176 180.156C159.926 180.429 160.58 180.841 161.137 181.392C161.699 181.943 162.137 182.636 162.449 183.472C162.762 184.301 162.918 185.273 162.918 186.386V187.384H151.864V185.134H159.5C159.5 184.611 159.387 184.148 159.159 183.744C158.932 183.341 158.617 183.026 158.213 182.798C157.816 182.565 157.352 182.449 156.824 182.449C156.273 182.449 155.784 182.577 155.358 182.832C154.938 183.082 154.608 183.42 154.37 183.847C154.131 184.267 154.009 184.736 154.003 185.253V187.392C154.003 188.04 154.122 188.599 154.361 189.071C154.605 189.543 154.949 189.906 155.392 190.162C155.835 190.418 156.361 190.545 156.969 190.545C157.372 190.545 157.742 190.489 158.077 190.375C158.412 190.261 158.699 190.091 158.938 189.864C159.176 189.636 159.358 189.358 159.483 189.028L162.841 189.25C162.671 190.057 162.321 190.761 161.793 191.364C161.27 191.96 160.594 192.426 159.764 192.761C158.941 193.091 157.989 193.256 156.909 193.256ZM175.157 193.256C173.833 193.256 172.688 192.974 171.722 192.412C170.762 191.844 170.02 191.054 169.498 190.043C168.975 189.026 168.713 187.847 168.713 186.506C168.713 185.153 168.975 183.972 169.498 182.96C170.02 181.943 170.762 181.153 171.722 180.591C172.688 180.023 173.833 179.739 175.157 179.739C176.48 179.739 177.623 180.023 178.583 180.591C179.549 181.153 180.293 181.943 180.816 182.96C181.338 183.972 181.6 185.153 181.6 186.506C181.6 187.847 181.338 189.026 180.816 190.043C180.293 191.054 179.549 191.844 178.583 192.412C177.623 192.974 176.48 193.256 175.157 193.256ZM175.174 190.443C175.776 190.443 176.279 190.273 176.682 189.932C177.086 189.585 177.39 189.114 177.594 188.517C177.804 187.92 177.909 187.241 177.909 186.48C177.909 185.719 177.804 185.04 177.594 184.443C177.39 183.847 177.086 183.375 176.682 183.028C176.279 182.682 175.776 182.509 175.174 182.509C174.566 182.509 174.054 182.682 173.64 183.028C173.23 183.375 172.921 183.847 172.711 184.443C172.506 185.04 172.404 185.719 172.404 186.48C172.404 187.241 172.506 187.92 172.711 188.517C172.921 189.114 173.23 189.585 173.64 189.932C174.054 190.273 174.566 190.443 175.174 190.443ZM186.791 185.432V193H183.161V179.909H186.621V182.219H186.774C187.064 181.457 187.55 180.855 188.232 180.412C188.913 179.963 189.74 179.739 190.712 179.739C191.621 179.739 192.413 179.938 193.09 180.335C193.766 180.733 194.291 181.301 194.666 182.04C195.041 182.773 195.229 183.648 195.229 184.665V193H191.598V185.312C191.604 184.511 191.399 183.886 190.984 183.438C190.57 182.983 189.999 182.756 189.271 182.756C188.783 182.756 188.351 182.861 187.976 183.071C187.607 183.281 187.317 183.588 187.107 183.991C186.902 184.389 186.797 184.869 186.791 185.432Z" fill="black" style="fill:black;fill-opacity:1;"/>
<path d="M213.055 193H206.868V175.545H213.106C214.862 175.545 216.373 175.895 217.641 176.594C218.908 177.287 219.882 178.284 220.564 179.585C221.251 180.886 221.595 182.443 221.595 184.256C221.595 186.074 221.251 187.636 220.564 188.943C219.882 190.25 218.902 191.253 217.623 191.952C216.351 192.651 214.828 193 213.055 193ZM210.558 189.838H212.902C213.993 189.838 214.91 189.645 215.655 189.259C216.405 188.866 216.967 188.261 217.342 187.443C217.723 186.619 217.913 185.557 217.913 184.256C217.913 182.966 217.723 181.912 217.342 181.094C216.967 180.276 216.408 179.673 215.663 179.287C214.919 178.901 214.001 178.707 212.91 178.707H210.558V189.838ZM223.461 193V179.909H227.091V193H223.461ZM225.284 178.222C224.745 178.222 224.282 178.043 223.895 177.685C223.515 177.321 223.324 176.886 223.324 176.381C223.324 175.881 223.515 175.452 223.895 175.094C224.282 174.73 224.745 174.548 225.284 174.548C225.824 174.548 226.284 174.73 226.665 175.094C227.051 175.452 227.245 175.881 227.245 176.381C227.245 176.886 227.051 177.321 226.665 177.685C226.284 178.043 225.824 178.222 225.284 178.222ZM236.239 179.909V182.636H228.16V179.909H236.239ZM230.009 193V178.963C230.009 178.014 230.194 177.227 230.563 176.602C230.938 175.977 231.45 175.509 232.097 175.196C232.745 174.884 233.481 174.727 234.305 174.727C234.862 174.727 235.37 174.77 235.83 174.855C236.296 174.94 236.643 175.017 236.87 175.085L236.222 177.812C236.08 177.767 235.904 177.724 235.694 177.685C235.489 177.645 235.279 177.625 235.063 177.625C234.529 177.625 234.157 177.75 233.947 178C233.737 178.244 233.631 178.588 233.631 179.031V193H230.009ZM240.24 193L236.677 179.909H240.351L242.379 188.705H242.498L244.612 179.909H248.217L250.365 188.653H250.476L252.47 179.909H256.135L252.581 193H248.737L246.487 184.767H246.325L244.075 193H240.24ZM261.004 193.247C260.169 193.247 259.425 193.102 258.772 192.812C258.118 192.517 257.601 192.082 257.22 191.509C256.845 190.929 256.658 190.207 256.658 189.344C256.658 188.616 256.791 188.006 257.058 187.511C257.326 187.017 257.689 186.619 258.149 186.318C258.61 186.017 259.132 185.79 259.718 185.636C260.308 185.483 260.928 185.375 261.576 185.312C262.337 185.233 262.951 185.159 263.416 185.091C263.882 185.017 264.22 184.909 264.431 184.767C264.641 184.625 264.746 184.415 264.746 184.136V184.085C264.746 183.545 264.576 183.128 264.235 182.832C263.899 182.537 263.422 182.389 262.803 182.389C262.149 182.389 261.629 182.534 261.243 182.824C260.857 183.108 260.601 183.466 260.476 183.898L257.118 183.625C257.289 182.83 257.624 182.142 258.124 181.562C258.624 180.977 259.269 180.528 260.058 180.216C260.854 179.898 261.774 179.739 262.82 179.739C263.547 179.739 264.243 179.824 264.908 179.994C265.578 180.165 266.172 180.429 266.689 180.787C267.212 181.145 267.624 181.605 267.925 182.168C268.226 182.724 268.377 183.392 268.377 184.17V193H264.933V191.185H264.831C264.621 191.594 264.34 191.955 263.987 192.267C263.635 192.574 263.212 192.815 262.718 192.991C262.223 193.162 261.652 193.247 261.004 193.247ZM262.044 190.741C262.578 190.741 263.05 190.636 263.459 190.426C263.868 190.21 264.189 189.92 264.422 189.557C264.655 189.193 264.772 188.781 264.772 188.321V186.932C264.658 187.006 264.502 187.074 264.303 187.136C264.11 187.193 263.891 187.247 263.647 187.298C263.402 187.344 263.158 187.386 262.914 187.426C262.669 187.46 262.448 187.491 262.249 187.52C261.823 187.582 261.451 187.682 261.132 187.818C260.814 187.955 260.567 188.139 260.391 188.372C260.215 188.599 260.127 188.884 260.127 189.224C260.127 189.719 260.306 190.097 260.664 190.358C261.027 190.614 261.487 190.741 262.044 190.741Z" fill="#39B7FF" style="fill:#39B7FF;fill:color(display-p3 0.2248 0.7191 1.0000);fill-opacity:1;"/>
<path d="M89.0139 157V139.545H92.7043V146.747H100.196V139.545H103.878V157H100.196V149.79H92.7043V157H89.0139ZM112.018 157.256C110.671 157.256 109.512 156.983 108.541 156.438C107.575 155.886 106.83 155.108 106.308 154.102C105.785 153.091 105.524 151.895 105.524 150.514C105.524 149.168 105.785 147.986 106.308 146.969C106.83 145.952 107.566 145.159 108.515 144.591C109.47 144.023 110.589 143.739 111.873 143.739C112.737 143.739 113.541 143.878 114.285 144.156C115.035 144.429 115.688 144.841 116.245 145.392C116.808 145.943 117.245 146.636 117.558 147.472C117.87 148.301 118.026 149.273 118.026 150.386V151.384H106.972V149.134H114.609C114.609 148.611 114.495 148.148 114.268 147.744C114.041 147.341 113.725 147.026 113.322 146.798C112.924 146.565 112.461 146.449 111.933 146.449C111.382 146.449 110.893 146.577 110.467 146.832C110.046 147.082 109.717 147.42 109.478 147.847C109.239 148.267 109.117 148.736 109.112 149.253V151.392C109.112 152.04 109.231 152.599 109.47 153.071C109.714 153.543 110.058 153.906 110.501 154.162C110.944 154.418 111.47 154.545 112.078 154.545C112.481 154.545 112.85 154.489 113.186 154.375C113.521 154.261 113.808 154.091 114.046 153.864C114.285 153.636 114.467 153.358 114.592 153.028L117.95 153.25C117.779 154.057 117.43 154.761 116.901 155.364C116.379 155.96 115.703 156.426 114.873 156.761C114.049 157.091 113.097 157.256 112.018 157.256ZM123.226 139.545V157H119.596V139.545H123.226ZM128.965 139.545V157H125.335V139.545H128.965ZM136.989 157.256C135.665 157.256 134.52 156.974 133.554 156.412C132.594 155.844 131.852 155.054 131.33 154.043C130.807 153.026 130.545 151.847 130.545 150.506C130.545 149.153 130.807 147.972 131.33 146.96C131.852 145.943 132.594 145.153 133.554 144.591C134.52 144.023 135.665 143.739 136.989 143.739C138.312 143.739 139.455 144.023 140.415 144.591C141.381 145.153 142.125 145.943 142.648 146.96C143.17 147.972 143.432 149.153 143.432 150.506C143.432 151.847 143.17 153.026 142.648 154.043C142.125 155.054 141.381 155.844 140.415 156.412C139.455 156.974 138.312 157.256 136.989 157.256ZM137.006 154.443C137.608 154.443 138.111 154.273 138.514 153.932C138.918 153.585 139.222 153.114 139.426 152.517C139.636 151.92 139.741 151.241 139.741 150.48C139.741 149.719 139.636 149.04 139.426 148.443C139.222 147.847 138.918 147.375 138.514 147.028C138.111 146.682 137.608 146.509 137.006 146.509C136.398 146.509 135.886 146.682 135.472 147.028C135.062 147.375 134.753 147.847 134.543 148.443C134.338 149.04 134.236 149.719 134.236 150.48C134.236 151.241 134.338 151.92 134.543 152.517C134.753 153.114 135.062 153.585 135.472 153.932C135.886 154.273 136.398 154.443 137.006 154.443ZM149.331 139.545L148.998 151.767H145.879L145.538 139.545H149.331ZM147.439 157.222C146.876 157.222 146.393 157.023 145.99 156.625C145.586 156.222 145.387 155.739 145.393 155.176C145.387 154.619 145.586 154.142 145.99 153.744C146.393 153.347 146.876 153.148 147.439 153.148C147.978 153.148 148.453 153.347 148.862 153.744C149.271 154.142 149.478 154.619 149.484 155.176C149.478 155.551 149.379 155.895 149.186 156.207C148.998 156.514 148.751 156.761 148.444 156.949C148.137 157.131 147.802 157.222 147.439 157.222Z" fill="black" style="fill:black;fill-opacity:1;"/>
<path d="M159.95 139.545L164.169 152.807H164.331L168.558 139.545H172.649L166.632 157H161.876L155.851 139.545H159.95ZM178.371 157.256C177.024 157.256 175.865 156.983 174.894 156.438C173.928 155.886 173.184 155.108 172.661 154.102C172.138 153.091 171.877 151.895 171.877 150.514C171.877 149.168 172.138 147.986 172.661 146.969C173.184 145.952 173.919 145.159 174.868 144.591C175.823 144.023 176.942 143.739 178.226 143.739C179.09 143.739 179.894 143.878 180.638 144.156C181.388 144.429 182.041 144.841 182.598 145.392C183.161 145.943 183.598 146.636 183.911 147.472C184.223 148.301 184.38 149.273 184.38 150.386V151.384H173.326V149.134H180.962C180.962 148.611 180.848 148.148 180.621 147.744C180.394 147.341 180.078 147.026 179.675 146.798C179.277 146.565 178.814 146.449 178.286 146.449C177.735 146.449 177.246 146.577 176.82 146.832C176.399 147.082 176.07 147.42 175.831 147.847C175.593 148.267 175.47 148.736 175.465 149.253V151.392C175.465 152.04 175.584 152.599 175.823 153.071C176.067 153.543 176.411 153.906 176.854 154.162C177.297 154.418 177.823 154.545 178.431 154.545C178.834 154.545 179.203 154.489 179.539 154.375C179.874 154.261 180.161 154.091 180.399 153.864C180.638 153.636 180.82 153.358 180.945 153.028L184.303 153.25C184.132 154.057 183.783 154.761 183.255 155.364C182.732 155.96 182.056 156.426 181.226 156.761C180.402 157.091 179.451 157.256 178.371 157.256ZM189.58 149.432V157H185.949V143.909H189.409V146.219H189.562C189.852 145.457 190.338 144.855 191.02 144.412C191.702 143.963 192.528 143.739 193.5 143.739C194.409 143.739 195.202 143.938 195.878 144.335C196.554 144.733 197.08 145.301 197.455 146.04C197.83 146.773 198.017 147.648 198.017 148.665V157H194.386V149.312C194.392 148.511 194.188 147.886 193.773 147.438C193.358 146.983 192.787 146.756 192.06 146.756C191.571 146.756 191.139 146.861 190.764 147.071C190.395 147.281 190.105 147.588 189.895 147.991C189.69 148.389 189.585 148.869 189.58 149.432ZM204.902 157.213C203.908 157.213 203.008 156.957 202.201 156.446C201.4 155.929 200.763 155.17 200.292 154.17C199.826 153.165 199.593 151.932 199.593 150.472C199.593 148.972 199.834 147.724 200.317 146.73C200.8 145.73 201.442 144.983 202.243 144.489C203.05 143.989 203.934 143.739 204.894 143.739C205.627 143.739 206.238 143.864 206.726 144.114C207.221 144.358 207.618 144.665 207.919 145.034C208.226 145.398 208.459 145.756 208.618 146.108H208.729V139.545H212.351V157H208.772V154.903H208.618C208.448 155.267 208.206 155.628 207.894 155.986C207.587 156.338 207.187 156.631 206.692 156.864C206.204 157.097 205.607 157.213 204.902 157.213ZM206.053 154.324C206.638 154.324 207.133 154.165 207.536 153.847C207.945 153.523 208.258 153.071 208.473 152.491C208.695 151.912 208.806 151.233 208.806 150.455C208.806 149.676 208.698 149 208.482 148.426C208.266 147.852 207.954 147.409 207.544 147.097C207.135 146.784 206.638 146.628 206.053 146.628C205.456 146.628 204.954 146.79 204.544 147.114C204.135 147.437 203.826 147.886 203.615 148.46C203.405 149.034 203.3 149.699 203.3 150.455C203.3 151.216 203.405 151.889 203.615 152.474C203.831 153.054 204.141 153.509 204.544 153.838C204.954 154.162 205.456 154.324 206.053 154.324ZM220.451 157.256C219.127 157.256 217.982 156.974 217.016 156.412C216.056 155.844 215.315 155.054 214.792 154.043C214.269 153.026 214.008 151.847 214.008 150.506C214.008 149.153 214.269 147.972 214.792 146.96C215.315 145.943 216.056 145.153 217.016 144.591C217.982 144.023 219.127 143.739 220.451 143.739C221.775 143.739 222.917 144.023 223.877 144.591C224.843 145.153 225.587 145.943 226.11 146.96C226.633 147.972 226.894 149.153 226.894 150.506C226.894 151.847 226.633 153.026 226.11 154.043C225.587 155.054 224.843 155.844 223.877 156.412C222.917 156.974 221.775 157.256 220.451 157.256ZM220.468 154.443C221.07 154.443 221.573 154.273 221.977 153.932C222.38 153.585 222.684 153.114 222.889 152.517C223.099 151.92 223.204 151.241 223.204 150.48C223.204 149.719 223.099 149.04 222.889 148.443C222.684 147.847 222.38 147.375 221.977 147.028C221.573 146.682 221.07 146.509 220.468 146.509C219.86 146.509 219.349 146.682 218.934 147.028C218.525 147.375 218.215 147.847 218.005 148.443C217.801 149.04 217.698 149.719 217.698 150.48C217.698 151.241 217.801 151.92 218.005 152.517C218.215 153.114 218.525 153.585 218.934 153.932C219.349 154.273 219.86 154.443 220.468 154.443ZM228.455 157V143.909H231.975V146.193H232.111C232.35 145.381 232.751 144.767 233.313 144.352C233.876 143.932 234.523 143.722 235.256 143.722C235.438 143.722 235.634 143.733 235.844 143.756C236.055 143.778 236.239 143.81 236.398 143.849V147.071C236.228 147.02 235.992 146.974 235.691 146.935C235.39 146.895 235.114 146.875 234.864 146.875C234.33 146.875 233.853 146.991 233.432 147.224C233.018 147.452 232.688 147.77 232.444 148.179C232.205 148.588 232.086 149.06 232.086 149.594V157H228.455ZM248.367 147.642L245.044 147.847C244.987 147.562 244.865 147.307 244.677 147.08C244.49 146.847 244.242 146.662 243.936 146.526C243.635 146.384 243.274 146.312 242.853 146.312C242.291 146.312 241.816 146.432 241.43 146.67C241.044 146.903 240.85 147.216 240.85 147.608C240.85 147.92 240.975 148.185 241.225 148.401C241.475 148.616 241.904 148.79 242.512 148.92L244.882 149.398C246.154 149.659 247.103 150.08 247.728 150.659C248.353 151.239 248.666 152 248.666 152.943C248.666 153.801 248.413 154.554 247.907 155.202C247.407 155.849 246.72 156.355 245.845 156.719C244.975 157.077 243.973 157.256 242.836 157.256C241.103 157.256 239.723 156.895 238.694 156.173C237.671 155.446 237.072 154.457 236.896 153.207L240.467 153.02C240.575 153.548 240.836 153.952 241.251 154.23C241.666 154.503 242.197 154.639 242.845 154.639C243.481 154.639 243.992 154.517 244.379 154.273C244.771 154.023 244.97 153.702 244.975 153.31C244.97 152.98 244.831 152.71 244.558 152.5C244.285 152.284 243.865 152.119 243.296 152.006L241.029 151.554C239.751 151.298 238.799 150.855 238.174 150.224C237.555 149.594 237.245 148.79 237.245 147.812C237.245 146.972 237.473 146.247 237.927 145.639C238.387 145.031 239.032 144.562 239.862 144.233C240.697 143.903 241.674 143.739 242.794 143.739C244.447 143.739 245.748 144.088 246.697 144.787C247.652 145.486 248.208 146.437 248.367 147.642Z" fill="#4BBEFF" style="fill:#4BBEFF;fill:color(display-p3 0.2941 0.7451 1.0000);fill-opacity:1;"/>
<defs>
<filter id="filter0_d_0_1" x="0" y="0" width="337" height="337" filterUnits="userSpaceOnUse" color-interpolation-filters="sRGB">
<feFlood flood-opacity="0" result="BackgroundImageFix"/>
<feColorMatrix in="SourceAlpha" type="matrix" values="0 0 0 0 0 0 0 0 0 0 0 0 0 0 0 0 0 0 127 0" result="hardAlpha"/>
<feOffset dy="4"/>
<feGaussianBlur stdDeviation="2"/>
<feComposite in2="hardAlpha" operator="out"/>
<feColorMatrix type="matrix" values="0 0 0 0 0 0 0 0 0 0 0 0 0 0 0 0 0 0 0.25 0"/>
<feBlend mode="normal" in2="BackgroundImageFix" result="effect1_dropShadow_0_1"/>
<feBlend mode="normal" in="SourceGraphic" in2="effect1_dropShadow_0_1" result="shape"/>
</filter>
</defs>
</svg>
